<svg xmlns="http://www.w3.org/2000/svg" width="237.817" height="100" viewBox="0 0 237.817 100"><g transform="translate(-27.119 -318.922)"><path d="M199.111,385.413c0-1.92-.039-1.92-1.862-2.211v-.427h6.05c2.386,0,3.937,1.3,3.937,3.588,0,3.665-2.909,3.665-5.313,3.665h-.679v5.8h-2.133Zm2.133,3.7h1.008c1.531,0,2.851-.5,2.851-2.831,0-2.172-1.028-2.6-2.754-2.6-1.047,0-1.1.368-1.1,1.164Z" transform="translate(-87.65 -32.897)" fill="#fff"/><path d="M221.461,393.39c0-1.357-.31-1.687-1.531-1.726v-.388l3.471-.621v2.56h.039c.271-.892.873-2.56,2.424-2.56a6.188,6.188,0,0,1,1.048.1V392.6a3.508,3.508,0,0,0-.989-.233c-1.959,0-2.521,1.532-2.521,2.889v4.635h-1.939Z" transform="translate(-99.335 -36.957)" fill="#fff"/><path d="M236.377,395.388c0-3.238,1.357-4.732,4.189-4.732,2.812,0,4.189,1.939,4.189,4.732,0,3.161-1.319,4.712-4.189,4.712C237.444,400.1,236.377,398.1,236.377,395.388Zm4.189,4.053c1.9,0,2.056-2.114,2.056-4.053,0-1.784-.175-4.072-2.056-4.072-1.92,0-2.056,2.366-2.056,4.072C238.51,397,238.646,399.441,240.566,399.441Z" transform="translate(-107.809 -36.957)" fill="#fff"/><path d="M256.642,393.229c-.485-1.3-.7-1.629-2.017-1.745V391.1h3.238l2.715,6.826,2.637-6.826h1.105l-3.471,9.017h-1.416Z" transform="translate(-117.21 -37.184)" fill="#fff"/><path d="M278.438,389.186c0-1.357-.31-1.687-1.493-1.726v-.388l3.432-.621v9.231h-1.939Zm-.213-5.488a1.213,1.213,0,0,1,1.222-1.2,1.229,1.229,0,0,1,1.241,1.2,1.25,1.25,0,0,1-1.26,1.222A1.213,1.213,0,0,1,278.225,383.7Z" transform="translate(-128.709 -32.753)" fill="#fff"/><path d="M290.1,393.39c0-1.357-.33-1.687-1.551-1.726v-.388l3.491-.621v2.482h.039c.291-.679,1.319-2.482,3.238-2.482,1.764,0,2.346,1.241,2.346,2.734v6.5H295.72v-5.023c0-1.532,0-2.889-1.3-2.889-1.28,0-2.385,1.8-2.385,3.18v4.732H290.1Z" transform="translate(-134.686 -36.957)" fill="#fff"/><path d="M319.823,399.635a6.232,6.232,0,0,1-2.754.465c-2.715,0-4.324-1.92-4.324-4.848,0-2.657,1.086-4.6,3.859-4.6,2.152,0,3.568,1.086,3.568,2.657h-2.288c0-.8-.194-2-1.4-2-1.319,0-1.61,1.435-1.61,3.3,0,2.87,1.319,4.441,3.084,4.441a6.833,6.833,0,0,0,1.862-.272Z" transform="translate(-147.153 -36.957)" fill="#fff"/><path d="M331.238,389.186c0-1.357-.31-1.687-1.493-1.726v-.388l3.432-.621v9.231h-1.939Zm-.213-5.488a1.212,1.212,0,0,1,1.221-1.2,1.229,1.229,0,0,1,1.242,1.2,1.25,1.25,0,0,1-1.261,1.222A1.212,1.212,0,0,1,331.025,383.7Z" transform="translate(-155.912 -32.753)" fill="#fff"/><path d="M347.285,398.743a3.037,3.037,0,0,1-2.5,1.357,2.445,2.445,0,0,1-2.6-2.23c0-2.734,3.859-2.948,5.1-2.986v-.989c0-1.222,0-2.579-1.222-2.579-1.28,0-1.357,1.125-1.357,1.978H342.4c.213-1.28.853-2.637,3.645-2.637,2.754,0,3.181,1.416,3.181,3.335v5.9h-1.939Zm0-3.161c-.7.019-2.967.116-2.967,1.959,0,.892.446,1.513,1.163,1.513,1.125,0,1.8-1.028,1.8-2.346Z" transform="translate(-162.321 -36.957)" fill="#fff"/><path d="M381.571,394.185a3.685,3.685,0,0,1-2.676,1.3c-2.521,0-3.471-2.114-3.471-4.538,0-2.463.989-4.906,3.549-4.906a2.633,2.633,0,0,1,2.56,1.454h.039v-3.161c0-1.377-.31-1.707-1.454-1.765v-.388l3.394-.485v13.575h-1.939Zm0-3.995c0-1.086-.213-3.1-2.056-3.1-1.784,0-1.959,2.23-1.959,3.588,0,1.493.155,3.762,1.978,3.762,1.862,0,2.036-2.424,2.036-3.452Z" transform="translate(-179.445 -32.341)" fill="#fff"/><path d="M398.2,389.186c0-1.357-.31-1.687-1.493-1.726v-.388l3.432-.621v9.231H398.2Zm-.213-5.488a1.213,1.213,0,0,1,1.222-1.2,1.229,1.229,0,0,1,1.241,1.2,1.25,1.25,0,0,1-1.26,1.222A1.213,1.213,0,0,1,397.984,383.7Z" transform="translate(-190.409 -32.753)" fill="#fff"/><path d="M423,385.109c0-1.629-.058-1.648-1.939-1.9v-.427l4.072-.446v10.9c0,1.454,0,1.454,1.3,1.454H428.1c1.222,0,2.289-.078,2.289-1.9h.543l-.058,2.812H423Z" transform="translate(-202.958 -32.671)" fill="#fff"/><path d="M452.669,399.576a7.741,7.741,0,0,1-2.734.524c-2.967,0-4.751-1.8-4.751-5.042,0-3.064,1.473-4.4,4.072-4.4,3.316,0,3.588,2.4,3.588,3.7h-5.527c0,1.939.8,4.693,3.529,4.693a5.072,5.072,0,0,0,1.823-.33Zm-1.765-5.992c0-.446-.039-2.269-1.726-2.269-1.454,0-1.862,1.532-1.862,2.269Z" transform="translate(-215.385 -36.957)" fill="#fff"/><path d="M471.581,399.635a6.232,6.232,0,0,1-2.754.465c-2.715,0-4.324-1.92-4.324-4.848,0-2.657,1.086-4.6,3.859-4.6,2.153,0,3.568,1.086,3.568,2.657h-2.288c0-.8-.194-2-1.4-2-1.319,0-1.609,1.435-1.609,3.3,0,2.87,1.319,4.441,3.083,4.441a6.834,6.834,0,0,0,1.862-.272Z" transform="translate(-225.338 -36.957)" fill="#fff"/><path d="M489.421,399.635a6.227,6.227,0,0,1-2.753.465c-2.715,0-4.324-1.92-4.324-4.848,0-2.657,1.086-4.6,3.859-4.6,2.153,0,3.568,1.086,3.568,2.657h-2.289c0-.8-.193-2-1.4-2-1.318,0-1.609,1.435-1.609,3.3,0,2.87,1.319,4.441,3.083,4.441a6.83,6.83,0,0,0,1.862-.272Z" transform="translate(-234.53 -36.957)" fill="#fff"/><path d="M500.383,395.388c0-3.238,1.357-4.732,4.188-4.732,2.812,0,4.189,1.939,4.189,4.732,0,3.161-1.319,4.712-4.189,4.712C501.45,400.1,500.383,398.1,500.383,395.388Zm4.188,4.053c1.9,0,2.056-2.114,2.056-4.053,0-1.784-.175-4.072-2.056-4.072-1.92,0-2.056,2.366-2.056,4.072C502.516,397,502.651,399.441,504.571,399.441Z" transform="translate(-243.824 -36.957)" fill="#fff"/><g transform="translate(99.117 349.789)"><rect width="1.939" height="65.186" transform="translate(0 0)" fill="#fff"/></g><path d="M78.231,352.072c-10,0-18.1,1.823-18.1,4.075,0,.677.9,1.044,2.48,1.233l-.151-.648c-.3.079-.456-.065-.456-.119,0-.26.143-.353.555-.612,1.958-1.215,8.234-2.09,15.673-2.09s13.714.875,15.672,2.09c.413.258.554.352.554.612,0,.054-.159.2-.455.119l-.133.568c1.565-.189,2.462-.536,2.462-1.153,0-2.251-8.1-4.075-18.1-4.075Z" transform="translate(-17.007 -17.079)" fill="#fa0"/><path d="M64.449,358.687l.708,3.04c2.656-1.053,8.4-1.782,15.063-1.782s12.407.729,15.062,1.782l.708-3.04c.3.079.455-.065.455-.119,0-.26-.141-.353-.554-.612-1.958-1.215-8.231-2.09-15.672-2.09s-13.715.875-15.673,2.09c-.413.258-.555.352-.555.612,0,.054.159.2.456.119Z" transform="translate(-18.997 -19.033)" fill="#ffc355"/><path d="M96.421,367.375c0,1.712-7.445,3.1-16.631,3.1s-16.634-1.385-16.634-3.1S70.6,364.28,79.79,364.28s16.631,1.388,16.631,3.095Z" transform="translate(-18.566 -23.368)" fill="#fa0"/><path d="M97.283,358.2l-2.936,1.794L91.413,358.2l2.934-1.791,2.936,1.791Z" transform="translate(-33.124 -19.312)" fill="#fa0"/><path d="M93.851,358.968l1.753,1.069c.36-.219,1-.611,1.751-1.069-.749-.456-1.391-.849-1.751-1.068-.36.218-1,.612-1.753,1.068Z" transform="translate(-34.38 -20.081)" fill="#e23817"/><path d="M66.555,362.579l-1,1.235-1.337-.555,1-1.233,1.337.553Z" transform="translate(-19.111 -22.207)" fill="#fa0"/><path d="M65.187,363.5c.341.141.635.263.8.33.123-.149.344-.421.6-.735-.341-.142-.636-.262-.8-.331l-.6.737Z" transform="translate(-19.612 -22.589)" fill="#e23817"/><path d="M78.676,359.129H78.66l-.041-.376a.226.226,0,0,0-.248-.2l-2.793.317a.225.225,0,0,0-.2.247l.044.378h-.014a.459.459,0,1,0,.1.913l.012,0,.044.379a.225.225,0,0,0,.248.2l2.793-.319a.223.223,0,0,0,.2-.248l-.044-.378h.015a.459.459,0,0,0-.1-.912Z" transform="translate(-24.67 -20.419)" fill="#fa0"/><path d="M76.793,359.827c.033.293.1.9.135,1.189l2.313-.263c-.033-.293-.1-.9-.136-1.188l-2.312.262Z" transform="translate(-25.592 -20.939)" fill="#e23817"/><path d="M111.812,359.133h.012l.043-.376a.223.223,0,0,1,.25-.194l2.793.314a.223.223,0,0,1,.2.246l-.044.379h.015a.459.459,0,1,1-.1.912l-.014,0-.042.378a.224.224,0,0,1-.247.2l-2.792-.319a.224.224,0,0,1-.2-.247l.044-.378h-.013a.459.459,0,1,1,.1-.913Z" transform="translate(-43.369 -20.423)" fill="#fa0"/><path d="M115.538,359.829c-.033.3-.1.9-.135,1.191l-2.313-.264c.034-.293.1-.9.136-1.188l2.312.262Z" transform="translate(-44.292 -20.94)" fill="#e23817"/><path d="M96.56,369.217c0,1.174-6.464,2.127-14.439,2.127s-14.44-.953-14.44-2.127,6.464-2.13,14.44-2.13,14.439.955,14.439,2.13Z" transform="translate(-20.897 -24.814)" fill="#e23817"/><path d="M85.257,357.566a.39.39,0,1,1-.39-.39.391.391,0,0,1,.39.39Z" transform="translate(-29.55 -19.708)" fill="#fa0" fill-rule="evenodd"/><path d="M91.048,357.343a.39.39,0,1,1-.389-.391.39.39,0,0,1,.389.391Z" transform="translate(-32.534 -19.593)" fill="#fa0" fill-rule="evenodd"/><path d="M91.245,362.17a.391.391,0,1,1-.392-.391.391.391,0,0,1,.392.391Z" transform="translate(-32.635 -22.08)" fill="#fa0" fill-rule="evenodd"/><path d="M85.557,362.479a.391.391,0,1,1-.391-.391.391.391,0,0,1,.391.391Z" transform="translate(-29.704 -22.239)" fill="#fa0" fill-rule="evenodd"/><path d="M108.846,357.566a.39.39,0,1,0,.391-.39.391.391,0,0,0-.391.39Z" transform="translate(-42.105 -19.708)" fill="#fa0" fill-rule="evenodd"/><path d="M103.052,357.343a.391.391,0,1,0,.391-.391.391.391,0,0,0-.391.391Z" transform="translate(-39.12 -19.593)" fill="#fa0" fill-rule="evenodd"/><path d="M102.858,362.17a.39.39,0,1,0,.391-.391.39.39,0,0,0-.391.391Z" transform="translate(-39.02 -22.08)" fill="#fa0" fill-rule="evenodd"/><path d="M108.547,362.479a.391.391,0,1,0,.389-.391.389.389,0,0,0-.389.391Z" transform="translate(-41.951 -22.239)" fill="#fa0" fill-rule="evenodd"/><path d="M87.289,360.089l-.4-.5.143-.626.581-.28.579.28.144.626-.4.5Z" transform="translate(-30.792 -20.483)" fill="#fa0"/><path d="M68.518,360.118a.32.32,0,1,1-.382-.324.358.358,0,0,1,.382.324Z" transform="translate(-21.008 -21.055)" fill="#fa0" fill-rule="evenodd"/><path d="M73.021,359.015a.32.32,0,1,1-.38-.323.358.358,0,0,1,.38.323Z" transform="translate(-23.328 -20.487)" fill="#fa0" fill-rule="evenodd"/><path d="M74.1,363.722a.32.32,0,1,1-.381-.325.359.359,0,0,1,.381.325Z" transform="translate(-23.883 -22.911)" fill="#fa0" fill-rule="evenodd"/><path d="M69.692,364.895a.32.32,0,1,1-.382-.324.359.359,0,0,1,.382.324Z" transform="translate(-21.613 -23.516)" fill="#fa0" fill-rule="evenodd"/><path d="M70.7,362.234l-.412-.433-.008-.638.4-.361.51.186.231.593-.218.555-.506.1Z" transform="translate(-22.238 -21.576)" fill="#fa0"/><path d="M125.884,362.579l1,1.235,1.338-.555-1.006-1.233-1.337.553Z" transform="translate(-50.883 -22.207)" fill="#fa0" fill-rule="evenodd"/><path d="M128.256,363.5l-.8.33c-.124-.149-.344-.421-.6-.735.342-.142.635-.262.8-.331l.6.737Z" transform="translate(-51.385 -22.589)" fill="#e23817"/><path d="M125.741,360.118a.32.32,0,1,0,.383-.324.357.357,0,0,0-.383.324Z" transform="translate(-50.805 -21.055)" fill="#fa0" fill-rule="evenodd"/><path d="M121.234,359.015a.321.321,0,1,0,.384-.323.361.361,0,0,0-.384.323Z" transform="translate(-48.483 -20.487)" fill="#fa0" fill-rule="evenodd"/><path d="M120.16,363.722a.32.32,0,1,0,.382-.325.358.358,0,0,0-.382.325Z" transform="translate(-47.929 -22.911)" fill="#fa0" fill-rule="evenodd"/><path d="M124.567,364.895a.32.32,0,1,0,.381-.324.359.359,0,0,0-.381.324Z" transform="translate(-50.2 -23.516)" fill="#fa0" fill-rule="evenodd"/><path d="M123.011,362.234l.413-.433.006-.638-.4-.361-.509.186-.234.593.221.555.506.1Z" transform="translate(-49.029 -21.576)" fill="#fa0"/><path d="M106.107,360.089l.4-.5-.142-.626-.581-.28-.58.28-.143.626.4.5Z" transform="translate(-40.155 -20.483)" fill="#fa0"/><path d="M108.267,369.4c.862.631,2.245,1.263,2.762,1.782a15.072,15.072,0,0,0,1.669,1.668c.286.114.575-1.438.575-1.438-.518-.287-2.129-1.15-2.935-1.667-.636-.41-2.171-1.643-3.042-2.4-.507-.031-1.033-.059-1.568-.081.7.617,1.938,1.694,2.538,2.136Z" transform="translate(-40.5 -24.905)" fill="#aa6b00" fill-rule="evenodd"/><path d="M118.934,375.795c.229-.4,1.206-.345,1.781.459s.977,1.036.863,2.012c-1.035-.229-.689-.4-1.323-.748s-.976-.344-1.149-.689-.4-.633-.172-1.034Z" transform="translate(-47.253 -29.175)" fill="#fff" stroke="#161615" stroke-width="0.1" fill-rule="evenodd"/><path d="M118.934,375.795c.229-.4,1.206-.345,1.781.459s.977,1.036.863,2.012c-1.035-.229-.689-.4-1.323-.748s-.976-.344-1.149-.689-.4-.633-.172-1.034Z" transform="translate(-47.253 -29.175)" fill="#aa6b00" stroke="#161615" stroke-linecap="round" stroke-linejoin="round" stroke-width="0.1"/><path d="M119.785,376.224c-.135.006-.205.049-.221.079h0a.334.334,0,0,0-.054.176.951.951,0,0,0,.152.4l.081.155c.052.1.133.147.424.271a5.788,5.788,0,0,1,.591.279,1.773,1.773,0,0,1,.51.394.7.7,0,0,0,.338.214,1.663,1.663,0,0,0-.478-.961l-.332-.437a1.233,1.233,0,0,0-1.012-.566Z" transform="translate(-47.599 -29.521)" fill="#5e4400" fill-rule="evenodd"/><path d="M76.389,369.734c-.846.517-2.536,1.38-3.081,1.667,0,0,.3,1.552.6,1.438a15.581,15.581,0,0,0,1.752-1.668c.542-.519,1.993-1.151,2.9-1.782.633-.443,1.944-1.53,2.676-2.144-.563.021-1.112.05-1.646.08-.913.755-2.534,2-3.2,2.409Z" transform="translate(-23.796 -24.896)" fill="#aa6b00" fill-rule="evenodd"/><path d="M72.7,375.795c-.241-.4-1.269-.345-1.871.459s-1.027,1.036-.906,2.012c1.086-.229.724-.4,1.389-.748s1.026-.344,1.209-.689.421-.633.18-1.034Z" transform="translate(-22.041 -29.175)" fill="#fff" stroke="#161615" stroke-width="0.1" fill-rule="evenodd"/><path d="M72.7,375.795c-.241-.4-1.269-.345-1.871.459s-1.027,1.036-.906,2.012c1.086-.229.724-.4,1.389-.748s1.026-.344,1.209-.689.421-.633.18-1.034Z" transform="translate(-22.041 -29.175)" fill="#aa6b00" stroke="#161615" stroke-linecap="round" stroke-linejoin="round" stroke-width="0.1"/><path d="M72.546,376.224c.142.006.218.049.235.079h0a.338.338,0,0,1,.056.176.921.921,0,0,1-.161.4l-.085.155c-.055.1-.14.147-.444.271a6.185,6.185,0,0,0-.622.279,1.87,1.87,0,0,0-.535.394.73.73,0,0,1-.356.214,1.651,1.651,0,0,1,.5-.961l.35-.437a1.314,1.314,0,0,1,1.062-.566Z" transform="translate(-22.418 -29.521)" fill="#5e4400" fill-rule="evenodd"/><path d="M102.228,342.378s8.979-10.143,15.638-9.09,6.819,1.561,10.249,3.565c3.385,1.982-1.013-.1-1.013-.1s-5.86-3.148-10.092-2.8-6.287,1.66-8.091,3.316-5.472,5.161-5.472,5.161l-1.218-.046Z" transform="translate(-38.696 -7.362)" fill="#aa6b00" fill-rule="evenodd"/><path d="M104.574,349.252c-.047.031-.063.208-.068.264h0s-.369.927-.475,1.117h0c-.037.068-.054.125,0,.127h0c.05,0,.1-.055.139-.121h0c.138-.256.494-1.31.5-1.32h0c.007-.06-.041-.094-.089-.067Z" transform="translate(-39.607 -15.621)" fill="#5e4400" fill-rule="evenodd"/><path d="M101.2,343.563c.486-.426,2.144-3.339-.294-5.245h0a4.482,4.482,0,0,0-3.438-.372c3.508.288,4.638,2.355,3.732,5.616Z" transform="translate(-36.245 -9.703)" fill="#008e45"/><path d="M97.647,338.164a5.946,5.946,0,0,1,1.96.467h0a3.271,3.271,0,0,1,1.469,1.229h0a3.766,3.766,0,0,1,.512,2.219h0a9.638,9.638,0,0,1-.29,1.672" transform="translate(-36.336 -9.913)" fill="#00682e"/><path d="M120.336,339.1c.021-.057-.128-.082-.174-.094,0,0-.52-.4-.6-.5-.031-.037-.086-.03-.128.014a.118.118,0,0,0-.017.148,5.525,5.525,0,0,0,.775.533.16.16,0,0,0,.145-.1Z" transform="translate(-47.541 -10.073)" fill="#5e4400" fill-rule="evenodd"/><path d="M127.184,343.1a3.068,3.068,0,0,0-1.363-2.329c-2.386-1.361-4.454-1.649-4.9-1.244l6.261,3.573Z" transform="translate(-48.327 -10.529)" fill="#008e45"/><path d="M120.914,339.708c-.125.587,1.175,2.221,3.562,3.583a3.072,3.072,0,0,0,2.7-.01l-6.261-3.573Z" transform="translate(-48.319 -10.709)" fill="#00682e"/><path d="M107.735,324.7a3.266,3.266,0,0,0-1.054,2.318c-.051,2.744.5,4.693.922,4.884l.132-7.2Z" transform="translate(-40.989 -2.977)" fill="#00682e"/><path d="M108.587,331.9c.434-.176,1.051-2.1,1.1-4.848a3.266,3.266,0,0,0-.97-2.354l-.132,7.2Z" transform="translate(-41.972 -2.977)" fill="#008e45"/><path d="M119.665,324.566a3.273,3.273,0,0,0-1.9,1.7c-1.155,2.489-1.445,4.493-1.133,4.841l3.034-6.537Z" transform="translate(-46.056 -2.908)" fill="#00682e"/><path d="M116.755,331.1c.469.013,1.812-1.5,2.967-3.99a3.269,3.269,0,0,0,.068-2.547l-3.034,6.537Z" transform="translate(-46.18 -2.908)" fill="#008e45"/><path d="M111.115,342.693c-.045.013.01.145.027.19h0a1.151,1.151,0,0,1,.017.287h0a.094.094,0,0,0,.072.1h0a.068.068,0,0,0,.094-.053h0a1.278,1.278,0,0,0-.083-.446h0a.143.143,0,0,0-.127-.079Z" transform="translate(-43.265 -12.246)" fill="#5e4400" fill-rule="evenodd"/><path d="M110.268,328.168a3.673,3.673,0,0,0-1.322,2.393h0c-.21,2.836.677,4.615,1.124,4.83h0a23.565,23.565,0,0,1,.2-7.223Z" transform="translate(-42.141 -4.764)" fill="#00682e"/><path d="M111.1,335.391c.4-.2.665-1.958.9-4.792h0a3.5,3.5,0,0,0-.7-2.431,23.565,23.565,0,0,0-.2,7.223Z" transform="translate(-43.166 -4.764)" fill="#008e45"/><path d="M111.284,328.3c-.1.568-.173,1.109-.234,1.664h0c-.073.673-.117,1.312-.132,1.966h0a21.87,21.87,0,0,0,.047,2.219h0c.036.491.1,1.106.129,1.292" transform="translate(-43.168 -4.83)" fill="none"/><path d="M108.966,344.1c.049,0,.038.155.035.207h0s.128.6.181.718h0a.1.1,0,0,1-.042.125h0a.075.075,0,0,1-.115-.024h0a6.33,6.33,0,0,1-.166-.9h0a.16.16,0,0,1,.107-.124Z" transform="translate(-42.112 -12.972)" fill="#5e4400" fill-rule="evenodd"/><path d="M103.792,329.18a3.989,3.989,0,0,1,2.147,2.063h0c1.136,2.882.787,5.016.391,5.385h0a25.562,25.562,0,0,0-2.538-7.448Z" transform="translate(-39.502 -5.285)" fill="#008e45"/><path d="M106.089,336.628c-.48-.077-1.322-1.822-2.485-4.693h0a3.814,3.814,0,0,1-.053-2.754h0a25.605,25.605,0,0,1,2.538,7.448Z" transform="translate(-39.261 -5.285)" fill="#00682e"/><path d="M103.856,329.306c.285.559.54,1.1.782,1.656h0c.294.678.545,1.327.774,2h0c.268.787.485,1.538.669,2.324h0c.12.521.249,1.183.284,1.383" transform="translate(-39.535 -5.35)" fill="none"/><path d="M111.163,350.873a3.671,3.671,0,0,0-2.359-1.381h0c-2.834-.282-4.634.559-4.86,1h0a23.564,23.564,0,0,1,7.219.38Z" transform="translate(-39.58 -15.72)" fill="#008e45"/><path d="M103.944,351.485c.187.4,1.941.712,4.771,1.021h0a3.507,3.507,0,0,0,2.448-.641,23.562,23.562,0,0,0-7.219-.38Z" transform="translate(-39.58 -16.712)" fill="#00682e"/><path d="M111.12,351.853c-.566-.112-1.1-.2-1.658-.275h0c-.674-.091-1.312-.15-1.965-.185h0c-.762-.037-1.479-.042-2.22-.009h0c-.491.025-1.109.078-1.3.1" transform="translate(-39.599 -16.713)" fill="none"/><path d="M136.171,333.2c-.035-.029-.127.087-.156.12,0,0-.562.342-.681.386a.083.083,0,1,0,.059.154,7.874,7.874,0,0,0,.786-.518.118.118,0,0,0-.008-.143Z" transform="translate(-55.725 -7.355)" fill="#5e4400" fill-rule="evenodd"/><path d="M142.629,324.526a3.271,3.271,0,0,0-2.476.6c-2.192,1.655-3.388,3.288-3.276,3.741l5.752-4.345Z" transform="translate(-56.543 -2.865)" fill="#00682e"/><path d="M136.885,328.917c.408.232,2.3-.474,4.5-2.128a3.282,3.282,0,0,0,1.255-2.218l-5.752,4.345Z" transform="translate(-56.551 -2.911)" fill="#008e45"/><path d="M137.788,340.222a3.279,3.279,0,0,0-1.424-2.113c-2.313-1.48-4.261-2.034-4.647-1.772l6.072,3.885Z" transform="translate(-53.888 -8.94)" fill="#008e45"/><path d="M131.712,336.4c-.079.462,1.243,2,3.556,3.477a3.281,3.281,0,0,0,2.516.408l-6.072-3.885Z" transform="translate(-53.884 -9.007)" fill="#00682e"/><path d="M121.793,337.612c.01-.045-.136-.069-.182-.079,0,0-.569-.328-.666-.409a.08.08,0,0,0-.116.012.079.079,0,0,0,.01.116,7.931,7.931,0,0,0,.834.436.119.119,0,0,0,.12-.076Z" transform="translate(-48.269 -9.368)" fill="#5e4400" fill-rule="evenodd"/><path d="M129.027,340.895a3.262,3.262,0,0,0-1.726-1.873c-2.511-1.115-4.519-1.37-4.864-1.053l6.59,2.925Z" transform="translate(-49.107 -9.748)" fill="#008e45"/><path d="M122.437,338.1c0,.468,1.531,1.785,4.041,2.9a3.281,3.281,0,0,0,2.549.026l-6.59-2.925Z" transform="translate(-49.107 -9.882)" fill="#00682e"/><path d="M116.646,340.422c-.009-.044-.152,0-.2.007,0,0-.654-.054-.777-.085a.083.083,0,1,0-.04.16,6.865,6.865,0,0,0,.938.038.114.114,0,0,0,.077-.119Z" transform="translate(-45.568 -11.035)" fill="#5e4400" fill-rule="evenodd"/><path d="M124.619,339.285a3.281,3.281,0,0,0-2.361-.958c-2.745.061-4.669.687-4.846,1.121l7.208-.163Z" transform="translate(-46.518 -9.997)" fill="#008e45"/><path d="M117.411,340.467c.194.424,2.144.964,4.892.9a3.28,3.28,0,0,0,2.316-1.065l-7.208.163Z" transform="translate(-46.518 -11.016)" fill="#00682e"/><path d="M139.6,333.3c-.023-.039-.145.046-.185.068a.968.968,0,0,1-.293.081.083.083,0,0,0,.009.166,1.212,1.212,0,0,0,.435-.176.116.116,0,0,0,.034-.139Z" transform="translate(-57.661 -7.4)" fill="#5e4400" fill-rule="evenodd"/><path d="M146.658,328.182a3.286,3.286,0,0,0-2.545-.167c-2.585.924-4.216,2.122-4.246,2.588l6.791-2.421Z" transform="translate(-58.087 -4.591)" fill="#00682e"/><path d="M139.867,330.975c.317.345,2.341.24,4.928-.683a3.278,3.278,0,0,0,1.863-1.738l-6.791,2.421Z" transform="translate(-58.087 -4.962)" fill="#008e45"/><path d="M136.267,334.679c.016-.044-.124-.075-.17-.087h0a1.075,1.075,0,0,1-.246-.154h0a.1.1,0,0,0-.122,0h0a.068.068,0,0,0-.013.108h0a1.28,1.28,0,0,0,.412.192h0a.143.143,0,0,0,.139-.059Z" transform="translate(-55.938 -7.982)" fill="#5e4400" fill-rule="evenodd"/><path d="M142.245,339.159a3.667,3.667,0,0,0-1.184-2.466h0c-2.188-1.815-4.152-2.127-4.589-1.886h0a23.5,23.5,0,0,1,5.773,4.352Z" transform="translate(-56.338 -8.147)" fill="#008e45"/><path d="M136.469,334.882c-.069.439,1.211,1.675,3.383,3.512h0a3.523,3.523,0,0,0,2.39.84,23.5,23.5,0,0,0-5.773-4.352Z" transform="translate(-56.335 -8.223)" fill="#00682e"/><path d="M142.221,339.192c-.407-.408-.8-.783-1.22-1.155h0c-.509-.451-1-.857-1.525-1.25h0c-.611-.46-1.2-.863-1.836-1.251h0c-.421-.254-.963-.557-1.127-.645" transform="translate(-56.359 -8.228)" fill="#00682e"/><path d="M116.917,342.888a3.672,3.672,0,0,0-2.649-.675h0c-2.8.509-4.3,1.815-4.4,2.3h0a23.617,23.617,0,0,1,7.045-1.626Z" transform="translate(-42.634 -11.979)" fill="#008e45"/><path d="M109.872,345.275c.293.336,2.062.149,4.867-.335h0a3.516,3.516,0,0,0,2.177-1.291,23.587,23.587,0,0,0-7.045,1.626Z" transform="translate(-42.634 -12.739)" fill="#00682e"/><path d="M116.869,343.66c-.576.049-1.118.111-1.67.194h0c-.67.1-1.3.217-1.939.364h0c-.743.173-1.433.369-2.139.605h0c-.464.157-1.045.378-1.217.448" transform="translate(-42.65 -12.745)" fill="none"/><path d="M130.58,332.318c-.05.012-.144.153-.177.2h0a3.282,3.282,0,0,1-.32.311h0c-.061.049-.091.087-.05.106h0a.2.2,0,0,0,.161-.056h0a2.851,2.851,0,0,0,.431-.477h0c.027-.048.007-.091-.045-.086Z" transform="translate(-53.011 -6.901)" fill="#5e4400" fill-rule="evenodd"/><path d="M129.967,326.263c.594-.208,3.33-2.137,1.934-4.577h0a4.228,4.228,0,0,0-2.86-1.5h0c3.046,1.414,3.17,3.59.926,6.073Z" transform="translate(-52.51 -0.653)" fill="#008e45"/><path d="M129.2,320.263a5.352,5.352,0,0,1,1.57,1.056h0a2.645,2.645,0,0,1,.791,1.551h0a3.349,3.349,0,0,1-.507,2.077h0a9.535,9.535,0,0,1-.991,1.334" transform="translate(-52.589 -0.691)" fill="#00682e"/><path d="M98.329,347.954c-.415.449-3.178,2.139-4.813-.037h0a4.081,4.081,0,0,1-.236-3.112h0c.093,3.247,1.979,4.19,5.049,3.149Z" transform="translate(-33.976 -13.335)" fill="#008e45"/><path d="M93.513,344.968a5.154,5.154,0,0,0,.339,1.8h0a2.557,2.557,0,0,0,1.076,1.3h0a3.245,3.245,0,0,0,2.042.346h0a9.323,9.323,0,0,0,1.567-.369" transform="translate(-34.206 -13.419)" fill="#00682e"/><path d="M141.34,334.681c-.062,0-.16-.1-.2-.139h0a2.469,2.469,0,0,0-.337-.2h0c-.038-.018-.094-.056-.056-.088h0c.036-.03.093-.022.156,0h0a2,2,0,0,1,.46.323h0a.057.057,0,0,1-.026.1Z" transform="translate(-58.536 -7.891)" fill="#5e4400" fill-rule="evenodd"/><path d="M142.821,341.009s.2-.892.43-2.105h0a3.56,3.56,0,0,0-.822-2.769h0c-.488-.713-.814-1.141-.736-1.294h0c2.493,1.7,3.362,3.55,1.129,6.168Z" transform="translate(-59.022 -8.201)" fill="#00682e"/><path d="M141.7,334.841a3.913,3.913,0,0,1,1.828.841h0a2.981,2.981,0,0,1,1.324,2.882h0a4.108,4.108,0,0,1-2.024,2.445h0c2.233-2.617,1.365-4.471-1.129-6.168Z" transform="translate(-59.034 -8.201)" fill="#008e45"/><path d="M142.9,340.959a5.585,5.585,0,0,0,1-1.594h0a2.77,2.77,0,0,0,.13-1.726h0a3.9,3.9,0,0,0-1.112-1.805h0a10.028,10.028,0,0,0-1.188-.964" transform="translate(-59.051 -8.216)" fill="none"/><path d="M152.9,339.748c-.061,0-.149-.118-.181-.155h0a2.039,2.039,0,0,0-.318-.227h0c-.039-.021-.089-.065-.049-.093h0a.164.164,0,0,1,.157.017h0a2.09,2.09,0,0,1,.428.364h0a.058.058,0,0,1-.036.094Z" transform="translate(-64.51 -10.478)" fill="#5e4400" fill-rule="evenodd"/><path d="M153.8,346.18s.279-.871.619-2.057h0a3.56,3.56,0,0,0-.568-2.833h0c-.42-.756-.7-1.211-.615-1.356h0c2.329,1.916,3.027,3.842.564,6.246Z" transform="translate(-64.964 -10.825)" fill="#00682e"/><path d="M153.249,339.934a3.914,3.914,0,0,1,1.744,1h0a2.98,2.98,0,0,1,1.057,2.99h0a4.11,4.11,0,0,1-2.238,2.252h0c2.464-2.4,1.766-4.329-.564-6.246Z" transform="translate(-64.982 -10.825)" fill="#008e45"/><path d="M153.89,346.138a5.586,5.586,0,0,0,1.142-1.5h0a2.781,2.781,0,0,0,.289-1.707h0a3.9,3.9,0,0,0-.945-1.9h0a9.918,9.918,0,0,0-1.094-1.067" transform="translate(-64.999 -10.843)" fill="none"/><path d="M119.24,336.526c-.043.008-.01.152,0,.2a1.1,1.1,0,0,1-.03.3.083.083,0,0,0,.16.048,1.308,1.308,0,0,0-.012-.467.113.113,0,0,0-.118-.08Z" transform="translate(-47.443 -9.069)" fill="#5e4400" fill-rule="evenodd"/><path d="M118.539,322.054a3.273,3.273,0,0,0-1.055,2.318c-.052,2.745.5,4.692.923,4.886l.132-7.2Z" transform="translate(-46.554 -1.614)" fill="#00682e"/><path d="M119.391,329.258c.432-.178,1.049-2.105,1.1-4.848a3.275,3.275,0,0,0-.968-2.356l-.132,7.2Z" transform="translate(-47.538 -1.614)" fill="#008e45"/><path d="M107.509,349.417c-.02-.041-.15.03-.191.049a1.2,1.2,0,0,1-.3.046.083.083,0,0,0-.087.079.085.085,0,0,0,.08.087,1.271,1.271,0,0,0,.448-.126.119.119,0,0,0,.05-.135Z" transform="translate(-41.118 -15.704)" fill="#5e4400" fill-rule="evenodd"/><path d="M114.794,345.65a3.274,3.274,0,0,0-2.508-.446c-2.673.632-4.426,1.645-4.507,2.1l7.016-1.659Z" transform="translate(-41.555 -13.497)" fill="#008e45"/><path d="M107.778,347.873c.279.377,2.3.5,4.975-.136a3.282,3.282,0,0,0,2.041-1.524l-7.016,1.659Z" transform="translate(-41.555 -14.061)" fill="#00682e"/><path d="M121.246,335.343c.034.027-.07.128-.1.161h0s-.276.494-.307.605h0a.094.094,0,0,1-.106.063h0a.073.073,0,0,1-.066-.087h0a5.879,5.879,0,0,1,.433-.724h0a.143.143,0,0,1,.15-.019Z" transform="translate(-48.193 -8.453)" fill="#5e4400" fill-rule="evenodd"/><path d="M124.313,321.848a3.661,3.661,0,0,1,.236,2.722h0c-.959,2.678-2.493,3.944-2.991,3.957h0a23.423,23.423,0,0,0,2.755-6.68Z" transform="translate(-48.655 -1.507)" fill="#008e45"/><path d="M121.471,328.528c-.283-.341.19-2.057,1.125-4.743h0a3.512,3.512,0,0,1,1.63-1.936h0a23.423,23.423,0,0,1-2.755,6.68Z" transform="translate(-48.568 -1.507)" fill="#00682e"/><path d="M124.313,321.977c-.141.558-.29,1.083-.463,1.615h0c-.206.646-.426,1.246-.675,1.851h0c-.291.7-.6,1.354-.945,2.009h0c-.233.434-.543.969-.64,1.128" transform="translate(-48.671 -1.574)" fill="none"/><path d="M159.4,341.106a2.942,2.942,0,0,0-1.682-1.557c-2.333-.823-4.153-.907-4.437-.6l6.12,2.154Z" transform="translate(-64.999 -10.234)" fill="#00682e"/><path d="M153.283,339.127c.027.419,1.5,1.494,3.83,2.313a2.947,2.947,0,0,0,2.289-.158l-6.12-2.154Z" transform="translate(-64.999 -10.41)" fill="#008e45"/><path d="M147.361,337.446c.026-.03-.073-.117-.1-.144a1.008,1.008,0,0,1-.139-.237.074.074,0,0,0-.095-.045.077.077,0,0,0-.048.095,1.121,1.121,0,0,0,.258.333.1.1,0,0,0,.128,0Z" transform="translate(-61.748 -9.322)" fill="#5e4400" fill-rule="evenodd"/><path d="M151.2,342.991a2.951,2.951,0,0,0-.461-2.247c-1.417-2.024-2.845-3.153-3.256-3.069l3.717,5.316Z" transform="translate(-62.014 -9.659)" fill="#008e45"/><path d="M147.438,337.68c-.223.359.348,2.088,1.763,4.113a2.945,2.945,0,0,0,1.953,1.2l-3.717-5.316Z" transform="translate(-61.964 -9.664)" fill="#00682e"/><path d="M153.993,339.227c.011-.033-.1-.061-.139-.072h0a.861.861,0,0,1-.2-.123h0a.074.074,0,0,0-.1,0h0a.056.056,0,0,0-.009.086h0a1.031,1.031,0,0,0,.333.155h0a.117.117,0,0,0,.115-.046Z" transform="translate(-65.126 -10.351)" fill="#5e4400" fill-rule="evenodd"/><path d="M158.832,342.861a2.967,2.967,0,0,0-.954-2h0c-1.775-1.473-3.364-1.727-3.716-1.531h0a19.125,19.125,0,0,1,4.67,3.529Z" transform="translate(-65.452 -10.486)" fill="#008e45"/><path d="M154.16,339.393c-.057.355.977,1.357,2.735,2.848h0a2.842,2.842,0,0,0,1.934.681,19.125,19.125,0,0,0-4.67-3.529Z" transform="translate(-65.45 -10.547)" fill="#00682e"/><path d="M158.809,342.89c-.33-.331-.649-.637-.988-.939h0c-.411-.364-.811-.695-1.233-1.012h0a17.943,17.943,0,0,0-1.486-1.014h0c-.34-.208-.78-.453-.912-.524" transform="translate(-65.466 -10.551)" fill="none"/><path d="M137.378,325.551a2.944,2.944,0,0,0-2.265.361c-2.084,1.325-3.276,2.7-3.21,3.12l5.475-3.481Z" transform="translate(-53.983 -3.371)" fill="#00682e"/><path d="M131.906,329.123c.348.236,2.1-.257,4.189-1.584a2.939,2.939,0,0,0,1.286-1.9l-5.475,3.481Z" transform="translate(-53.986 -3.462)" fill="#008e45"/><path d="M157.4,335.459a2.95,2.95,0,0,0-2.166-.756c-2.464.178-4.167.828-4.307,1.225l6.472-.469Z" transform="translate(-63.784 -8.127)" fill="#00682e"/><path d="M150.925,336.739c.2.373,1.975.77,4.44.59a2.94,2.94,0,0,0,2.032-1.058l-6.472.469Z" transform="translate(-63.784 -8.938)" fill="#008e45"/><path d="M104.027,349.067c.043-.015.079.123.093.167h0s.295.476.378.559h0a.093.093,0,0,1,0,.121h0a.07.07,0,0,1-.107.013h0a5.34,5.34,0,0,1-.418-.721h0a.143.143,0,0,1,.052-.138Z" transform="translate(-39.594 -15.53)" fill="#5e4400" fill-rule="evenodd"/><path d="M94.97,337.93a3.628,3.628,0,0,1,2.472,1.1h0c1.857,2.118,2.217,4.051,1.991,4.488h0a23.232,23.232,0,0,0-4.463-5.592Z" transform="translate(-34.957 -9.793)" fill="#008e45"/><path d="M99.431,343.522c-.432.081-1.691-1.153-3.569-3.253h0a3.472,3.472,0,0,1-.894-2.338h0a23.214,23.214,0,0,1,4.463,5.592Z" transform="translate(-34.954 -9.793)" fill="#00682e"/><path d="M95.066,338.014c.415.393.8.774,1.178,1.178h0c.459.49.874.969,1.279,1.476h0a21.75,21.75,0,0,1,1.284,1.783h0c.265.408.579.937.67,1.1" transform="translate(-35.006 -9.836)" fill="none"/><path d="M111.847,345.348c-.04.046-.186.04-.235.04h0a2.677,2.677,0,0,0-.377.1h0c-.039.015-.108.027-.1-.02h0c.006-.048.052-.084.114-.11h0a2.083,2.083,0,0,1,.553-.1h0a.057.057,0,0,1,.048.087Z" transform="translate(-43.283 -13.57)" fill="#5e4400" fill-rule="evenodd"/><path d="M117.367,348.774s-.494-.769-1.19-1.787h0a3.572,3.572,0,0,0-2.545-1.371h0c-.85-.155-1.383-.228-1.438-.389h0c2.962-.569,4.889.119,5.173,3.547Z" transform="translate(-43.83 -13.46)" fill="#00682e"/><path d="M112.194,344.624a3.935,3.935,0,0,1,1.887-.7h0a2.983,2.983,0,0,1,2.978,1.092h0a4.107,4.107,0,0,1,.308,3.158h0c-.284-3.428-2.209-4.116-5.173-3.547Z" transform="translate(-43.83 -12.857)" fill="#008e45"/><path d="M117.385,348.707a5.541,5.541,0,0,0-.428-1.834h0a2.774,2.774,0,0,0-1.131-1.31h0a3.876,3.876,0,0,0-2.063-.483h0a9.609,9.609,0,0,0-1.522.163" transform="translate(-43.854 -13.476)" fill="none"/><path d="M115.815,336.98a1.093,1.093,0,1,1-2.113-.468c.181-.82.8-1.38,1.387-1.25s.909.9.727,1.718Z" transform="translate(-44.583 -8.409)" fill="#006925"/><path d="M150.269,337.253a.875.875,0,1,1,.886-1.489c.578.345.846.957.6,1.366a1.089,1.089,0,0,1-1.489.123Z" transform="translate(-63.165 -8.582)" fill="#006925"/><path d="M112.392,341.582c.044.015-.016.145-.033.19h0s-.072.561-.06.679h0a.092.092,0,0,1-.074.093h0a.068.068,0,0,1-.094-.054h0a6.078,6.078,0,0,1,.13-.833h0a.148.148,0,0,1,.13-.074Z" transform="translate(-43.797 -11.674)" fill="#5e4400" fill-rule="evenodd"/><path d="M112.557,327.049a3.667,3.667,0,0,1,1.235,2.44h0c.107,2.841-.845,4.586-1.3,4.783h0a23.505,23.505,0,0,0,.067-7.223Z" transform="translate(-43.983 -4.187)" fill="#008e45"/><path d="M111.718,334.272c-.391-.212-.592-1.979-.725-4.822h0a3.5,3.5,0,0,1,.792-2.4h0a23.506,23.506,0,0,1-.067,7.223Z" transform="translate(-43.211 -4.187)" fill="#00682e"/><path d="M112.574,327.178c.075.573.132,1.115.172,1.672h0c.047.677.068,1.315.061,1.971h0a21.6,21.6,0,0,1-.129,2.215h0c-.052.489-.144,1.1-.175,1.286" transform="translate(-43.989 -4.253)" fill="none"/><path d="M108.987,347.747a1.09,1.09,0,0,1-1.413-.858c-.1-.59.225-1.134,1.053-1.274s1.583.226,1.681.814-.493,1.179-1.321,1.318Z" transform="translate(-41.441 -13.737)" fill="#006925"/><path d="M107.227,348.48c0,.044-.062.1-.142.111,0,0-.48.294-.57.38a.084.084,0,0,1-.113-.125,6.985,6.985,0,0,1,.715-.45.084.084,0,0,1,.111.084Z" transform="translate(-40.832 -15.183)" fill="#5e4400" fill-rule="evenodd"/><path d="M115.073,340.032c.025.039,0,.124-.065.167a6.845,6.845,0,0,0-.308.615.085.085,0,0,1-.1.055.084.084,0,0,1-.055-.105,6.97,6.97,0,0,1,.395-.748.086.086,0,0,1,.138.016Z" transform="translate(-45.037 -10.853)" fill="#5e4400" fill-rule="evenodd"/><path d="M125.443,333.763c-.04-.022-.11.109-.135.148,0,0-.494.431-.6.5a.087.087,0,0,0-.03.116.084.084,0,0,0,.114.028,7.74,7.74,0,0,0,.683-.647.12.12,0,0,0-.032-.141Z" transform="translate(-50.256 -7.645)" fill="#5e4400" fill-rule="evenodd"/><path d="M130.971,323.237a3.272,3.272,0,0,0-2.333,1.025c-1.869,2.012-2.759,3.83-2.571,4.257l4.9-5.282Z" transform="translate(-50.965 -2.223)" fill="#00682e"/><path d="M126.093,328.519c.44.156,2.186-.87,4.054-2.882a3.271,3.271,0,0,0,.85-2.4l-4.9,5.282Z" transform="translate(-50.991 -2.223)" fill="#008e45"/><path d="M147.026,335.4c-.02-.035-.133.034-.169.053a1.018,1.018,0,0,1-.267.059.074.074,0,1,0,0,.149,1.09,1.09,0,0,0,.4-.139.107.107,0,0,0,.037-.123Z" transform="translate(-61.512 -8.482)" fill="#5e4400" fill-rule="evenodd"/><path d="M153.48,331.328a2.948,2.948,0,0,0-2.279-.262c-2.367.715-3.886,1.722-3.933,2.141l6.212-1.88Z" transform="translate(-61.9 -6.194)" fill="#00682e"/><path d="M147.268,333.615c.27.321,2.095.317,4.46-.4a2.949,2.949,0,0,0,1.752-1.481l-6.212,1.88Z" transform="translate(-61.9 -6.601)" fill="#008e45"/><path d="M103.352,350.276c.057.013-.02.145-.045.187h0a5.272,5.272,0,0,0-.075.677h0c.005.043-.037.088-.1.1h0c-.063.009-.116-.011-.125-.057h0a4.356,4.356,0,0,1,.169-.833h0a.212.212,0,0,1,.174-.072Z" transform="translate(-39.098 -16.153)" fill="#5e4400" fill-rule="evenodd"/><path d="M103.525,335.737a3.639,3.639,0,0,1,1.657,2.447h0c.158,2.844-1.1,4.583-1.7,4.778h0a17.717,17.717,0,0,0,.047-7.225Z" transform="translate(-39.34 -8.663)" fill="#008e45"/><path d="M102.422,342.962c-.522-.215-.8-1.984-.99-4.826h0a3.037,3.037,0,0,1,1.037-2.4h0a17.717,17.717,0,0,1-.047,7.225Z" transform="translate(-38.284 -8.663)" fill="#00682e"/><path d="M103.548,335.871c.1.57.182,1.114.239,1.671h0a18.285,18.285,0,0,1,.094,1.972h0a16.826,16.826,0,0,1-.159,2.217h0c-.067.486-.185,1.1-.224,1.284" transform="translate(-39.35 -8.732)" fill="none"/><path d="M146.818,334.857c.02.044-.1.057-.142.063h0a4.034,4.034,0,0,0-.469.277h0a.082.082,0,0,1-.109-.017h0c-.036-.034-.05-.08-.026-.106h0a3.565,3.565,0,0,1,.615-.293h0a.164.164,0,0,1,.131.075Z" transform="translate(-61.278 -8.17)" fill="#5e4400" fill-rule="evenodd"/><path d="M151.916,327.848a2.9,2.9,0,0,1-.769,2.234h0c-1.741,1.471-3.458,1.5-3.875,1.212h0a14.16,14.16,0,0,0,4.643-3.446Z" transform="translate(-61.903 -4.599)" fill="#008e45"/><path d="M147.264,331.24c-.112-.435.886-1.463,2.61-2.954h0a2.44,2.44,0,0,1,2.034-.492h0a14.16,14.16,0,0,1-4.643,3.446Z" transform="translate(-61.894 -4.544)" fill="#00682e"/><path d="M151.9,327.929c-.316.342-.626.653-.955.957h0a14.888,14.888,0,0,1-1.216,1.009h0a13.306,13.306,0,0,1-1.494.964h0c-.343.191-.793.412-.929.475" transform="translate(-61.92 -4.64)" fill="none"/><path d="M137.185,320.2a3.072,3.072,0,0,0-2.456,1.121c-1.595,2.234-2.089,4.262-1.733,4.745l4.189-5.866Z" transform="translate(-54.491 -0.658)" fill="#00682e"/><path d="M133.113,326.068c.574.181,2.331-.947,3.927-3.181a3.071,3.071,0,0,0,.261-2.685l-4.189,5.866Z" transform="translate(-54.608 -0.659)" fill="#008e45"/><path d="M121.691,334.525c.056.015-.02.146-.044.189h0a4.915,4.915,0,0,0-.073.677h0c0,.041-.039.086-.1.1h0c-.06.007-.114-.013-.125-.057h0a4.58,4.58,0,0,1,.171-.834h0a.215.215,0,0,1,.173-.073Z" transform="translate(-48.546 -8.038)" fill="#5e4400" fill-rule="evenodd"/><path d="M121.866,319.99a3.629,3.629,0,0,1,1.656,2.448h0c.159,2.842-1.1,4.58-1.7,4.776h0a17.755,17.755,0,0,0,.046-7.224Z" transform="translate(-48.79 -0.55)" fill="#008e45"/><path d="M120.764,327.214c-.522-.214-.8-1.983-.99-4.826h0a3.042,3.042,0,0,1,1.037-2.4h0a17.755,17.755,0,0,1-.046,7.224Z" transform="translate(-47.733 -0.55)" fill="#00682e"/><path d="M121.886,320.117c.1.573.182,1.115.239,1.674h0a18.4,18.4,0,0,1,.094,1.971h0a16.826,16.826,0,0,1-.158,2.217h0c-.067.488-.185,1.1-.228,1.284" transform="translate(-48.796 -0.616)" fill="none"/><path d="M131.228,333.463a.874.874,0,1,1,.66-1.6c.622.256.978.82.8,1.264a1.089,1.089,0,0,1-1.455.334Z" transform="translate(-53.293 -6.613)" fill="#006925"/><path d="M124.816,336.324c-.009-.045-.145,0-.192.012h0a1.059,1.059,0,0,1-.288-.007h0a.1.1,0,0,0-.107.063h0c-.014.046,0,.088.045.1h0a1.318,1.318,0,0,0,.454-.047h0a.144.144,0,0,0,.089-.121Z" transform="translate(-50.028 -8.955)" fill="#5e4400" fill-rule="evenodd"/><path d="M132.248,336.349a3.674,3.674,0,0,0-2.281-1.511h0c-2.81-.441-4.656.3-4.907.728h0a23.562,23.562,0,0,1,7.188.783Z" transform="translate(-50.459 -8.13)" fill="#008e45"/><path d="M125.06,336.454c.165.412,1.9.82,4.707,1.286h0a3.5,3.5,0,0,0,2.48-.5,23.487,23.487,0,0,0-7.188-.783Z" transform="translate(-50.459 -9.018)" fill="#00682e"/><path d="M132.206,337.221c-.557-.143-1.09-.263-1.642-.368h0c-.664-.127-1.3-.222-1.949-.293h0c-.758-.082-1.475-.126-2.217-.133h0c-.491,0-1.112.013-1.3.023" transform="translate(-50.48 -9.018)" fill="none"/><path d="M52.414,331.512a.642.642,0,0,0,.331.444h0c.224.143.677.213.448.53h0c-.122.156-.352.04-.178.4h0a.538.538,0,0,0,.54.3h0c.163-.01.494-.17.607.056h0c.114.256-.236.372-.271.584h0a.377.377,0,0,0,.486.4h0c.259-.054.4-.32.632-.45h0c.209-.114.54-.15.57.118h0c.013.256-.342.4-.038.608h0c.587.362.909-.635,1.455-.612h0c.427.041.011.32.236.517h0c.255.2.572-.056.748-.227h0c.092-.089.131-.193.255-.261h0c.107-.056.288-.021.256.124h0c-.057.239.43.221.612-.111h0c.193-.367.161.055.629.007h0c.242-.032.244-.275.4-.378h0c.182-.108.168-.139.372-.176h0c-3.013-.877-5.327-1.092-8.091-1.885Z" transform="translate(-13.032 -6.486)" fill="#00682e"/><path d="M52.414,329.89c.074-.226.3-.222.433-.228h0c.272-.007.95.1.67-.238h0c-.109-.12-.3-.248-.011-.45h0a.755.755,0,0,1,.75.014h0c.167.089.4.377.65.23h0c.268-.173-.011-.425.084-.625h0a.543.543,0,0,1,.764-.136h0c.228.158.187.446.317.647h0a.392.392,0,0,0,.61.122h0c.19-.216-.04-.474.386-.537h0c.8-.083.376.891.857,1.084h0c.386.131.232-.271.546-.349h0c.347-.074.424.278.456.5h0c.017.112-.018.216.038.328h0a.159.159,0,0,0,.282,0h0c.1-.226.469,0,.417.366h0c-.064.4.16.023.506.294h0c.174.147.043.356.119.523h0c.093.185.065.2.218.344h0c-3.013-.878-5.328-1.09-8.09-1.887Z" transform="translate(-13.032 -4.862)" fill="#008e45"/><path d="M52.414,331.517c.148.057,1.327.379,1.527.427h0c.193.046.7.16.871.181h0c.174.025.664.126.816.156h0a5.681,5.681,0,0,0,1.284.306h0a9.982,9.982,0,0,1,1.186.207h0c.316.03,2.314.625,2.446.655h0c.149.028.115.066.181.087h0a.221.221,0,0,1,.139.127h0a.3.3,0,0,0,.152.153h0c.062.016.1-.067.155-.259h0a.072.072,0,0,0-.081-.093h0c-.107,0-.107-.047-.277-.064h0c-.165-.024-2.391-.636-2.886-.733h0c-.494-.092-1.252-.187-1.407-.2h0c-.158-.023-1.555-.42-1.873-.463h0c-.32-.04-2.233-.481-2.233-.481Z" transform="translate(-13.032 -6.489)" fill="#5e4400" fill-rule="evenodd"/><path d="M68.022,343.441s-7.579-8.885-13.336-8.083-5.9,1.238-8.889,2.913a3.237,3.237,0,0,1-.32.176c-.675.27-.707.561.072.237.538-.223,1.124-.488,1.124-.488s5.1-2.621,8.744-2.257a10.421,10.421,0,0,1,6.922,2.985c1.531,1.456,4.633,4.535,4.633,4.535l1.051-.019Z" transform="translate(-9.196 -8.441)" fill="#aa6b00" fill-rule="evenodd"/><path d="M44.569,344.247a.451.451,0,0,0,.588.045c.219-.127.463-.553.659-.132.1.214-.061.447.311.429.262-.012.389-.26.455-.463.059-.177.074-.566.326-.577.272-.01.2.383.369.494.252.166.51-.088.592-.316.092-.255-.061-.484-.046-.724.016-.216.177-.508.429-.424s.166.425.527.262c.677-.3-.063-.978.265-1.37.254-.307.312.132.6.045.321-.1.232-.461.16-.668-.037-.108-.119-.187-.121-.314,0-.108.114-.238.225-.139.181.156.375-.247.156-.534-.245-.317.122-.1.246-.494.063-.2-.146-.32-.163-.49-.02-.189-.049-.2,0-.37l-5.584,5.742Z" transform="translate(-8.99 -10.089)" fill="#00682e"/><path d="M44.165,344.09a.453.453,0,0,1-.064-.586c.12-.221.58-.658.116-.664-.173,0-.42.013-.439-.3-.016-.262.249-.4.449-.469.175-.064.566-.091.567-.342,0-.272-.388-.192-.5-.355-.174-.245.074-.511.3-.6.252-.1.485.048.722.025.216-.022.5-.191.414-.44s-.432-.154-.28-.519c.286-.686.981.033,1.364-.3.3-.264-.141-.308-.061-.6.086-.323.452-.244.663-.177.108.032.191.112.318.111.109,0,.234-.123.135-.233-.163-.175.233-.38.527-.169.325.237.1-.124.488-.261.2-.068.324.139.5.15.189.013.2.044.371-.012l-5.584,5.742Z" transform="translate(-8.582 -9.93)" fill="#008e45"/><path d="M44.576,343.758c.12-.084.951-.938,1.087-1.08s.5-.515.608-.645.461-.495.571-.607a6.3,6.3,0,0,0,.951-.919c.206-.331.619-.635.785-.867s1.559-1.546,1.629-1.635.1-.062.139-.1a.174.174,0,0,1,.148-.053.213.213,0,0,0,.169-.051c.039-.04-.012-.11-.132-.227a.059.059,0,0,0-.1.021c-.039.08-.078.06-.157.18s-1.571,1.6-1.9,1.95-.807.933-.9,1.051-1.207,1.1-1.4,1.34-1.5,1.643-1.5,1.643Z" transform="translate(-8.994 -9.598)" fill="#5e4400" fill-rule="evenodd"/><path d="M73.208,318.922c-.417.056-.466.285-.5.416-.074.268.06.8-.42.614-.245-.092-.3-.4-.578-.1a.625.625,0,0,0,0,.719c.09.187.379.509.186.709-.208.219-.457-.147-.674-.105-.328.062-.337.461-.225.709.124.271.423.333.593.537.156.185.254.54-.011.669-.249.121-.461-.211-.622.2-.3.765.806.729.849,1.292.036.442-.35.138-.514.432-.181.324.171.545.389.654.112.056.24.056.339.157.084.082.092.276-.072.286-.266.016-.11.483.288.542.44.064-.019.175.187.583.105.209.363.143.51.265s.189.117.283.295v-8.869Z" transform="translate(-22.554)" fill="#00682e"/><path d="M75.657,318.922c.417.056.466.285.5.416.075.268.048.968.421.614.138-.131.325-.333.579-.1.215.194.108.505,0,.719-.09.187-.38.509-.188.709.209.219.458-.147.675-.105.328.062.337.461.225.709-.123.271-.423.333-.593.537-.155.185-.254.54.01.669s.463-.211.623.2c.3.765-.8.729-.848,1.292-.036.442.35.138.514.432.179.324-.172.545-.389.654-.113.056-.239.056-.339.157-.086.082-.092.276.071.286.266.016.11.483-.287.542-.442.064.017.175-.188.583-.1.209-.364.143-.508.265-.161.134-.191.117-.286.295v-8.869Z" transform="translate(-25.007)" fill="#008e45"/><path d="M75.409,318.922c-.031.158-.031,1.477-.031,1.7s0,.8.014.983.016.749.016.919a6.986,6.986,0,0,0-.047,1.467,12.8,12.8,0,0,1,.047,1.293c.049.327-.046,2.431-.031,2.558s-.032.125-.032.188a.193.193,0,0,1-.078.157.238.238,0,0,0-.093.172c0,.062.093.077.281.077a.064.064,0,0,0,.062-.094c-.032-.092.016-.11-.016-.265s.016-2.481,0-3.01-.079-1.364-.094-1.531.11-1.8.078-2.148-.078-2.46-.078-2.46Z" transform="translate(-24.759)" fill="#5e4400" fill-rule="evenodd"/><path d="M87.506,324.634a.528.528,0,0,0-.661.187c-.186.226-.284.793-.668.412-.2-.193-.112-.515-.513-.346a.663.663,0,0,0-.312.691c.008.217.147.651-.123.761-.3.12-.378-.335-.6-.389-.342-.081-.524.3-.522.585,0,.316.264.5.342.77.07.243.013.629-.3.638-.292.012-.353-.4-.684-.078-.618.608.463,1.048.264,1.607-.157.441-.4-.016-.679.2-.312.235-.068.6.094.8.085.1.207.157.259.293.046.118-.03.307-.192.247-.26-.1-.311.416.046.643.4.249-.092.161-.069.641.011.243.288.291.376.47.1.2.133.194.146.406l3.8-8.532Z" transform="translate(-28.737 -2.923)" fill="#00682e"/><path d="M88.36,324.671a.527.527,0,0,1,.3.616c-.042.291-.369.952.141.772.19-.066.457-.18.6.15.123.279-.114.533-.3.693-.166.141-.582.327-.482.6.107.3.5.055.693.187.289.2.127.59-.086.78-.234.21-.55.142-.8.264-.228.11-.475.409-.276.647s.534,0,.516.456c-.036.865-1.087.357-1.37.88-.223.411.277.283.308.634.034.391-.4.452-.654.464-.133.006-.255-.048-.393.006-.118.044-.207.225-.055.306.249.128-.1.512-.508.4-.451-.127-.058.176-.431.482-.189.155-.411-.018-.6.035-.212.061-.234.031-.4.163l3.8-8.532Z" transform="translate(-29.594 -2.962)" fill="#008e45"/><path d="M87.862,324.671c-.1.14-.664,1.408-.757,1.619s-.34.766-.4.952-.306.727-.38.891a7.289,7.289,0,0,0-.673,1.391,13.591,13.591,0,0,1-.51,1.265c-.092.334-1.084,2.319-1.125,2.445-.044.143-.083.106-.109.166a.205.205,0,0,1-.143.118.25.25,0,0,0-.162.124c-.028.06.056.115.237.195a.066.066,0,0,0,.1-.063c.012-.1.063-.1.1-.262s1.079-2.379,1.291-2.895.507-1.344.565-1.512.879-1.69,1-2.033.979-2.4.979-2.4Z" transform="translate(-29.096 -2.962)" fill="#5e4400" fill-rule="evenodd"/><path d="M61.85,346.664a.742.742,0,0,0,.708.371h0c.335-.009.816-.328.845.2h0c.006.266-.292.415.146.583h0a.648.648,0,0,0,.715-.281h0c.14-.166.321-.583.584-.509h0c.286.1.059.5.184.685h0c.2.278.549.084.72-.157h0c.188-.271.12-.575.223-.858h0c.1-.253.347-.546.569-.378h0c.2.172,0,.55.418.463h0c.77-.2.289-1.164.745-1.551h0c.374-.285.253.235.586.231h0c.36-.018.411-.447.418-.712h0a1.315,1.315,0,0,1,0-.4h0c.041-.122.211-.22.3-.074h0c.136.237.5-.109.391-.515h0c-.126-.442.167-.067.505-.406h0c.17-.179-.008-.387.048-.567h0c.073-.2.036-.219.188-.36h0c-3.238.9-4.754,3.558-8.288,4.227Z" transform="translate(-17.893 -12.115)" fill="#00682e"/><path d="M61.819,345.893a.411.411,0,0,1,.255-.579h0c.277-.143,1.033-.36.494-.593h0c-.2-.084-.5-.185-.363-.51h0c.123-.271.486-.291.754-.284h0c.227.013.652.13.766-.149h0c.112-.313-.318-.354-.379-.583h0c-.072-.345.293-.542.563-.572h0c.3-.022.468.215.716.264h0a.449.449,0,0,0,.563-.39h0c-.008-.306-.364-.3-.088-.7h0c.533-.724.912.3,1.414.041h0c.386-.231-.026-.4.149-.721h0c.205-.346.53-.137.721.009h0c.1.076.151.189.281.235h0c.107.032.282-.046.224-.209h0c-.09-.261.389-.325.625.016h0c.258.386.147-.1.653-.062h0c.263.026.308.283.5.383h0a1.084,1.084,0,0,0,.442.173h0c-3.237.9-4.754,3.558-8.287,4.226Z" transform="translate(-17.86 -11.34)" fill="#008e45"/><path d="M61.855,346.4a5.6,5.6,0,0,0,.943-.2h0a7.729,7.729,0,0,0,.893-.333h0c.213-.1.75-.378.914-.486h0c.168-.114.652-.42.8-.517h0a6.945,6.945,0,0,0,1.247-.814h0a9.993,9.993,0,0,1,1.078-.778h0a7.074,7.074,0,0,1,1.232-.667h0a11.768,11.768,0,0,1,1.244-.412h0c.149-.056.148-.006.221-.022h0a.3.3,0,0,1,.212.035h0a.415.415,0,0,0,.239.051h0c.066-.018.048-.1-.038-.283h0a.1.1,0,0,0-.138-.039h0c-.1.047-.132.008-.293.077h0a11.579,11.579,0,0,0-1.413.477h0a10.385,10.385,0,0,0-1.5.813h0c-.451.315-1.113.857-1.246.973h0c-.144.109-1.574.93-1.886,1.129h0a7.6,7.6,0,0,1-1.3.648h0a8.474,8.474,0,0,1-1.21.352Z" transform="translate(-17.896 -11.846)" fill="#5e4400" fill-rule="evenodd"/><path d="M54.136,319.055a.742.742,0,0,0-.346.719h0c.023.335.361.8-.167.851h0c-.267.016-.427-.274-.578.166h0a.651.651,0,0,0,.308.705h0c.171.133.594.3.531.563h0c-.085.289-.5.079-.679.208h0c-.271.209-.063.553.183.717h0c.278.176.58.095.865.187h0c.259.087.558.327.4.557h0c-.164.205-.549.02-.447.433h0c.223.761,1.175.244,1.579.685h0c.3.362-.226.262-.21.592h0c.032.361.462.4.729.393h0a1.338,1.338,0,0,1,.392-.017h0c.125.037.227.2.087.294h0c-.235.146.126.5.528.373h0c.437-.145.075.162.426.486h0c.185.163.385-.021.568.027h0c.2.066.223.031.367.175h0c-1.02-3.2-3.736-4.613-4.536-8.115Z" transform="translate(-13.344 -0.069)" fill="#00682e"/><path d="M55.313,319.014a.41.41,0,0,1,.588.234h0c.153.27.4,1.016.613.469h0c.077-.2.166-.508.5-.382h0c.275.114.308.474.309.743h0c0,.228-.1.657.18.761h0c.316.1.34-.334.568-.4h0c.341-.083.553.273.592.542h0c.033.3-.2.474-.238.724h0a.449.449,0,0,0,.414.547h0c.3-.018.287-.374.691-.113h0c.743.505-.27.923.013,1.416h0c.244.375.394-.043.725.119h0c.353.193.159.526.017.722h0c-.071.1-.183.159-.223.288h0c-.029.111.054.282.217.219h0c.257-.1.34.375.008.624h0c-.378.272.1.142.086.65h0c-.016.263-.271.318-.364.508h0a1.088,1.088,0,0,0-.157.449h0c-1.02-3.2-3.735-4.614-4.537-8.117Z" transform="translate(-14.525 -0.026)" fill="#008e45"/><path d="M55.313,319.058a5.68,5.68,0,0,0,.238.934h0a8.752,8.752,0,0,0,.368.879h0a10.143,10.143,0,0,0,.522.895h0c.119.164.443.636.547.779h0a6.708,6.708,0,0,0,.859,1.215h0a9.835,9.835,0,0,1,.82,1.049h0a7.048,7.048,0,0,1,.712,1.206h0a11.538,11.538,0,0,1,.459,1.225h0c.063.147.012.147.031.221h0a.294.294,0,0,1-.027.21h0a.436.436,0,0,0-.043.242h0c.02.064.1.046.281-.048h0a.1.1,0,0,0,.034-.139h0c-.05-.095-.01-.131-.087-.291h0a11.523,11.523,0,0,0-.53-1.395h0a10.355,10.355,0,0,0-.87-1.459h0c-.332-.441-.9-1.081-1.02-1.211h0c-.113-.139-.988-1.536-1.2-1.84h0a7.592,7.592,0,0,1-.7-1.277h0a8.623,8.623,0,0,1-.4-1.195Z" transform="translate(-14.525 -0.07)" fill="#5e4400" fill-rule="evenodd"/><path d="M27.133,345.15a.7.7,0,0,0,.608.452h0c.317.04.815-.187.763.313h0c-.034.251-.336.347.052.569h0a.617.617,0,0,0,.713-.158h0c.155-.136.385-.5.622-.392h0c.255.132-.017.474.07.67h0c.146.291.5.159.7-.041h0c.215-.225.195-.522.334-.771h0c.127-.224.407-.462.59-.271h0c.163.189-.08.515.324.5h0c.75-.071.443-1.051.928-1.346h0c.391-.211.2.256.515.3h0c.341.035.452-.36.5-.607h0a1.225,1.225,0,0,1,.057-.369h0c.056-.109.231-.176.289-.028h0c.095.245.488-.026.444-.425h0c-.055-.432.166-.04.532-.3h0c.187-.143.052-.364.128-.525h0c.1-.175.069-.2.231-.31h0c-3.172.367-4.988,2.639-8.4,2.745Z" transform="translate(-0.007 -12.098)" fill="#00682e"/><path d="M27.127,343.929c-.054-.406.187-.46.325-.505h0c.281-.094,1.021-.185.55-.485h0c-.176-.109-.444-.247-.265-.531h0c.156-.239.5-.2.75-.153h0c.212.044.594.216.743-.031h0c.149-.276-.249-.379-.271-.6h0c-.017-.332.356-.464.613-.453h0c.286.023.407.271.632.353h0a.425.425,0,0,0,.587-.283h0c.038-.288-.3-.335.021-.665h0c.606-.6.811.42,1.32.246h0c.4-.159.034-.375.246-.655h0c.244-.292.518-.052.676.116h0c.082.085.114.2.227.261h0c.1.047.273,0,.244-.163h0c-.048-.258.412-.246.583.107h0c.184.4.151-.067.621.038h0c.242.062.247.311.409.431h0a1.024,1.024,0,0,0,.39.228h0c-3.172.367-4.987,2.64-8.4,2.745Z" transform="translate(0 -10.874)" fill="#008e45"/><path d="M27.135,344.944a5.481,5.481,0,0,0,.915-.052h0a7.79,7.79,0,0,0,.887-.182h0c.214-.058.759-.243.93-.321h0c.174-.083.673-.3.826-.369h0a6.351,6.351,0,0,0,1.293-.577h0a9.44,9.44,0,0,1,1.126-.574h0a6.86,6.86,0,0,1,1.255-.443h0a8.128,8.128,0,0,1,1.18-.175h.063a.759.759,0,0,1,.158.018l.058.006c.071,0,.443-.024.4-.163h0a.262.262,0,0,0-.079-.1L36.088,342c-.1.029-.114.045-.277.088h0a10.657,10.657,0,0,0-1.4.238h0a9.527,9.527,0,0,0-1.521.545h0c-.472.228-1.173.638-1.316.727h0c-.149.081-1.614.64-1.936.782h0a7.393,7.393,0,0,1-1.32.414h0a8.268,8.268,0,0,1-1.187.152Z" transform="translate(-0.008 -11.888)" fill="#5e4400" fill-rule="evenodd"/><path d="M70.292,350.231a.741.741,0,0,0,.441.667h0c.3.153.873.1.643.582h0c-.122.236-.455.223-.155.581h0a.654.654,0,0,0,.765.1h0c.2-.078.561-.356.756-.165h0c.2.222-.187.463-.171.69h0c.042.338.441.336.708.21h0c.294-.147.382-.447.608-.644h0c.206-.176.567-.311.682-.059h0c.094.248-.265.483.142.608h0c.768.2.815-.88,1.4-1h0c.465-.069.109.326.4.485h0c.325.158.576-.193.711-.422h0c.069-.118.08-.241.191-.346h0c.092-.087.289-.089.294.077h0c.006.276.493.148.592-.261h0c.1-.447.18.019.638-.113h0c.235-.075.18-.341.313-.474h0c.162-.136.14-.174.341-.223h0c-3.271-.773-5.882.826-9.3-.292Z" transform="translate(-22.243 -16.13)" fill="#00682e"/><path d="M70.292,348.03c.094-.421.351-.39.5-.384h0c.311.007,1.079.183.718-.283h0c-.136-.17-.35-.4-.07-.621h0c.239-.179.564-.021.8.115h0c.194.119.51.429.745.238h0c.249-.22-.108-.464-.051-.693h0c.1-.336.519-.333.768-.23h0c.276.126.306.414.5.578h0a.45.45,0,0,0,.682-.073h0c.14-.271-.174-.437.259-.65h0c.816-.377.652.7,1.22.716h0c.448-.016.168-.359.477-.557h0c.346-.205.531.132.628.354h0c.051.114.04.238.132.341h0a.172.172,0,0,0,.3-.076h0c.046-.272.5-.1.539.317h0c.039.461.174-.015.6.259h0c.219.147.135.4.25.572h0c.141.2.116.218.305.367h0c-3.272-.771-5.883.826-9.3-.29Z" transform="translate(-22.243 -13.924)" fill="#008e45"/><path d="M70.292,350.214a5.913,5.913,0,0,0,.924.276h0a7.9,7.9,0,0,0,.943.136h0c.232.02.838.031,1.036.016h0c.2-.02.772-.053.951-.069h0a6.688,6.688,0,0,0,1.484-.11h0a10.074,10.074,0,0,1,1.321-.164h0a7.106,7.106,0,0,1,1.4.011h0a11.958,11.958,0,0,1,1.289.24h0c.159.022.132.066.2.086h0a.307.307,0,0,1,.167.132h0a.428.428,0,0,0,.185.161h0c.068.016.093-.065.1-.264h0a.1.1,0,0,0-.1-.1h0c-.108-.006-.118-.06-.294-.075h0a11.384,11.384,0,0,0-1.468-.264h0a10.223,10.223,0,0,0-1.7,0h0c-.55.056-1.389.212-1.564.248h0c-.175.027-1.826.057-2.2.08h0a7.611,7.611,0,0,1-1.455-.06h0a9.037,9.037,0,0,1-1.23-.274Z" transform="translate(-22.243 -16.108)" fill="#5e4400" fill-rule="evenodd"/><path d="M60.952,341.926a.641.641,0,0,0,.509.218h0c.265.011.693-.153.653.235h0c-.027.2-.286.209.048.439h0a.541.541,0,0,0,.621-.006h0c.135-.09.341-.4.554-.256h0c.226.166-.018.441.056.64h0a.379.379,0,0,0,.624.108h0c.2-.175.189-.478.322-.7h0c.124-.2.392-.4.552-.182h0c.14.215-.1.513.271.545h0c.689.02.47-1.005.954-1.254h0c.391-.18.169.269.464.327h0c.322.049.467-.332.534-.57h0a1.148,1.148,0,0,1,.09-.353h0c.064-.1.239-.162.282-.02h0c.071.235.483-.024.475-.4h0c-.017-.415.168-.031.549-.308h0c.194-.148.073-.36.157-.527h0c.1-.183.078-.2.237-.336h0c-3.05.745-5.161,1.715-7.952,2.409Z" transform="translate(-17.431 -10.61)" fill="#00682e"/><path d="M60.945,340.744c-.048-.233.148-.343.261-.414h0c.233-.144.871-.393.46-.539h0c-.153-.051-.381-.068-.232-.387h0a.754.754,0,0,1,.655-.364h0c.189-.006.535.127.678-.124h0c.145-.283-.223-.363-.24-.582h0a.544.544,0,0,1,.594-.5h0c.275.021.383.289.6.4h0a.391.391,0,0,0,.59-.2h0c.055-.282-.272-.389.067-.658h0c.646-.467.77.585,1.282.512h0c.4-.08.067-.351.3-.575h0c.263-.238.506.027.642.2h0c.072.086.092.2.2.264h0a.159.159,0,0,0,.247-.138h0c-.026-.247.406-.232.544.109h0c.146.38.148-.059.583,0h0c.223.04.216.288.365.395h0c.173.114.158.141.362.188h0c-3.049.744-5.161,1.717-7.952,2.408Z" transform="translate(-17.423 -9.427)" fill="#008e45"/><path d="M60.953,341.658c.157-.025,1.34-.335,1.536-.395h0c.19-.056.687-.21.846-.276h0c.163-.066.636-.224.784-.273h0a5.88,5.88,0,0,0,1.265-.377h0a9.863,9.863,0,0,1,1.131-.414h0c.289-.131,2.317-.617,2.446-.654h0c.143-.051.133,0,.2-.015h0a.224.224,0,0,1,.182.04h0a.292.292,0,0,0,.208.055h0c.063-.015.058-.109,0-.3h0a.072.072,0,0,0-.117-.038h0c-.092.053-.116.011-.271.079h0c-.155.062-2.389.645-2.865.808h0c-.476.168-1.179.463-1.322.526h0c-.147.06-1.556.414-1.855.535h0c-.3.125-2.172.7-2.174.7Z" transform="translate(-17.431 -10.341)" fill="#5e4400" fill-rule="evenodd"/><path d="M32.35,335.626a.6.6,0,0,0,.322.416h0c.215.132.645.194.431.5h0c-.112.149-.333.041-.161.383h0a.5.5,0,0,0,.516.282h0c.157-.011.467-.17.578.044h0c.111.242-.22.357-.25.559h0a.361.361,0,0,0,.469.378h0c.244-.055.377-.31.593-.437h0c.2-.112.511-.149.543.1h0c.017.242-.32.38-.027.578h0c.562.334.855-.616,1.372-.6h0c.406.034.016.3.232.487h0c.245.192.542-.06.707-.226h0c.087-.084.121-.183.239-.251h0c.1-.054.273-.021.244.116h0c-.05.226.412.2.581-.117h0c.177-.351.155.051.6,0h0c.229-.033.227-.265.375-.366h0c.171-.1.157-.133.351-.171h0c-2.876-.79-5.076-.961-7.714-1.675Z" transform="translate(-2.695 -8.606)" fill="#00682e"/><path d="M32.35,334.04c.067-.215.281-.214.408-.222h0c.258-.012.9.077.63-.235h0c-.1-.115-.285-.233-.012-.429h0a.712.712,0,0,1,.712,0h0c.159.081.384.35.62.208h0c.251-.168-.017-.4.071-.6h0a.513.513,0,0,1,.723-.138h0c.218.146.184.418.31.608h0a.371.371,0,0,0,.581.107h0c.176-.209-.046-.448.359-.515h0c.755-.091.369.84.829,1.016h0c.37.119.218-.26.513-.34h0c.33-.074.408.258.441.466h0c.017.106-.015.205.04.311h0a.152.152,0,0,0,.269,0h0c.093-.216.444-.006.4.342h0c-.055.382.151.018.482.271h0c.169.135.048.337.122.494h0c.09.175.065.191.213.325h0c-2.875-.791-5.076-.959-7.713-1.676Z" transform="translate(-2.695 -7.017)" fill="#008e45"/><path d="M32.35,335.631c.142.053,1.266.342,1.456.384h0c.184.04.668.142.831.161h0c.164.019.632.106.776.134h0a5.573,5.573,0,0,0,1.224.271h0a9.343,9.343,0,0,1,1.131.179h0c.3.023,2.207.559,2.331.587h0c.143.025.112.063.174.08h0a.214.214,0,0,1,.134.12h0a.282.282,0,0,0,.147.142h0c.059.016.232.072.276-.113l.056-.1a.464.464,0,0,0-.269-.123h0c-.1,0-.1-.044-.262-.056h0c-.159-.02-2.281-.569-2.752-.654h0c-.471-.081-1.191-.161-1.34-.174h0c-.15-.019-1.483-.376-1.787-.413h0c-.3-.034-2.128-.426-2.128-.426Z" transform="translate(-2.695 -8.608)" fill="#5e4400" fill-rule="evenodd"/><path d="M53.271,342.049a.644.644,0,0,0,.552.047h0c.256-.074.609-.365.692.018h0c.039.191-.2.288.186.4h0a.54.54,0,0,0,.587-.2h0c.1-.128.2-.482.445-.416h0c.267.084.121.424.257.589h0a.377.377,0,0,0,.625-.093h0c.131-.23.026-.513.083-.771h0c.053-.233.246-.5.465-.349h0c.2.16.07.52.43.433h0c.66-.2.128-1.1.507-1.493h0c.314-.292.248.2.544.165h0c.322-.055.338-.463.328-.71h0a1.147,1.147,0,0,1-.028-.362h0c.029-.117.176-.23.262-.109h0c.142.2.453-.176.322-.532h0c-.146-.387.15-.085.425-.465h0c.137-.2-.045-.367-.017-.55h0c.04-.208.007-.218.115-.4h0c-2.656,1.67-4.352,3.256-6.78,4.8Z" transform="translate(-13.473 -9.444)" fill="#00682e"/><path d="M53.227,341.708c-.121-.206.032-.371.116-.476h0c.175-.209.7-.647.265-.656h0c-.16,0-.383.056-.342-.293h0a.75.75,0,0,1,.507-.552h0c.177-.066.546-.049.6-.334h0c.048-.314-.327-.273-.412-.478h0a.539.539,0,0,1,.4-.659h0c.269-.066.455.155.693.192h0c.217.03.519-.073.5-.377h0c-.037-.285-.382-.282-.146-.644h0c.466-.65.916.311,1.381.08h0c.355-.2-.049-.355.1-.641h0c.176-.308.49-.134.675-.011h0c.1.063.15.157.271.19h0c.1.022.251-.069.19-.21h0c-.1-.226.313-.349.552-.067h0c.258.314.121-.1.554-.183h0c.225-.033.3.2.469.256h0a.767.767,0,0,0,.4.065h0c-2.657,1.671-4.352,3.26-6.781,4.8Z" transform="translate(-13.427 -9.1)" fill="#008e45"/><path d="M53.274,341.594c.141-.074,1.165-.741,1.332-.859h0c.163-.113.585-.418.715-.531h0c.133-.115.533-.414.657-.507h0a5.754,5.754,0,0,0,1.079-.758h0a10.282,10.282,0,0,1,.942-.75h0c.233-.215,2-1.316,2.113-1.394h0c.121-.092.128-.042.187-.078h0a.217.217,0,0,1,.186-.019h0a.3.3,0,0,0,.215-.013h0c.054-.035.021-.122-.092-.287h0a.071.071,0,0,0-.122,0h0c-.07.079-.107.048-.232.164h0c-.128.107-2.061,1.366-2.462,1.67h0c-.4.308-.972.81-1.087.916h0c-.121.105-1.347.885-1.589,1.1h0c-.243.212-1.843,1.349-1.843,1.35Z" transform="translate(-13.475 -8.986)" fill="#5e4400" fill-rule="evenodd"/><path d="M41.295,327.17a.74.74,0,0,1,.7-.384h0c.336.005.822.316.841-.213h0c0-.267-.3-.411.137-.587h0a.651.651,0,0,1,.72.271h0c.143.163.329.576.592.5h0c.285-.1.051-.5.17-.688h0c.195-.28.548-.091.725.146h0c.192.268.128.574.236.853h0c.1.253.357.541.575.37h0c.2-.175-.007-.553.409-.471h0c.772.183.308,1.16.771,1.538h0c.377.279.25-.239.58-.24h0c.363.01.419.439.431.7h0a1.309,1.309,0,0,0,.006.394h0c.042.122.215.216.3.071h0c.134-.241.5.1.4.506h0c-.121.445.166.066.508.4h0c.174.176,0,.386.058.566h0c.079.2.042.218.2.356h0c-3.254-.846-4.814-3.479-8.358-4.087Z" transform="translate(-7.303 -3.608)" fill="#008e45"/><path d="M41.267,328.485a.409.409,0,0,0,.265.573h0c.279.139,1.037.342.5.586h0c-.2.087-.5.194-.354.517h0c.128.269.491.283.758.269h0c.228-.015.651-.139.77.137h0c.116.31-.313.359-.369.588h0c-.067.347.3.538.571.563h0c.3.018.465-.222.712-.275h0a.449.449,0,0,1,.57.381h0c0,.305-.357.306-.077.7h0c.544.715.908-.318,1.414-.065h0c.389.225-.02.4.16.719h0c.211.342.533.129.722-.021h0c.1-.077.147-.191.276-.239h0c.108-.035.284.04.229.206h0c-.087.262.393.318.624-.028h0c.251-.391.148.092.653.051h0c.262-.03.3-.287.489-.389h0a1.072,1.072,0,0,1,.441-.183h0c-3.254-.845-4.815-3.479-8.357-4.086Z" transform="translate(-7.273 -4.927)" fill="#00682e"/><path d="M41.3,328.485a5.616,5.616,0,0,1,.946.186h0a8.377,8.377,0,0,1,.9.319h0c.213.093.754.366.922.473h0c.17.111.66.407.807.5h0a6.631,6.631,0,0,1,1.263.79h0a9.828,9.828,0,0,0,1.091.762h0a7.117,7.117,0,0,0,1.244.645h0a11.959,11.959,0,0,0,1.25.391h0c.151.054.148,0,.222.019h0c.072.015.089-.047.2-.09s.149.017.149.017c.066.016.024.172-.038.2a.365.365,0,0,1-.326.035h0a11.564,11.564,0,0,1-1.422-.455h0a10.236,10.236,0,0,1-1.5-.788h0c-.46-.307-1.13-.837-1.265-.951h0c-.144-.107-1.589-.9-1.9-1.1h0a7.578,7.578,0,0,0-1.313-.626h0a8.616,8.616,0,0,0-1.216-.331Z" transform="translate(-7.306 -4.927)" fill="#5e4400" fill-rule="evenodd"/><path d="M64.852,321.219a.74.74,0,0,1,.8-.01h0c.293.162.576.665.842.205h0c.127-.233-.07-.5.4-.451h0c.327.046.447.328.508.578h0c.049.209.02.662.289.717h0c.3.045.278-.415.474-.528h0c.3-.157.527.178.571.47h0c.044.325-.158.565-.193.863h0c-.031.27.061.643.334.6h0c.258-.06.254-.49.584-.224h0c.6.527-.274,1.168-.046,1.722h0c.2.424.336-.1.628.058h0c.315.181.161.585.048.826h0c-.059.124-.156.2-.18.352h0c-.019.126.087.29.23.2h0c.23-.15.4.326.114.636h0c-.315.335.116.136.263.591h0c.069.238-.181.341-.216.526h0c-.023.21-.065.212,0,.406h0c-2.472-2.275-2.61-5.331-5.451-7.533Z" transform="translate(-19.44 -1.048)" fill="#008e45"/><path d="M64.407,321.492a.409.409,0,0,0-.035.63h0c.18.253.756.79.169.754h0c-.22-.018-.533-.064-.558.288h0c-.014.3.3.48.543.6h0c.207.093.64.181.615.483h0c-.045.328-.447.168-.6.344h0c-.222.272.015.616.24.765h0c.258.157.515.022.758.091h0a.448.448,0,0,1,.322.6h0c-.145.268-.46.1-.393.579h0c.143.888.949.146,1.276.606h0c.238.383-.2.342-.2.71h0c.026.4.41.365.648.32h0c.123-.022.221-.1.355-.08h0a.169.169,0,0,1,.105.288h0c-.2.191.2.466.564.27h0c.405-.226.088.152.554.352h0c.244.1.4-.112.614-.115h0a1.085,1.085,0,0,1,.474.047h0c-2.473-2.274-2.609-5.331-5.451-7.533Z" transform="translate(-18.992 -1.324)" fill="#00682e"/><path d="M64.858,321.492a5.375,5.375,0,0,1,.747.609h0a7.852,7.852,0,0,1,.643.7h0a9.8,9.8,0,0,1,.592.85h0c.1.176.389.669.477.824h0a6.8,6.8,0,0,1,.741,1.291h0a9.656,9.656,0,0,0,.6,1.184h0a6.939,6.939,0,0,0,.795,1.155h0a12.043,12.043,0,0,0,.918.933h0c.108.117.13.071.187.119h0a.3.3,0,0,0,.2.064h0a.427.427,0,0,1,.237.064h0c.05.046,0,.114-.162.234h0a.1.1,0,0,1-.141-.027h0c-.065-.084-.115-.066-.226-.2h0a11.33,11.33,0,0,1-1.04-1.068h0a10.275,10.275,0,0,1-.959-1.4h0c-.259-.486-.6-1.269-.667-1.434h0c-.079-.162-.978-1.543-1.165-1.863h0a7.731,7.731,0,0,0-.864-1.17h0a8.743,8.743,0,0,0-.918-.863Z" transform="translate(-19.443 -1.324)" fill="#5e4400" fill-rule="evenodd"/><path d="M90.552,330.8a.741.741,0,0,1,.645.471h0c.137.307.061.878.548.672h0c.243-.111.248-.444.59-.126h0a.653.653,0,0,1,.06.767h0c-.089.2-.384.543-.2.748h0c.211.215.472-.163.7-.137h0c.337.058.316.458.174.717h0c-.16.288-.464.36-.673.575h0c-.186.2-.337.55-.091.677h0c.241.106.5-.241.6.172h0c.16.776-.921.769-1.07,1.349h0c-.093.459.324.123.466.423h0c.144.334-.223.566-.458.689h0c-.121.063-.245.067-.355.172h0c-.093.088-.1.284.062.3h0c.275.02.124.5-.29.576h0c-.455.081.011.179-.145.631h0c-.087.231-.35.164-.49.292h0c-.146.154-.18.13-.239.326h0c-.61-3.3,1.119-5.827.173-9.294Z" transform="translate(-32.523 -6.121)" fill="#008e45"/><path d="M88.4,330.8c-.426.07-.406.33-.408.48h0c-.008.312.13,1.087-.319.706h0c-.165-.145-.386-.371-.618-.1h0c-.191.229-.05.563.076.8h0c.11.2.4.528.2.753h0c-.231.237-.458-.13-.689-.086h0c-.341.086-.359.5-.268.756h0c.112.281.4.326.551.527h0a.448.448,0,0,1-.106.677h0c-.278.128-.429-.194-.664.225h0c-.417.8.673.686.656,1.254h0c-.038.447-.368.149-.583.447h0c-.221.335.108.536.324.644h0c.111.056.235.053.332.15h0c.078.082.085.274-.088.293h0c-.276.032-.123.491.287.554h0c.461.063-.021.174.23.614h0c.137.224.39.154.561.278h0c.193.149.211.126.35.321h0c-.608-3.3,1.118-5.829.173-9.294Z" transform="translate(-30.367 -6.121)" fill="#00682e"/><path d="M90.459,330.8a5.432,5.432,0,0,1,.23.936h0a7.532,7.532,0,0,1,.09.949h0a10.112,10.112,0,0,1-.037,1.033h0c-.028.2-.091.77-.116.944h0a6.577,6.577,0,0,1-.183,1.479h0a9.782,9.782,0,0,0-.23,1.308h0a6.976,6.976,0,0,0-.058,1.4h0a11.252,11.252,0,0,0,.174,1.3h0c.016.16.06.137.077.208h0a.292.292,0,0,0,.125.175h0a.417.417,0,0,1,.15.194h0c.014.066-.07.088-.27.088h0a.1.1,0,0,1-.1-.1h0c0-.11-.052-.123-.06-.3h0a11.909,11.909,0,0,1-.19-1.478h0a10.521,10.521,0,0,1,.079-1.7h0c.084-.545.283-1.377.33-1.548h0c.034-.176.146-1.82.189-2.188h0a7.646,7.646,0,0,0,.013-1.454h0a8.613,8.613,0,0,0-.214-1.241Z" transform="translate(-32.425 -6.121)" fill="#5e4400" fill-rule="evenodd"/><path d="M73.366,327.264a.74.74,0,0,1,.8.026h0c.287.176.546.691.832.245h0c.139-.227-.046-.5.417-.434h0a.651.651,0,0,1,.481.6h0c.04.214-.011.665.255.731h0c.3.058.3-.4.5-.5h0c.312-.144.519.2.55.494h0c.027.327-.184.559-.235.854h0c-.042.268.032.647.307.612h0c.26-.05.275-.479.593-.2h0c.571.553-.329,1.155-.124,1.716h0c.183.433.338-.079.624.089h0c.306.195.135.594.01.827h0c-.064.121-.164.194-.2.342h0c-.026.127.074.294.218.213h0c.239-.14.384.341.087.639h0c-.329.319.11.142.235.6h0c.061.24-.2.332-.239.517h0c-.035.209-.077.209-.014.406h0c-2.366-2.386-2.363-5.447-5.1-7.777Z" transform="translate(-23.826 -4.208)" fill="#008e45"/><path d="M72.842,327.442a.409.409,0,0,0-.066.629h0c.169.261.719.824.133.76h0c-.217-.026-.528-.088-.567.264h0c-.028.3.276.493.513.617h0c.2.1.632.212.591.512h0c-.059.326-.452.15-.618.318h0c-.233.263-.013.616.205.774h0c.251.17.513.045.752.127h0a.448.448,0,0,1,.3.618h0c-.158.262-.464.08-.422.559h0c.1.893.943.189,1.248.667h0c.22.391-.22.33-.229.7h0c.007.4.393.382.632.349h0c.123-.017.224-.088.36-.064h0a.171.171,0,0,1,.092.294h0c-.207.181.176.474.552.3h0c.415-.209.079.155.535.376h0c.242.109.41-.092.621-.086h0a1.051,1.051,0,0,1,.47.071h0c-2.365-2.388-2.363-5.448-5.1-7.778Z" transform="translate(-23.298 -4.389)" fill="#00682e"/><path d="M73.376,327.442a5.662,5.662,0,0,1,.717.643h0a7.958,7.958,0,0,1,.609.733h0c.138.188.463.7.554.877h0c.088.18.357.687.437.845h0a6.7,6.7,0,0,1,.68,1.323h0a9.835,9.835,0,0,0,.549,1.212h0a6.965,6.965,0,0,0,.741,1.188h0a11.357,11.357,0,0,0,.876.974h0c.1.123.125.078.18.127h0a.3.3,0,0,0,.2.078h0a.411.411,0,0,1,.234.073h0c.048.048-.01.112-.174.225h0a.1.1,0,0,1-.138-.033h0c-.063-.09-.112-.071-.218-.212h0a11.853,11.853,0,0,1-.991-1.115h0a10.221,10.221,0,0,1-.893-1.448h0c-.237-.5-.542-1.294-.6-1.461h0c-.07-.166-.905-1.587-1.077-1.914h0a7.662,7.662,0,0,0-.81-1.21h0a8.885,8.885,0,0,0-.876-.9Z" transform="translate(-23.831 -4.389)" fill="#5e4400" fill-rule="evenodd"/><path d="M97.472,444.257v39.2c.006.014.013.026.02.04H97.5c2.344-4.885,5.428-3.256,15.421-4.206s10.363-11.4,10.363-11.4V444.257Z" transform="translate(-36.246 -64.572)" fill="#2773b3"/><path d="M44.329,467.891s.369,10.448,10.363,11.4c9.963.947,13.058-.668,15.4,4.164V444.257H44.329Z" transform="translate(-8.866 -64.572)" fill="#a3a3a3"/><path d="M95.907,382.734H44.329v29.821H95.907Z" transform="translate(-8.866 -32.876)" fill="#008e45"/><path d="M44.4,445.635" transform="translate(-8.903 -65.282)" fill="none" stroke="#611b55" stroke-width="0.1"/><path d="M68.471,459.4H59.514V445.932c0-1.138,1.3-1.671,1.311-1.675h-7.2c.01,0,1.311.537,1.311,1.675,0,1.1.013,12.623.014,13.463H45.91c-1.1,0-1.608-1.371-1.608-1.371v7.518s.512-1.37,1.608-1.37h9.03v13.441a2.2,2.2,0,0,1-.895,1.6c.207.03.417.056.634.077,1.928.183,3.6.27,5.055.327l1.094.021s-1.312-.88-1.312-2.023V464.172h8.957c1.1,0,1.607,1.37,1.607,1.37v-7.518S69.567,459.4,68.471,459.4Z" transform="translate(-8.853 -64.572)" fill="#e23817"/><g transform="translate(63.759 381.645)"><path d="M114.346,469.148l-.278-1.92,7.206-1.78-1.391,4.618Z" transform="translate(-108.555 -457.135)" fill="#fa0"/><path d="M121.746,483.478a15.824,15.824,0,0,1,5.031-.482,1.778,1.778,0,0,1,1.124,2.365c-.492,1.662-1.194,1.943-.96,2.177a5.435,5.435,0,0,0,1.546.96c.281.024.141.562.257.632s.445-.351.609-.351a2.249,2.249,0,0,1,.866.749c.023.141-.211.351-.515.281s-.328.07-.468.14a42.64,42.64,0,0,1-4.308-1.334c-.211-.117.234-.352.281-.539a2.462,2.462,0,0,0,.257-1.943,36.988,36.988,0,0,1-4.4.511" transform="translate(-112.161 -466.155)" fill="#fa0"/><path d="M108.2,471.934a7.332,7.332,0,0,0,.82,2.646,1.716,1.716,0,0,1,0,1.475,24.875,24.875,0,0,0-1.686,4.238c-.141.8-1.03,1.545-1.475.8a4.1,4.1,0,0,1-.188-3.231,12.916,12.916,0,0,0,.96-4.027c-.07-1.288-.773-2.037-1.615-1.686a1.761,1.761,0,0,0-1.078,1.522c-.07.468-.257.726-.468.749a2.033,2.033,0,0,0-.773,1.452c.07.469.515,2.154.632,2.529s.421.024.726-1.03a7.262,7.262,0,0,0,.4-2.669,2.462,2.462,0,0,1,.608-1.85c.281-.094.82-.491,1.03.727a6.066,6.066,0,0,1-.772,3.278c-.235.4-1.265,2.364-1.125,3.254a2.554,2.554,0,0,0,1.827,2.528c1.592.515,1.264.773,1.451,1.1a7.729,7.729,0,0,0,1.358,1.429,1.971,1.971,0,0,1,.655,1.334,12.759,12.759,0,0,1-.187,2.553c-.07.164.141.352.374.445s1.709,1.17,1.85,1.288a1.12,1.12,0,0,0,.562.21c.141,0,1.007.656,1.148.656a.337.337,0,0,0,.328-.469c-.094-.375-.82-.492-.82-.655s.375-.281.562-.257.445.07.445,0,.047-.234-.023-.328a1.4,1.4,0,0,0-1.053-.071c-.445.141-1.569-.8-1.592-1.053a5.369,5.369,0,0,1,1.124-3.114c1.03-1.311,1.288-3.16-.3-4.145h-.3s.374-3.418,2.576-4.167a9.745,9.745,0,0,0,2.552-3.138" transform="translate(-102.697 -460.477)" fill="#fa0"/><path d="M121.971,456.316a15.319,15.319,0,0,0,1.106-1.879,5.537,5.537,0,0,1,2.22-2.113c.3-.107.79.213.854.106s0-.426,0-.426-.6-.15-.684-.192.064-.235.149-.342.7.171.662-.022-.576-.491-.683-.512-.341.32-.533.32-.085-.235-.107-.448.492-.064.492-.064-.086-.32-.192-.383a2.329,2.329,0,0,0-1,.3c-.128.107-1.494,1.815-1.943,2.348a8.508,8.508,0,0,1-1.643,1.239,1.962,1.962,0,0,1-.576-.065,1.358,1.358,0,0,0-.6-.085,3.479,3.479,0,0,1-.726-.277c-.17-.064-.213-.534-.213-.726s-.384-.256-.534,0-1.771.235-1.771.235.192-.384.448-.811,1.516-.192,1.643-.321a9.106,9.106,0,0,0,.171-2.07c0-.47-.191-.449-.191-.449l-.032.046a2.1,2.1,0,0,1-1.874-.129c-.841-.581-1.228-1.292-1.422-1.292s-.775.064-.775.064.129.388-.065.324a1.62,1.62,0,0,1-.452-.324,18.982,18.982,0,0,0-2.715,0,3.78,3.78,0,0,0-.97.711c-.129.194.1.334.236.286s-.493.3-.562.468.07.211.164.141,0,.234-.117.281a.645.645,0,0,0-.281.444,1.938,1.938,0,0,1-.047.539,8.964,8.964,0,0,0-.187,1.217c-.024.3,0,1.85.023,1.991s.515-.351.492-.75,0,1.124-.468,1.288a12.863,12.863,0,0,0,.07,2.669c.094.117.726.094.8.235a.648.648,0,0,1-.023.585.819.819,0,0,0,.07.7c.094.094.094-.3.211-.281a2.52,2.52,0,0,1,.234,1.357c-.117.164.679-.257.375-2.037,0,0-.047,1.405.819,1.709a1.272,1.272,0,0,1-.047-.8" transform="translate(-106.051 -448.301)" fill="#fa0"/><path d="M126.685,460.563s-.043.235.107.3.7.149.9.512.064.747.128.854.533.277.512.427-.384.555-.363.662a.823.823,0,0,0,.149.427,2.8,2.8,0,0,1,0,1.516l.043-.192s1.345-.129,1.9-.129a4.155,4.155,0,0,0,1.366-.383,11.265,11.265,0,0,1,.747-1.644c.192-.192.47-.534.64-.556a2.286,2.286,0,0,1,.662.192,3.892,3.892,0,0,0-.363.278c-.171.149-.427.428-.384.534s.47-.235.662-.3a1.948,1.948,0,0,1,.491-.064l-.021.342s.043.021-.15.192-.384.406-.235.427a2.656,2.656,0,0,0,.427,0l.149-.427s.256.128.256.3a2.575,2.575,0,0,1-1,1.452,9.772,9.772,0,0,1-3.843,1.793,4.813,4.813,0,0,0-2.775.918,7.874,7.874,0,0,1-2.178,1.451c-.683.235-1.623.79-2.391-.384s-.406-1.217-.768-1.174" transform="translate(-112.306 -454.618)" fill="#fa0"/><path d="M110.86,458.006l.064,1.366a3.35,3.35,0,0,1-.619,1.132c-.363.342-.32-.277-.32-.277" transform="translate(-106.451 -453.301)" fill="none"/><g transform="translate(4.195 0.777)"><path d="M112.162,449.9a2.437,2.437,0,0,1-.064.747c-.085.107-.768.747-.747,1.153a3.985,3.985,0,0,0,.192,1.26" transform="translate(-111.35 -449.904)" fill="none"/><path d="M112.892,451.421a.5.5,0,0,1,.64.321" transform="translate(-112.144 -450.674)" fill="none"/></g><path d="M112.892,453.514l.064.405.107-.449Z" transform="translate(-107.949 -450.964)" fill="none"/><path d="M114.962,448.981a1.439,1.439,0,0,1,.875.277,1.841,1.841,0,0,0,.449.32" transform="translate(-109.016 -448.651)" fill="none"/><path d="M116.019,453.4a3.46,3.46,0,0,0,.79-.405,2.181,2.181,0,0,1,1.324-.3,3.364,3.364,0,0,0,1.217-.192,3.416,3.416,0,0,0-.939.427,1.593,1.593,0,0,1-1.831.257" transform="translate(-109.56 -450.465)" fill="none"/><path d="M118.044,458.315s-.021.918.534,1.259.768.214.747.427a1.9,1.9,0,0,0,.064-1.43" transform="translate(-110.603 -453.46)" fill="none"/><path d="M120.09,463.123s-.171.875.043,1.174a6.179,6.179,0,0,0,.9.747c.149.149-.149-.32.085-.9a1.772,1.772,0,0,0,.043-1.473" transform="translate(-111.624 -455.706)" fill="none"/><path d="M113.009,462.19a1.835,1.835,0,0,0-.021,1.281c.277.47.64.684.6.9a2.59,2.59,0,0,0,.661-1.9" transform="translate(-107.938 -455.457)" fill="none"/><path d="M117.13,463.643a2.519,2.519,0,0,1-.128,1.238,3,3,0,0,0-.491.918c0,.149-.363-.47-.32-.853" transform="translate(-109.647 -456.205)" fill="none"/><path d="M117.472,471.537a1.213,1.213,0,0,0,.47.982c.491.321.555.555.534.812s.832-.9.512-2.113" transform="translate(-110.309 -460.107)" fill="none"/><path d="M124.7,467.254s.278,1.6,0,1.836,1,.15,1.132-.576" transform="translate(-114.011 -458.065)" fill="none"/><path d="M127,469.231a3.278,3.278,0,0,1-.043,1.431c-.214.405.876-.726,1.409-1.132a1.537,1.537,0,0,0,.277-1.174" transform="translate(-115.18 -458.633)" fill="none"/><path d="M131.343,467.08s.62.812.448,1.281.747-.577.747-.982a1.142,1.142,0,0,0-.235-.919" transform="translate(-117.455 -457.657)" fill="none"/><path d="M127.053,461.7a1.442,1.442,0,0,1,.833-.15,1.532,1.532,0,0,1,.832,1.174,1.873,1.873,0,0,0-.811-.32c-.3.021-1.217.32-1.452-.512" transform="translate(-114.937 -455.119)" fill="none"/><path d="M127.129,463.336a1.229,1.229,0,0,0,.149.6,1.393,1.393,0,0,1-.192,1.2c-.192.278.107-.555-.512-.768s-1-.277-1.131-.576" transform="translate(-114.416 -456.047)" fill="none"/></g><g transform="translate(48.798 350.367)"><path d="M95.164,397.948c4.185-8.154,0-14.165,0-14.165h-.01s-4.175,6-.005,14.147Z" transform="translate(-82.894 -383.783)" fill="#e23817"/><path d="M84.105,405.459c-4.969-7.7-12.266-7.085-12.266-7.085l0,.008s3.11,6.617,12.249,7.079Z" transform="translate(-71.835 -391.294)" fill="#e23817"/><path d="M84.107,413c-9.154.453-12.268,7.08-12.268,7.08l0,.008s7.286.615,12.255-7.068Z" transform="translate(-71.837 -398.836)" fill="#e23817"/><path d="M95.168,413c-4.184,8.153,0,14.165,0,14.165h.01s4.175-6,.006-14.147Z" transform="translate(-82.898 -398.836)" fill="#e23817"/><path d="M97.145,413c4.97,7.7,12.266,7.084,12.266,7.084l0-.008s-3.11-6.617-12.249-7.079Z" transform="translate(-84.875 -398.833)" fill="#e23817"/><path d="M97.145,405.455c9.154-.454,12.269-7.08,12.269-7.08l-.005-.009s-7.285-.615-12.254,7.069Z" transform="translate(-84.875 -391.29)" fill="#e23817"/></g></g></svg>