<svg xmlns="http://www.w3.org/2000/svg" width="32.297" height="48" viewBox="0 0 32.297 48"><g transform="translate(16026 20800.957)"><path d="M68.818,352.072c-4.8,0-8.688.875-8.688,1.956,0,.325.434.5,1.191.592l-.073-.311c-.143.038-.219-.031-.219-.057,0-.125.068-.17.266-.294.94-.583,3.952-1,7.523-1s6.583.42,7.522,1c.2.124.266.169.266.294,0,.026-.076.095-.218.057l-.064.272c.751-.091,1.182-.257,1.182-.554,0-1.081-3.889-1.956-8.688-1.956Z" transform="translate(-16078.448 -21145.314)" fill="#fa0"/><path d="M64.212,357.22l.34,1.459a23.553,23.553,0,0,1,7.23-.855,23.548,23.548,0,0,1,7.23.855l.34-1.459c.142.038.218-.031.218-.057,0-.125-.067-.17-.266-.294-.94-.583-3.951-1-7.522-1s-6.583.42-7.523,1c-.2.124-.266.169-.266.294,0,.026.076.095.219.057Z" transform="translate(-16081.412 -21148.225)" fill="#ffc355"/><path d="M79.123,365.766c0,.822-3.574,1.486-7.983,1.486s-7.984-.665-7.984-1.486,3.575-1.486,7.984-1.486,7.983.666,7.983,1.486Z" transform="translate(-16080.771 -21154.682)" fill="#fa0"/><path d="M94.231,357.267l-1.409.861-1.408-.861,1.408-.86,1.409.86Z" transform="translate(-16102.451 -21148.643)" fill="#fa0"/><path d="M93.851,358.412l.841.513.841-.513-.841-.512-.841.512Z" transform="translate(-16104.321 -21149.787)" fill="#e23817"/><path d="M65.338,362.291l-.482.593-.642-.266.482-.592.642.265Z" transform="translate(-16081.582 -21152.953)" fill="#fa0"/><path d="M65.187,363.121l.383.158.288-.353-.383-.159-.288.354Z" transform="translate(-16082.328 -21153.52)" fill="#e23817"/><path d="M76.766,358.831h-.007l-.02-.18a.108.108,0,0,0-.119-.094l-1.341.152a.108.108,0,0,0-.095.118l.021.181H75.2a.221.221,0,1,0,.05.438h.006l.021.182a.108.108,0,0,0,.119.095l1.341-.153a.107.107,0,0,0,.094-.119l-.021-.181h.007a.22.22,0,0,0-.05-.438Z" transform="translate(-16089.86 -21150.291)" fill="#fa0"/><path d="M76.793,359.691l.065.571,1.11-.126c-.016-.141-.049-.43-.065-.57l-1.11.126Z" transform="translate(-16091.233 -21151.064)" fill="#e23817"/><path d="M111.545,358.837h.006l.02-.181a.107.107,0,0,1,.12-.093l1.341.151a.107.107,0,0,1,.094.118l-.021.182h.007a.22.22,0,1,1-.05.438h-.007l-.02.182a.108.108,0,0,1-.119.1l-1.34-.153a.108.108,0,0,1-.1-.119l.021-.182h-.006a.22.22,0,1,1,.05-.438Z" transform="translate(-16117.71 -21150.295)" fill="#fa0"/><path d="M114.265,359.693c-.016.142-.048.43-.065.572l-1.11-.127c.016-.141.049-.43.065-.57l1.11.126Z" transform="translate(-16119.084 -21151.066)" fill="#e23817"/><path d="M81.543,368.109c0,.564-3.1,1.021-6.931,1.021s-6.931-.457-6.931-1.021,3.1-1.022,6.931-1.022,6.931.458,6.931,1.022Z" transform="translate(-16084.242 -21156.836)" fill="#e23817"/><path d="M84.851,357.363a.187.187,0,1,1-.187-.187.187.187,0,0,1,.187.187Z" transform="translate(-16097.129 -21149.23)" fill="#fa0" fill-rule="evenodd"/><path d="M90.642,357.14a.187.187,0,1,1-.187-.188.187.187,0,0,1,.187.188Z" transform="translate(-16101.572 -21149.061)" fill="#fa0" fill-rule="evenodd"/><path d="M90.838,361.967a.188.188,0,1,1-.188-.188.188.188,0,0,1,.188.188Z" transform="translate(-16101.723 -21152.764)" fill="#fa0" fill-rule="evenodd"/><path d="M85.15,362.276a.188.188,0,1,1-.188-.188.188.188,0,0,1,.188.188Z" transform="translate(-16097.358 -21153)" fill="#fa0" fill-rule="evenodd"/><path d="M108.846,357.363a.187.187,0,1,0,.188-.187.188.188,0,0,0-.188.187Z" transform="translate(-16115.828 -21149.23)" fill="#fa0" fill-rule="evenodd"/><path d="M103.052,357.14a.188.188,0,1,0,.188-.188.188.188,0,0,0-.188.188Z" transform="translate(-16111.382 -21149.061)" fill="#fa0" fill-rule="evenodd"/><path d="M102.858,361.967a.187.187,0,1,0,.188-.188.187.187,0,0,0-.188.188Z" transform="translate(-16111.233 -21152.764)" fill="#fa0" fill-rule="evenodd"/><path d="M108.547,362.276a.187.187,0,1,0,.187-.188.187.187,0,0,0-.187.188Z" transform="translate(-16115.599 -21153)" fill="#fa0" fill-rule="evenodd"/><path d="M87.08,359.355l-.193-.242.069-.3.279-.134.278.134.069.3-.192.242Z" transform="translate(-16098.978 -21150.383)" fill="#fa0"/><path d="M68.194,359.947a.154.154,0,1,1-.183-.156.172.172,0,0,1,.183.156Z" transform="translate(-16084.406 -21151.236)" fill="#fa0" fill-rule="evenodd"/><path d="M72.7,358.844a.154.154,0,1,1-.182-.155.172.172,0,0,1,.182.155Z" transform="translate(-16087.862 -21150.391)" fill="#fa0" fill-rule="evenodd"/><path d="M73.775,363.55a.154.154,0,1,1-.183-.156.172.172,0,0,1,.183.156Z" transform="translate(-16088.688 -21154)" fill="#fa0" fill-rule="evenodd"/><path d="M69.369,364.724a.153.153,0,1,1-.183-.155.172.172,0,0,1,.183.155Z" transform="translate(-16085.309 -21154.902)" fill="#fa0" fill-rule="evenodd"/><path d="M70.485,361.488l-.2-.208,0-.306.193-.174.245.089.111.285-.1.267-.243.048Z" transform="translate(-16086.239 -21152.012)" fill="#fa0"/><path d="M125.884,362.291l.482.593.642-.266-.483-.592-.642.265Z" transform="translate(-16128.901 -21152.953)" fill="#fa0" fill-rule="evenodd"/><path d="M127.528,363.121l-.383.158-.289-.353.383-.159.288.354Z" transform="translate(-16129.647 -21153.52)" fill="#e23817"/><path d="M125.736,359.947a.154.154,0,1,0,.184-.156.171.171,0,0,0-.184.156Z" transform="translate(-16128.784 -21151.236)" fill="#fa0" fill-rule="evenodd"/><path d="M121.229,358.844a.154.154,0,1,0,.184-.155.173.173,0,0,0-.184.155Z" transform="translate(-16125.326 -21150.391)" fill="#fa0" fill-rule="evenodd"/><path d="M120.155,363.55a.154.154,0,1,0,.183-.156.172.172,0,0,0-.183.156Z" transform="translate(-16124.502 -21154)" fill="#fa0" fill-rule="evenodd"/><path d="M124.563,364.724a.154.154,0,1,0,.183-.155.172.172,0,0,0-.183.155Z" transform="translate(-16127.884 -21154.902)" fill="#fa0" fill-rule="evenodd"/><path d="M122.633,361.488l.2-.208,0-.306-.193-.174-.244.089-.112.285.106.267.243.048Z" transform="translate(-16126.139 -21152.012)" fill="#fa0"/><path d="M105.563,359.355l.192-.242-.068-.3-.279-.134-.278.134-.068.3.193.242Z" transform="translate(-16112.923 -21150.383)" fill="#fa0"/><path d="M106.947,368.287c.414.3,1.078.606,1.326.855a7.238,7.238,0,0,0,.8.8c.137.055.276-.69.276-.69-.249-.138-1.022-.552-1.409-.8-.305-.2-1.042-.789-1.46-1.152-.243-.015-.5-.028-.753-.039.336.3.93.813,1.218,1.025Z" transform="translate(-16113.437 -21156.971)" fill="#aa6b00" fill-rule="evenodd"/><path d="M118.883,375.668c.11-.193.579-.166.855.22s.469.5.414.966c-.5-.11-.331-.193-.635-.359s-.469-.165-.552-.331-.193-.3-.082-.5Z" transform="translate(-16123.494 -21163.33)" fill="#fff" stroke="#161615" stroke-width="0.1" fill-rule="evenodd"/><path d="M118.883,375.668c.11-.193.579-.166.855.22s.469.5.414.966c-.5-.11-.331-.193-.635-.359s-.469-.165-.552-.331-.193-.3-.082-.5Z" transform="translate(-16123.494 -21163.33)" fill="#aa6b00" stroke="#161615" stroke-linecap="round" stroke-linejoin="round" stroke-width="0.1"/><path d="M119.642,376.223c-.065,0-.1.024-.106.038h0a.16.16,0,0,0-.026.085.457.457,0,0,0,.073.19l.039.074c.025.05.064.07.2.13a2.794,2.794,0,0,1,.284.134.851.851,0,0,1,.245.189.335.335,0,0,0,.162.1.8.8,0,0,0-.229-.461l-.159-.21a.592.592,0,0,0-.486-.272Z" transform="translate(-16124.01 -21163.846)" fill="#5e4400" fill-rule="evenodd"/><path d="M74.787,368.439c-.406.248-1.218.662-1.479.8,0,0,.145.745.29.69a7.478,7.478,0,0,0,.841-.8c.26-.249.957-.552,1.392-.855.3-.212.933-.734,1.285-1.029-.27.01-.534.024-.79.038-.438.363-1.216.958-1.538,1.156Z" transform="translate(-16088.56 -21156.957)" fill="#aa6b00" fill-rule="evenodd"/><path d="M71.244,375.668c-.116-.193-.609-.166-.9.22s-.493.5-.435.966c.521-.11.347-.193.667-.359s.492-.165.58-.331.2-.3.086-.5Z" transform="translate(-16085.945 -21163.33)" fill="#fff" stroke="#161615" stroke-width="0.1" fill-rule="evenodd"/><path d="M71.244,375.668c-.116-.193-.609-.166-.9.22s-.493.5-.435.966c.521-.11.347-.193.667-.359s.492-.165.58-.331.2-.3.086-.5Z" transform="translate(-16085.945 -21163.33)" fill="#aa6b00" stroke="#161615" stroke-linecap="round" stroke-linejoin="round" stroke-width="0.1"/><path d="M71.551,376.223c.068,0,.1.024.113.038h0a.162.162,0,0,1,.027.085.442.442,0,0,1-.077.19l-.041.074c-.026.05-.067.07-.213.13a2.984,2.984,0,0,0-.3.134.9.9,0,0,0-.257.189.35.35,0,0,1-.171.1.793.793,0,0,1,.24-.461l.168-.21a.631.631,0,0,1,.51-.272Z" transform="translate(-16086.507 -21163.846)" fill="#5e4400" fill-rule="evenodd"/><path d="M102.228,337.611s4.31-4.868,7.506-4.363,3.273.749,4.92,1.711c1.625.951-.486-.049-.486-.049s-2.813-1.511-4.844-1.345a5.8,5.8,0,0,0-3.884,1.591c-.868.795-2.627,2.477-2.627,2.477l-.585-.022Z" transform="translate(-16110.75 -21130.844)" fill="#aa6b00" fill-rule="evenodd"/><path d="M104.273,349.247c-.023.015-.03.1-.033.127h0s-.177.445-.228.536h0c-.018.033-.026.06,0,.061h0c.024,0,.048-.026.067-.058h0c.066-.123.237-.629.238-.633h0c0-.029-.02-.045-.043-.032Z" transform="translate(-16112.106 -21143.145)" fill="#5e4400" fill-rule="evenodd"/><path d="M99.262,340.543a1.751,1.751,0,0,0-.141-2.517h0a2.151,2.151,0,0,0-1.65-.179c1.684.138,2.226,1.131,1.792,2.7Z" transform="translate(-16107.099 -21134.33)" fill="#008e45"/><path d="M97.647,338.164a2.853,2.853,0,0,1,.941.224h0a1.57,1.57,0,0,1,.705.59h0a1.807,1.807,0,0,1,.246,1.065h0a4.626,4.626,0,0,1-.139.8" transform="translate(-16107.235 -21134.643)" fill="#00682e"/><path d="M119.847,338.773c.01-.027-.061-.04-.083-.045,0,0-.25-.194-.289-.242-.015-.018-.041-.014-.061.007a.057.057,0,0,0-.008.071,2.652,2.652,0,0,0,.372.256.077.077,0,0,0,.07-.046Z" transform="translate(-16123.923 -21134.881)" fill="#5e4400" fill-rule="evenodd"/><path d="M123.928,341.155a1.473,1.473,0,0,0-.654-1.118c-1.145-.653-2.138-.791-2.351-.6l3.005,1.715Z" transform="translate(-16125.094 -21135.561)" fill="#008e45"/><path d="M120.91,339.708c-.06.282.564,1.066,1.71,1.72a1.474,1.474,0,0,0,1.3,0l-3.005-1.715Z" transform="translate(-16125.081 -21135.828)" fill="#00682e"/><path d="M107.186,324.7a1.567,1.567,0,0,0-.506,1.113,3.748,3.748,0,0,0,.443,2.344l.063-3.457Z" transform="translate(-16114.164 -21124.313)" fill="#00682e"/><path d="M108.587,328.157a3.746,3.746,0,0,0,.529-2.327,1.568,1.568,0,0,0-.465-1.13l-.063,3.457Z" transform="translate(-16115.629 -21124.313)" fill="#008e45"/><path d="M118.027,324.566a1.571,1.571,0,0,0-.912.814,3.758,3.758,0,0,0-.544,2.324l1.457-3.138Z" transform="translate(-16121.712 -21124.209)" fill="#00682e"/><path d="M116.755,327.7c.225.006.87-.72,1.424-1.915a1.569,1.569,0,0,0,.033-1.223l-1.456,3.138Z" transform="translate(-16121.896 -21124.209)" fill="#008e45"/><path d="M111.105,342.692c-.022.006,0,.07.013.091h0a.552.552,0,0,1,.008.138h0a.045.045,0,0,0,.034.048h0a.033.033,0,0,0,.045-.025h0a.613.613,0,0,0-.04-.214h0a.069.069,0,0,0-.061-.038Z" transform="translate(-16117.556 -21138.117)" fill="#5e4400" fill-rule="evenodd"/><path d="M109.564,328.168a1.763,1.763,0,0,0-.634,1.149h0a2.911,2.911,0,0,0,.539,2.318h0a11.312,11.312,0,0,1,.095-3.467Z" transform="translate(-16115.881 -21126.973)" fill="#00682e"/><path d="M111,331.635c.192-.1.319-.94.432-2.3h0a1.681,1.681,0,0,0-.337-1.167,11.312,11.312,0,0,0-.095,3.467Z" transform="translate(-16117.407 -21126.973)" fill="#008e45"/><path d="M111.088,328.3c-.047.273-.083.532-.112.8h0c-.035.323-.056.63-.064.944h0a10.494,10.494,0,0,0,.022,1.065h0c.017.235.05.531.062.62" transform="translate(-16117.41 -21127.072)" fill="none"/><path d="M108.91,344.1c.024,0,.018.074.017.1h0s.061.289.087.345h0a.048.048,0,0,1-.02.06h0a.036.036,0,0,1-.055-.011h0a3.039,3.039,0,0,1-.08-.433h0a.077.077,0,0,1,.051-.059Z" transform="translate(-16115.838 -21139.199)" fill="#5e4400" fill-rule="evenodd"/><path d="M103.792,329.18a1.915,1.915,0,0,1,1.031.99h0a3.162,3.162,0,0,1,.188,2.585h0a12.27,12.27,0,0,0-1.218-3.575Z" transform="translate(-16111.95 -21127.75)" fill="#008e45"/><path d="M104.652,332.755c-.23-.037-.635-.875-1.193-2.253h0a1.831,1.831,0,0,1-.026-1.322h0a12.29,12.29,0,0,1,1.218,3.575Z" transform="translate(-16111.592 -21127.75)" fill="#00682e"/><path d="M103.856,329.306c.137.269.259.526.375.795h0c.141.325.262.637.371.961h0c.128.378.233.738.321,1.116h0c.058.25.119.568.136.664" transform="translate(-16111.999 -21127.846)" fill="none"/><path d="M107.409,350.125a1.762,1.762,0,0,0-1.132-.663h0a2.911,2.911,0,0,0-2.333.481h0a11.309,11.309,0,0,1,3.465.182Z" transform="translate(-16112.066 -21143.293)" fill="#008e45"/><path d="M103.944,351.42c.09.194.932.342,2.29.49h0a1.683,1.683,0,0,0,1.175-.308,11.309,11.309,0,0,0-3.465-.182Z" transform="translate(-16112.066 -21144.77)" fill="#00682e"/><path d="M107.408,351.6c-.272-.054-.529-.1-.8-.132h0c-.324-.044-.63-.072-.943-.089h0c-.366-.018-.71-.02-1.066,0h0c-.236.012-.532.037-.622.046" transform="translate(-16112.095 -21144.77)" fill="none"/><path d="M135.708,333.2c-.017-.014-.061.042-.075.058,0,0-.27.164-.327.185a.04.04,0,1,0,.028.074,3.787,3.787,0,0,0,.377-.249.057.057,0,0,0,0-.068Z" transform="translate(-16136.111 -21130.832)" fill="#5e4400" fill-rule="evenodd"/><path d="M139.634,324.5a1.57,1.57,0,0,0-1.188.29c-1.052.794-1.626,1.578-1.572,1.8l2.761-2.086Z" transform="translate(-16137.33 -21124.146)" fill="#00682e"/><path d="M136.885,326.658c.2.111,1.106-.228,2.158-1.021a1.575,1.575,0,0,0,.6-1.064l-2.761,2.086Z" transform="translate(-16137.342 -21124.213)" fill="#008e45"/><path d="M134.63,338.17a1.574,1.574,0,0,0-.684-1.014c-1.11-.71-2.045-.976-2.231-.851l2.914,1.865Z" transform="translate(-16133.375 -21133.193)" fill="#008e45"/><path d="M131.711,336.4c-.038.222.6.959,1.707,1.669a1.575,1.575,0,0,0,1.208.2l-2.914-1.865Z" transform="translate(-16133.371 -21133.293)" fill="#00682e"/><path d="M121.281,337.348c0-.022-.065-.033-.087-.038,0,0-.273-.157-.32-.2a.039.039,0,0,0-.056.006.038.038,0,0,0,0,.056,3.814,3.814,0,0,0,.4.209.057.057,0,0,0,.057-.037Z" transform="translate(-16125.007 -21133.832)" fill="#5e4400" fill-rule="evenodd"/><path d="M125.6,339.308a1.566,1.566,0,0,0-.828-.9,3.759,3.759,0,0,0-2.335-.505l3.163,1.4Z" transform="translate(-16126.256 -21134.398)" fill="#008e45"/><path d="M122.437,338.1c0,.225.735.857,1.94,1.392a1.575,1.575,0,0,0,1.223.012l-3.163-1.4Z" transform="translate(-16126.256 -21134.596)" fill="#00682e"/><path d="M116.085,340.379c0-.021-.073,0-.095,0,0,0-.314-.026-.373-.041a.04.04,0,1,0-.019.077,3.3,3.3,0,0,0,.45.018.055.055,0,0,0,.037-.057Z" transform="translate(-16120.985 -21136.313)" fill="#5e4400" fill-rule="evenodd"/><path d="M120.871,338.787a1.575,1.575,0,0,0-1.134-.46,3.754,3.754,0,0,0-2.326.538l3.46-.078Z" transform="translate(-16122.399 -21134.768)" fill="#008e45"/><path d="M117.411,340.382a3.758,3.758,0,0,0,2.348.433,1.574,1.574,0,0,0,1.112-.511l-3.46.078Z" transform="translate(-16122.399 -21136.285)" fill="#00682e"/><path d="M139.306,333.29c-.011-.019-.07.022-.089.033a.466.466,0,0,1-.141.039.04.04,0,0,0,0,.08.582.582,0,0,0,.209-.085.056.056,0,0,0,.017-.067Z" transform="translate(-16138.995 -21130.9)" fill="#5e4400" fill-rule="evenodd"/><path d="M143.127,328a1.577,1.577,0,0,0-1.222-.08c-1.241.444-2.024,1.019-2.038,1.242l3.26-1.162Z" transform="translate(-16139.63 -21126.715)" fill="#00682e"/><path d="M139.867,329.716a3.744,3.744,0,0,0,2.365-.328,1.573,1.573,0,0,0,.894-.834l-3.26,1.162Z" transform="translate(-16139.63 -21127.27)" fill="#008e45"/><path d="M135.97,334.542c.008-.021-.06-.036-.082-.042h0a.515.515,0,0,1-.118-.074h0a.046.046,0,0,0-.058,0h0a.033.033,0,0,0-.006.052h0a.613.613,0,0,0,.2.092h0a.068.068,0,0,0,.067-.028Z" transform="translate(-16136.429 -21131.768)" fill="#5e4400" fill-rule="evenodd"/><path d="M139.243,336.859a1.76,1.76,0,0,0-.568-1.184h0a2.912,2.912,0,0,0-2.2-.905h0a11.277,11.277,0,0,1,2.771,2.089Z" transform="translate(-16137.024 -21132.012)" fill="#008e45"/><path d="M136.468,334.882c-.033.211.581.8,1.624,1.686h0a1.691,1.691,0,0,0,1.147.4,11.277,11.277,0,0,0-2.771-2.089Z" transform="translate(-16137.021 -21132.125)" fill="#00682e"/><path d="M139.253,336.956c-.2-.2-.386-.376-.586-.554h0c-.244-.216-.482-.411-.732-.6h0c-.293-.221-.578-.414-.881-.6h0c-.2-.122-.462-.267-.541-.31" transform="translate(-16137.057 -21132.133)" fill="#00682e"/><path d="M113.253,342.516a1.763,1.763,0,0,0-1.272-.324h0c-1.345.244-2.064.871-2.11,1.1h0a11.334,11.334,0,0,1,3.381-.78Z" transform="translate(-16116.615 -21137.719)" fill="#008e45"/><path d="M109.872,344.43c.141.161.99.072,2.336-.161h0a1.687,1.687,0,0,0,1.045-.62,11.322,11.322,0,0,0-3.381.781Z" transform="translate(-16116.615 -21138.852)" fill="#00682e"/><path d="M113.247,343.66c-.276.023-.537.053-.8.093h0c-.322.047-.624.1-.931.175h0c-.357.083-.688.177-1.027.29h0c-.223.075-.5.182-.584.215" transform="translate(-16116.64 -21138.859)" fill="none"/><path d="M130.286,332.317c-.024.006-.069.074-.085.1h0a1.575,1.575,0,0,1-.154.149h0c-.029.024-.044.042-.024.051h0a.1.1,0,0,0,.077-.027h0a1.37,1.37,0,0,0,.207-.229h0c.013-.023,0-.044-.021-.041Z" transform="translate(-16132.07 -21130.156)" fill="#5e4400" fill-rule="evenodd"/><path d="M129.485,323.1c.285-.1,1.6-1.026.928-2.2h0a2.03,2.03,0,0,0-1.373-.718h0c1.462.679,1.521,1.723.444,2.915Z" transform="translate(-16131.323 -21120.852)" fill="#008e45"/><path d="M129.2,320.263a2.57,2.57,0,0,1,.754.507h0a1.27,1.27,0,0,1,.38.744h0a1.607,1.607,0,0,1-.243,1h0a4.575,4.575,0,0,1-.476.64" transform="translate(-16131.441 -21120.908)" fill="#00682e"/><path d="M95.593,346.316c-.2.216-1.525,1.027-2.31-.018h0a1.959,1.959,0,0,1-.113-1.494h0c.044,1.558.95,2.011,2.423,1.511Z" transform="translate(-16103.722 -21139.738)" fill="#008e45"/><path d="M93.513,344.968a2.474,2.474,0,0,0,.163.864h0a1.227,1.227,0,0,0,.517.623h0a1.558,1.558,0,0,0,.98.166h0a4.475,4.475,0,0,0,.752-.177" transform="translate(-16104.063 -21139.863)" fill="#00682e"/><path d="M141.027,334.451c-.03,0-.077-.05-.094-.067h0a1.188,1.188,0,0,0-.162-.094h0c-.018-.009-.045-.027-.027-.042h0c.017-.015.045-.011.075,0h0a.956.956,0,0,1,.221.155h0a.027.027,0,0,1-.013.047Z" transform="translate(-16140.298 -21131.631)" fill="#5e4400" fill-rule="evenodd"/><path d="M142.228,337.8s.095-.428.206-1.01h0a1.709,1.709,0,0,0-.394-1.329h0c-.234-.342-.39-.548-.353-.621h0c1.2.814,1.614,1.7.542,2.961Z" transform="translate(-16141.021 -21132.094)" fill="#00682e"/><path d="M141.7,334.841a1.878,1.878,0,0,1,.877.4h0a1.431,1.431,0,0,1,.636,1.383h0a1.972,1.972,0,0,1-.971,1.174h0c1.072-1.256.655-2.146-.542-2.961Z" transform="translate(-16141.039 -21132.094)" fill="#008e45"/><path d="M142.3,337.792a2.681,2.681,0,0,0,.481-.765h0a1.329,1.329,0,0,0,.063-.829h0a1.872,1.872,0,0,0-.534-.867h0a4.812,4.812,0,0,0-.57-.463" transform="translate(-16141.065 -21132.115)" fill="none"/><path d="M152.6,339.494c-.029,0-.072-.057-.087-.074h0a.982.982,0,0,0-.153-.109h0c-.019-.01-.043-.031-.024-.045h0a.079.079,0,0,1,.075.008h0a1,1,0,0,1,.205.175h0a.028.028,0,0,1-.017.045Z" transform="translate(-16149.194 -21135.484)" fill="#5e4400" fill-rule="evenodd"/><path d="M153.494,342.932s.134-.418.3-.988h0a1.709,1.709,0,0,0-.272-1.36h0c-.2-.363-.338-.581-.3-.651h0c1.118.92,1.453,1.844.271,3Z" transform="translate(-16149.872 -21136.002)" fill="#00682e"/><path d="M153.249,339.934a1.879,1.879,0,0,1,.837.482h0a1.43,1.43,0,0,1,.508,1.435h0a1.973,1.973,0,0,1-1.074,1.081h0c1.183-1.154.848-2.078-.271-3Z" transform="translate(-16149.897 -21136.002)" fill="#008e45"/><path d="M153.575,342.93a2.682,2.682,0,0,0,.548-.719h0a1.335,1.335,0,0,0,.139-.82h0a1.87,1.87,0,0,0-.454-.911h0a4.764,4.764,0,0,0-.525-.512" transform="translate(-16149.924 -21136.027)" fill="none"/><path d="M119.222,336.525c-.021,0,0,.073,0,.094a.53.53,0,0,1-.014.145.04.04,0,0,0,.077.023.628.628,0,0,0-.006-.224.054.054,0,0,0-.057-.039Z" transform="translate(-16123.777 -21133.385)" fill="#5e4400" fill-rule="evenodd"/><path d="M117.989,322.054a1.571,1.571,0,0,0-.506,1.113,3.743,3.743,0,0,0,.443,2.345l.064-3.458Z" transform="translate(-16122.453 -21122.281)" fill="#00682e"/><path d="M119.391,325.512a3.759,3.759,0,0,0,.528-2.327,1.572,1.572,0,0,0-.464-1.131l-.064,3.458Z" transform="translate(-16123.919 -21122.281)" fill="#008e45"/><path d="M107.208,349.41c-.01-.02-.072.014-.092.024a.574.574,0,0,1-.144.022.04.04,0,0,0-.042.038.041.041,0,0,0,.038.042.608.608,0,0,0,.215-.061.057.057,0,0,0,.024-.065Z" transform="translate(-16114.357 -21143.268)" fill="#5e4400" fill-rule="evenodd"/><path d="M111.145,345.375a1.571,1.571,0,0,0-1.2-.214c-1.283.3-2.125.79-2.163,1.01l3.367-.8Z" transform="translate(-16115.008 -21139.98)" fill="#008e45"/><path d="M107.778,347.011a3.755,3.755,0,0,0,2.388-.065,1.575,1.575,0,0,0,.98-.731l-3.367.8Z" transform="translate(-16115.008 -21140.82)" fill="#00682e"/><path d="M120.942,335.336c.016.013-.034.061-.05.078h0s-.132.237-.148.291h0a.045.045,0,0,1-.051.03h0a.035.035,0,0,1-.032-.042h0a2.82,2.82,0,0,1,.208-.348h0a.068.068,0,0,1,.072-.009Z" transform="translate(-16124.894 -21132.469)" fill="#5e4400" fill-rule="evenodd"/><path d="M122.88,321.848a1.757,1.757,0,0,1,.113,1.307h0c-.461,1.285-1.2,1.893-1.436,1.9h0a11.243,11.243,0,0,0,1.322-3.206Z" transform="translate(-16125.581 -21122.123)" fill="#008e45"/><path d="M121.429,325.054c-.136-.164.091-.988.54-2.277h0a1.686,1.686,0,0,1,.783-.929h0a11.244,11.244,0,0,1-1.322,3.206Z" transform="translate(-16125.453 -21122.123)" fill="#00682e"/><path d="M122.9,321.977c-.068.268-.139.52-.222.775h0c-.1.31-.2.6-.324.889h0c-.14.338-.286.65-.454.964h0c-.112.208-.261.465-.307.541" transform="translate(-16125.605 -21122.223)" fill="none"/><path d="M156.22,339.9a1.412,1.412,0,0,0-.807-.747,3.376,3.376,0,0,0-2.13-.287l2.937,1.034Z" transform="translate(-16149.924 -21135.121)" fill="#00682e"/><path d="M153.283,339.127c.013.2.72.717,1.839,1.11a1.415,1.415,0,0,0,1.1-.076l-2.937-1.034Z" transform="translate(-16149.924 -21135.383)" fill="#008e45"/><path d="M147.159,337.223c.013-.014-.035-.056-.05-.069a.484.484,0,0,1-.067-.114.035.035,0,0,0-.045-.022.037.037,0,0,0-.023.045.538.538,0,0,0,.124.16.049.049,0,0,0,.061,0Z" transform="translate(-16145.082 -21133.764)" fill="#5e4400" fill-rule="evenodd"/><path d="M149.272,340.225a1.417,1.417,0,0,0-.221-1.078c-.68-.971-1.366-1.513-1.563-1.473l1.784,2.552Z" transform="translate(-16145.478 -21134.266)" fill="#008e45"/><path d="M147.414,337.68c-.107.172.167,1,.846,1.974a1.414,1.414,0,0,0,.938.578l-1.784-2.552Z" transform="translate(-16145.403 -21134.271)" fill="#00682e"/><path d="M153.751,339.116c.005-.016-.049-.029-.067-.034h0a.414.414,0,0,1-.1-.059h0a.036.036,0,0,0-.048,0h0a.027.027,0,0,0,0,.041h0a.5.5,0,0,0,.16.074h0a.056.056,0,0,0,.055-.022Z" transform="translate(-16150.112 -21135.295)" fill="#5e4400" fill-rule="evenodd"/><path d="M156.4,341a1.424,1.424,0,0,0-.458-.959h0c-.852-.707-1.615-.829-1.783-.735h0A9.181,9.181,0,0,1,156.4,341Z" transform="translate(-16150.599 -21135.496)" fill="#008e45"/><path d="M154.158,339.393c-.027.17.469.652,1.313,1.367h0a1.364,1.364,0,0,0,.928.327,9.179,9.179,0,0,0-2.241-1.694Z" transform="translate(-16150.595 -21135.588)" fill="#00682e"/><path d="M156.407,341.076c-.158-.159-.312-.306-.474-.451h0c-.2-.175-.389-.333-.592-.486h0a8.612,8.612,0,0,0-.713-.487h0c-.163-.1-.374-.218-.438-.252" transform="translate(-16150.62 -21135.592)" fill="none"/><path d="M134.53,325.506a1.413,1.413,0,0,0-1.087.173c-1,.636-1.572,1.3-1.541,1.5l2.628-1.671Z" transform="translate(-16133.518 -21124.9)" fill="#00682e"/><path d="M131.906,327.313c.167.113,1.009-.124,2.011-.76a1.411,1.411,0,0,0,.617-.91l-2.628,1.671Z" transform="translate(-16133.521 -21125.035)" fill="#008e45"/><path d="M154.032,335.062a1.416,1.416,0,0,0-1.039-.363,3.387,3.387,0,0,0-2.067.588l3.107-.225Z" transform="translate(-16148.114 -21131.982)" fill="#00682e"/><path d="M150.925,336.5a3.384,3.384,0,0,0,2.131.283,1.411,1.411,0,0,0,.975-.508l-3.107.225Z" transform="translate(-16148.114 -21133.189)" fill="#008e45"/><path d="M104,349.066c.02-.007.038.059.044.08h0s.141.229.181.268h0a.045.045,0,0,1,0,.058h0a.034.034,0,0,1-.051.006h0a2.562,2.562,0,0,1-.2-.346h0a.069.069,0,0,1,.025-.066Z" transform="translate(-16112.087 -21143.008)" fill="#5e4400" fill-rule="evenodd"/><path d="M94.97,337.93a1.741,1.741,0,0,1,1.187.53h0c.891,1.017,1.064,1.944.956,2.154h0a11.152,11.152,0,0,0-2.142-2.684Z" transform="translate(-16105.181 -21134.463)" fill="#008e45"/><path d="M97.109,340.614c-.208.039-.812-.553-1.713-1.562h0a1.667,1.667,0,0,1-.429-1.122h0a11.143,11.143,0,0,1,2.142,2.684Z" transform="translate(-16105.178 -21134.463)" fill="#00682e"/><path d="M95.066,338.014c.2.189.383.371.565.565h0c.22.235.419.465.614.708h0a10.443,10.443,0,0,1,.616.856h0c.127.2.278.45.321.526" transform="translate(-16105.255 -21134.529)" fill="none"/><path d="M111.475,345.3c-.019.022-.089.019-.113.019h0a1.283,1.283,0,0,0-.181.049h0c-.019.007-.052.013-.049-.01h0c0-.023.025-.04.055-.053h0a1,1,0,0,1,.266-.047h0a.027.027,0,0,1,.023.042Z" transform="translate(-16117.582 -21140.09)" fill="#5e4400" fill-rule="evenodd"/><path d="M114.677,346.837s-.237-.369-.571-.858h0a1.714,1.714,0,0,0-1.221-.658h0c-.408-.074-.664-.109-.69-.187h0c1.422-.273,2.347.057,2.483,1.7Z" transform="translate(-16118.396 -21139.926)" fill="#00682e"/><path d="M112.194,344.236a1.889,1.889,0,0,1,.906-.337h0a1.432,1.432,0,0,1,1.43.524h0a1.972,1.972,0,0,1,.148,1.516h0c-.136-1.645-1.06-1.976-2.483-1.7Z" transform="translate(-16118.396 -21139.027)" fill="#008e45"/><path d="M114.709,346.821a2.66,2.66,0,0,0-.205-.88h0a1.331,1.331,0,0,0-.543-.629h0a1.861,1.861,0,0,0-.99-.232h0a4.615,4.615,0,0,0-.731.078" transform="translate(-16118.432 -21139.949)" fill="none"/><path d="M114.692,336.077a.525.525,0,1,1-1.014-.225c.087-.393.385-.662.666-.6s.436.431.349.824Z" transform="translate(-16119.518 -21132.402)" fill="#006925"/><path d="M149.985,336.383a.42.42,0,1,1,.425-.715c.277.165.406.459.289.656a.523.523,0,0,1-.715.059Z" transform="translate(-16147.192 -21132.66)" fill="#006925"/><path d="M112.256,341.582c.021.007-.007.07-.016.091h0s-.034.269-.029.326h0a.044.044,0,0,1-.035.045h0a.033.033,0,0,1-.045-.026h0a2.918,2.918,0,0,1,.063-.4h0a.071.071,0,0,1,.063-.035Z" transform="translate(-16118.347 -21137.266)" fill="#5e4400" fill-rule="evenodd"/><path d="M112.522,327.049a1.76,1.76,0,0,1,.593,1.171h0a2.9,2.9,0,0,1-.625,2.3h0a11.282,11.282,0,0,0,.032-3.467Z" transform="translate(-16118.624 -21126.115)" fill="#008e45"/><path d="M111.34,330.516c-.188-.1-.284-.95-.348-2.314h0a1.682,1.682,0,0,1,.38-1.153h0a11.283,11.283,0,0,1-.032,3.467Z" transform="translate(-16117.474 -21126.115)" fill="#00682e"/><path d="M112.536,327.178c.036.275.064.535.082.8h0c.023.325.033.631.029.946h0a10.364,10.364,0,0,1-.062,1.063h0c-.025.235-.069.529-.084.617" transform="translate(-16118.633 -21126.215)" fill="none"/><path d="M108.243,346.623a.523.523,0,0,1-.678-.412c-.048-.283.108-.545.506-.612s.76.108.807.391-.237.566-.634.633Z" transform="translate(-16114.838 -21140.336)" fill="#006925"/><path d="M106.784,348.435c0,.021-.03.05-.068.053,0,0-.23.141-.274.182a.04.04,0,1,1-.054-.06,3.353,3.353,0,0,1,.343-.216.04.04,0,0,1,.053.04Z" transform="translate(-16113.932 -21142.492)" fill="#5e4400" fill-rule="evenodd"/><path d="M114.794,340.009c.012.019,0,.059-.031.08a3.277,3.277,0,0,0-.148.3.041.041,0,0,1-.05.027.04.04,0,0,1-.026-.051,3.341,3.341,0,0,1,.189-.359.041.041,0,0,1,.066.008Z" transform="translate(-16120.194 -21136.043)" fill="#5e4400" fill-rule="evenodd"/><path d="M125.039,333.762c-.019-.01-.053.052-.065.071,0,0-.237.207-.288.238a.042.042,0,0,0-.014.056.04.04,0,0,0,.055.013,3.712,3.712,0,0,0,.328-.31.058.058,0,0,0-.015-.067Z" transform="translate(-16127.967 -21131.264)" fill="#5e4400" fill-rule="evenodd"/><path d="M128.408,323.236a1.57,1.57,0,0,0-1.12.492c-.9.966-1.324,1.838-1.234,2.043l2.354-2.536Z" transform="translate(-16129.022 -21123.189)" fill="#00682e"/><path d="M126.093,325.773c.211.075,1.049-.418,1.946-1.383a1.57,1.57,0,0,0,.408-1.152l-2.354,2.536Z" transform="translate(-16129.062 -21123.189)" fill="#008e45"/><path d="M146.76,335.39c-.01-.017-.064.016-.081.026a.488.488,0,0,1-.128.028.036.036,0,1,0,0,.071.523.523,0,0,0,.191-.067.052.052,0,0,0,.018-.059Z" transform="translate(-16144.731 -21132.512)" fill="#5e4400" fill-rule="evenodd"/><path d="M150.25,331.128a1.415,1.415,0,0,0-1.094-.126c-1.136.343-1.865.827-1.888,1.028l2.982-.9Z" transform="translate(-16145.309 -21129.104)" fill="#00682e"/><path d="M147.268,332.637a3.385,3.385,0,0,0,2.141-.192,1.415,1.415,0,0,0,.841-.711l-2.982.9Z" transform="translate(-16145.309 -21129.711)" fill="#008e45"/><path d="M103.174,350.275c.027.006-.01.07-.021.09h0a2.53,2.53,0,0,0-.036.325h0c0,.021-.018.042-.047.047h0c-.03,0-.056-.005-.06-.027h0a2.09,2.09,0,0,1,.081-.4h0a.1.1,0,0,1,.083-.035Z" transform="translate(-16111.349 -21143.936)" fill="#5e4400" fill-rule="evenodd"/><path d="M103.5,335.737a1.747,1.747,0,0,1,.8,1.174h0a2.457,2.457,0,0,1-.818,2.294h0a8.5,8.5,0,0,0,.022-3.468Z" transform="translate(-16111.709 -21132.781)" fill="#008e45"/><path d="M101.9,339.205c-.251-.1-.383-.952-.475-2.317h0a1.458,1.458,0,0,1,.5-1.151h0a8.5,8.5,0,0,1-.022,3.468Z" transform="translate(-16110.136 -21132.781)" fill="#00682e"/><path d="M103.521,335.871c.05.274.087.535.114.8h0a8.776,8.776,0,0,1,.045.946h0a8.077,8.077,0,0,1-.076,1.064h0c-.032.233-.089.528-.108.616" transform="translate(-16111.724 -21132.885)" fill="none"/><path d="M146.424,334.817c.01.021-.049.027-.068.03h0a1.943,1.943,0,0,0-.225.133h0a.039.039,0,0,1-.052-.008h0c-.017-.017-.024-.038-.013-.051h0a1.715,1.715,0,0,1,.3-.141h0a.079.079,0,0,1,.063.036Z" transform="translate(-16144.383 -21132.047)" fill="#5e4400" fill-rule="evenodd"/><path d="M149.5,327.848a1.394,1.394,0,0,1-.369,1.073h0a1.966,1.966,0,0,1-1.86.582h0a6.8,6.8,0,0,0,2.229-1.654Z" transform="translate(-16145.313 -21126.729)" fill="#008e45"/><path d="M147.259,329.421c-.054-.209.425-.7,1.253-1.418h0a1.171,1.171,0,0,1,.976-.236h0a6.8,6.8,0,0,1-2.229,1.654Z" transform="translate(-16145.299 -21126.648)" fill="#00682e"/><path d="M149.512,327.929c-.152.164-.3.313-.458.46h0a7.148,7.148,0,0,1-.584.484h0a6.384,6.384,0,0,1-.717.463h0c-.165.092-.38.2-.446.228" transform="translate(-16145.339 -21126.789)" fill="none"/><path d="M134.95,320.2a1.474,1.474,0,0,0-1.179.538c-.765,1.072-1,2.046-.832,2.277l2.011-2.816Z" transform="translate(-16134.274 -21120.859)" fill="#00682e"/><path d="M133.113,323.018c.275.087,1.119-.455,1.885-1.527a1.474,1.474,0,0,0,.125-1.289l-2.011,2.816Z" transform="translate(-16134.447 -21120.861)" fill="#008e45"/><path d="M121.512,334.524c.027.007-.01.07-.021.091h0a2.36,2.36,0,0,0-.035.325h0c0,.02-.019.041-.049.047h0c-.029,0-.055-.006-.06-.027h0a2.2,2.2,0,0,1,.082-.4h0a.1.1,0,0,1,.083-.035Z" transform="translate(-16125.419 -21131.85)" fill="#5e4400" fill-rule="evenodd"/><path d="M121.842,319.99a1.742,1.742,0,0,1,.795,1.175h0a2.455,2.455,0,0,1-.817,2.293h0a8.523,8.523,0,0,0,.022-3.468Z" transform="translate(-16125.782 -21120.699)" fill="#008e45"/><path d="M120.247,323.458c-.251-.1-.383-.952-.475-2.317h0a1.46,1.46,0,0,1,.5-1.151h0a8.522,8.522,0,0,1-.022,3.468Z" transform="translate(-16124.21 -21120.699)" fill="#00682e"/><path d="M121.858,320.117c.05.275.087.535.115.8h0a8.835,8.835,0,0,1,.045.946h0a8.075,8.075,0,0,1-.076,1.064h0c-.032.234-.089.529-.109.616" transform="translate(-16125.792 -21120.797)" fill="none"/><path d="M130.881,332.576a.42.42,0,1,1,.317-.767c.3.123.469.394.382.607a.523.523,0,0,1-.7.16Z" transform="translate(-16132.489 -21129.727)" fill="#006925"/><path d="M124.508,336.314c0-.021-.07,0-.092.006h0a.508.508,0,0,1-.138,0h0a.047.047,0,0,0-.051.03h0c-.007.022,0,.042.021.048h0a.633.633,0,0,0,.218-.022h0a.069.069,0,0,0,.043-.058Z" transform="translate(-16127.627 -21133.217)" fill="#5e4400" fill-rule="evenodd"/><path d="M128.51,335.493a1.763,1.763,0,0,0-1.095-.725h0a2.907,2.907,0,0,0-2.355.35h0a11.309,11.309,0,0,1,3.45.376Z" transform="translate(-16128.269 -21131.988)" fill="#008e45"/><path d="M125.06,336.439c.079.2.911.394,2.26.617h0a1.681,1.681,0,0,0,1.191-.241,11.273,11.273,0,0,0-3.45-.376Z" transform="translate(-16128.269 -21133.309)" fill="#00682e"/><path d="M128.512,336.808c-.267-.068-.523-.126-.788-.177h0c-.319-.061-.623-.107-.936-.141h0c-.364-.039-.708-.06-1.064-.064h0c-.235,0-.534.006-.622.011" transform="translate(-16128.3 -21133.309)" fill="none"/><path d="M52.414,331.512a.308.308,0,0,0,.159.213h0c.108.069.325.1.215.254h0c-.058.075-.169.019-.086.194h0a.258.258,0,0,0,.259.146h0c.078,0,.237-.082.292.027h0c.055.123-.113.178-.13.28h0a.181.181,0,0,0,.233.194h0c.124-.026.194-.154.3-.216h0c.1-.055.259-.072.273.057h0c.006.123-.164.19-.018.292h0c.282.174.436-.3.7-.294h0c.2.02.005.154.113.248h0c.122.1.275-.027.359-.109h0c.044-.043.063-.093.122-.125h0c.051-.027.138-.01.123.059h0c-.027.115.206.106.294-.053h0c.093-.176.077.027.3,0h0c.116-.015.117-.132.192-.182h0c.087-.052.081-.067.179-.084h0c-1.446-.421-2.557-.524-3.884-.9Z" transform="translate(-16072.528 -21129.539)" fill="#00682e"/><path d="M52.414,329.093c.035-.109.143-.107.208-.11h0c.131,0,.456.046.322-.114h0c-.052-.058-.143-.119-.005-.216h0a.362.362,0,0,1,.36.007h0c.08.043.192.181.312.11h0c.128-.083-.005-.2.04-.3h0a.261.261,0,0,1,.367-.065h0c.109.076.09.214.152.311h0a.188.188,0,0,0,.293.059h0c.091-.1-.019-.227.185-.258h0c.383-.04.181.428.411.52h0c.185.063.111-.13.262-.168h0c.167-.036.2.133.219.239h0c.008.054-.009.1.018.157h0a.076.076,0,0,0,.135,0h0c.05-.108.225,0,.2.176h0c-.03.194.077.011.243.141h0c.083.07.021.171.057.251h0c.045.089.031.1.1.165h0c-1.446-.421-2.558-.523-3.883-.906Z" transform="translate(-16072.528 -21127.119)" fill="#008e45"/><path d="M52.414,331.517c.071.027.637.182.733.2h0c.093.022.336.077.418.087h0c.083.012.319.06.392.075h0a2.726,2.726,0,0,0,.616.147h0a4.785,4.785,0,0,1,.569.1h0c.151.014,1.111.3,1.174.314h0c.071.014.055.032.087.042h0a.106.106,0,0,1,.067.061h0a.146.146,0,0,0,.073.073h0c.03.008.05-.032.074-.124h0a.035.035,0,0,0-.039-.045h0c-.051,0-.051-.022-.133-.031h0c-.079-.011-1.147-.305-1.385-.352h0c-.237-.044-.6-.09-.675-.1h0c-.076-.011-.747-.2-.9-.222h0c-.154-.019-1.072-.231-1.072-.231Z" transform="translate(-16072.528 -21129.543)" fill="#5e4400" fill-rule="evenodd"/><path d="M56.034,339.211s-3.638-4.265-6.4-3.88a8.138,8.138,0,0,0-4.267,1.4,1.562,1.562,0,0,1-.154.085c-.324.129-.34.269.034.114.258-.107.539-.234.539-.234a9.62,9.62,0,0,1,4.2-1.083,5,5,0,0,1,3.322,1.433c.735.7,2.224,2.177,2.224,2.177l.5-.009Z" transform="translate(-16066.814 -21132.451)" fill="#aa6b00" fill-rule="evenodd"/><path d="M44.569,341.261a.217.217,0,0,0,.282.021c.1-.061.222-.265.316-.064.048.1-.029.214.149.206.126-.006.187-.125.219-.222s.035-.272.157-.277.1.184.177.237c.121.08.245-.042.284-.152s-.029-.232-.022-.347.085-.244.206-.2.08.2.253.126c.325-.146-.03-.469.127-.658.122-.148.15.063.289.021s.111-.221.077-.321c-.018-.052-.057-.09-.058-.151s.055-.114.108-.067c.087.075.18-.118.075-.256s.058-.049.118-.237c.03-.1-.07-.154-.078-.235s-.024-.094,0-.178l-2.681,2.756Z" transform="translate(-16066.509 -21134.904)" fill="#00682e"/><path d="M43.963,341.025a.218.218,0,0,1-.03-.281c.057-.106.279-.316.056-.319-.083,0-.2.006-.211-.142-.008-.126.119-.19.216-.225s.272-.044.272-.164-.186-.092-.242-.171c-.084-.118.035-.245.144-.288s.233.023.347.012.242-.092.2-.211-.208-.074-.134-.249c.137-.33.471.016.655-.146.145-.127-.068-.148-.029-.289s.217-.117.318-.085c.052.016.091.054.152.054s.112-.059.065-.112c-.078-.084.112-.182.253-.081s.047-.06.234-.125c.1-.033.156.067.238.072s.095.021.178-.006l-2.681,2.756Z" transform="translate(-16065.9 -21134.668)" fill="#008e45"/><path d="M44.576,340.531c.058-.04.456-.45.522-.518s.24-.247.292-.31.221-.238.274-.291a3.026,3.026,0,0,0,.457-.441c.1-.159.3-.3.377-.416s.748-.742.782-.785.047-.03.067-.049a.083.083,0,0,1,.071-.026.1.1,0,0,0,.081-.025c.019-.019-.006-.053-.063-.109a.028.028,0,0,0-.048.01c-.019.039-.037.029-.075.086s-.754.767-.91.936-.387.448-.434.5-.579.528-.674.643-.719.789-.719.789Z" transform="translate(-16066.514 -21134.174)" fill="#5e4400" fill-rule="evenodd"/><path d="M72.006,318.922c-.2.027-.224.137-.241.2-.036.129.029.382-.2.295-.118-.044-.142-.194-.278-.049a.3.3,0,0,0,0,.345c.043.09.182.244.089.34s-.219-.071-.324-.051c-.157.03-.162.221-.108.34s.2.16.285.258.122.259-.005.321-.221-.1-.3.095c-.145.367.387.35.407.62.017.212-.168.066-.247.207s.082.262.187.314c.054.027.115.027.163.075s.044.132-.034.137c-.128.008-.053.232.138.26.211.031-.009.084.09.28.051.1.174.069.245.127s.091.056.136.141v-4.257Z" transform="translate(-16086.709 -21119.879)" fill="#00682e"/><path d="M75.657,318.922c.2.027.224.137.241.2.036.129.023.464.2.295.066-.063.156-.16.278-.049.1.093.052.242,0,.345s-.182.244-.09.34.22-.071.324-.051c.157.03.162.221.108.34s-.2.16-.285.258-.122.259,0,.321.222-.1.3.095c.146.367-.386.35-.407.62-.017.212.168.066.247.207s-.082.262-.187.314c-.054.027-.115.027-.163.075s-.044.132.034.137c.128.008.053.232-.138.26-.212.031.008.084-.09.28-.05.1-.175.069-.244.127s-.092.056-.137.141v-4.257Z" transform="translate(-16090.362 -21119.879)" fill="#008e45"/><path d="M75.288,318.922c-.015.076-.015.709-.015.814s0,.382.007.472.008.359.008.441a3.353,3.353,0,0,0-.023.7,6.143,6.143,0,0,1,.023.621c.024.157-.022,1.167-.015,1.228s-.015.06-.015.09a.093.093,0,0,1-.037.075.114.114,0,0,0-.044.082c0,.03.044.037.135.037a.031.031,0,0,0,.03-.045c-.015-.044.007-.053-.007-.127s.007-1.191,0-1.445-.038-.655-.045-.735.053-.866.037-1.031-.037-1.181-.037-1.181Z" transform="translate(-16089.993 -21119.879)" fill="#5e4400" fill-rule="evenodd"/><path d="M85.11,324.614a.253.253,0,0,0-.317.09c-.089.108-.136.38-.321.2-.094-.093-.054-.247-.246-.166a.318.318,0,0,0-.15.332c0,.1.071.312-.059.365s-.182-.161-.29-.187c-.164-.039-.251.144-.25.281s.127.241.164.37.006.3-.143.307-.17-.193-.328-.037c-.3.292.222.5.127.771-.075.212-.19-.008-.326.094s-.033.286.045.382c.041.049.1.075.124.141s-.014.148-.092.118c-.125-.047-.149.2.022.309.19.119-.044.077-.033.308.005.117.138.14.181.226s.064.093.07.2l1.823-4.1Z" transform="translate(-16095.918 -21124.23)" fill="#00682e"/><path d="M86.385,324.671a.253.253,0,0,1,.146.3c-.02.14-.177.457.068.37.091-.032.219-.087.288.072.059.134-.055.256-.146.333s-.279.157-.232.289.241.026.333.09c.139.1.061.283-.041.374s-.264.068-.384.127-.228.2-.133.31.256,0,.248.219c-.017.415-.522.172-.658.423-.107.2.133.136.148.3.017.188-.191.217-.314.223-.064,0-.122-.023-.188,0s-.1.108-.026.147c.119.061-.049.246-.244.191-.216-.061-.028.084-.207.231-.091.074-.2-.009-.289.017s-.112.015-.192.078l1.824-4.1Z" transform="translate(-16097.194 -21124.289)" fill="#008e45"/><path d="M85.643,324.671c-.047.067-.319.676-.363.777s-.163.367-.194.457-.147.349-.182.427a3.5,3.5,0,0,0-.323.668,6.522,6.522,0,0,1-.245.607c-.044.16-.52,1.113-.54,1.174s-.04.051-.052.08a.1.1,0,0,1-.068.057.12.12,0,0,0-.078.06c-.013.029.027.055.114.094a.032.032,0,0,0,.047-.03c.006-.049.03-.047.047-.126s.518-1.142.62-1.39.243-.645.271-.726.422-.811.478-.976.47-1.153.47-1.153Z" transform="translate(-16096.452 -21124.289)" fill="#5e4400" fill-rule="evenodd"/><path d="M61.85,344.466a.356.356,0,0,0,.34.178h0c.161,0,.392-.158.406.1h0c0,.128-.14.2.07.28h0a.311.311,0,0,0,.343-.135h0c.067-.08.154-.28.28-.244h0c.137.046.028.238.088.329h0c.095.134.263.04.346-.075h0c.09-.13.058-.276.107-.412h0c.046-.121.167-.262.273-.181h0c.1.082,0,.264.2.222h0c.37-.094.139-.559.357-.744h0c.179-.137.121.113.281.111h0c.173-.009.2-.215.2-.342h0a.631.631,0,0,1,0-.19h0c.02-.058.1-.105.142-.035h0c.065.114.241-.052.188-.247h0c-.06-.212.08-.032.242-.195h0c.081-.086,0-.186.023-.272h0c.035-.1.017-.105.09-.173h0c-1.554.432-2.282,1.708-3.978,2.029Z" transform="translate(-16079.769 -21137.922)" fill="#00682e"/><path d="M61.8,343.314a.2.2,0,0,1,.123-.278h0c.133-.069.5-.173.237-.285h0c-.1-.04-.241-.089-.174-.245h0c.059-.13.233-.14.362-.136h0c.109.006.313.063.368-.071h0c.054-.15-.152-.17-.182-.28h0c-.034-.165.141-.26.27-.274h0c.145-.01.225.1.344.127h0a.216.216,0,0,0,.27-.187h0c0-.147-.175-.144-.042-.334h0c.256-.347.438.146.679.02h0c.185-.111-.013-.19.072-.346h0c.1-.166.254-.066.346,0h0c.048.037.073.091.135.113h0c.051.015.135-.022.108-.1h0c-.043-.125.187-.156.3.008h0c.124.185.071-.046.313-.03h0c.126.013.148.136.238.184h0a.521.521,0,0,0,.212.083h0c-1.554.432-2.282,1.708-3.978,2.028Z" transform="translate(-16079.719 -21136.77)" fill="#008e45"/><path d="M61.855,344.067a2.687,2.687,0,0,0,.453-.1h0a3.707,3.707,0,0,0,.429-.16h0c.1-.046.36-.181.439-.233h0c.081-.055.313-.2.384-.248h0a3.334,3.334,0,0,0,.6-.391h0a4.8,4.8,0,0,1,.517-.373h0a3.4,3.4,0,0,1,.592-.32h0a5.656,5.656,0,0,1,.6-.2h0c.072-.027.071,0,.106-.011h0a.146.146,0,0,1,.1.017h0a.2.2,0,0,0,.115.025h0c.032-.009.023-.049-.018-.136h0a.046.046,0,0,0-.066-.019h0c-.047.023-.064,0-.141.037h0a5.563,5.563,0,0,0-.678.229h0a4.984,4.984,0,0,0-.718.39h0c-.217.151-.534.411-.6.467h0c-.069.052-.755.446-.905.542h0a3.649,3.649,0,0,1-.626.311h0a4.067,4.067,0,0,1-.581.169Z" transform="translate(-16079.771 -21137.521)" fill="#5e4400" fill-rule="evenodd"/><path d="M53.556,319.055a.356.356,0,0,0-.166.345h0c.011.161.173.385-.08.408h0c-.128.007-.2-.132-.277.08h0a.313.313,0,0,0,.148.339h0c.082.064.285.143.255.27h0c-.041.139-.238.038-.326.1h0c-.13.1-.03.265.088.344h0c.134.084.278.045.415.09h0c.124.042.268.157.192.267h0c-.079.1-.263.01-.215.208h0c.107.365.564.117.758.329h0c.143.174-.108.126-.1.284h0c.015.173.222.19.35.189h0a.642.642,0,0,1,.188-.008h0c.06.018.109.1.042.141h0c-.113.07.061.239.253.179h0c.21-.069.036.078.2.233h0c.089.078.185-.01.272.013h0c.1.032.107.015.176.084h0c-.49-1.536-1.793-2.214-2.177-3.9Z" transform="translate(-16072.993 -21119.98)" fill="#00682e"/><path d="M55.313,318.992a.2.2,0,0,1,.282.112h0c.074.129.191.488.294.225h0c.037-.1.08-.244.239-.183h0c.132.055.148.228.148.356h0c0,.109-.05.316.087.365h0c.152.048.163-.16.272-.193h0c.164-.04.265.131.284.26h0c.016.144-.095.227-.114.348h0a.216.216,0,0,0,.2.263h0c.146-.009.138-.179.332-.054h0c.357.242-.129.443.006.68h0c.117.18.189-.021.348.057h0c.17.093.076.252.008.347h0c-.034.049-.088.076-.107.138h0c-.014.053.026.135.1.1h0c.124-.049.163.18,0,.3h0c-.181.13.048.068.041.312h0c-.007.126-.13.153-.175.244h0a.522.522,0,0,0-.075.216h0c-.49-1.536-1.793-2.215-2.178-3.9Z" transform="translate(-16074.753 -21119.918)" fill="#008e45"/><path d="M55.313,319.058a2.725,2.725,0,0,0,.114.448h0a4.2,4.2,0,0,0,.177.422h0a4.869,4.869,0,0,0,.251.429h0c.057.079.213.305.262.374h0a3.221,3.221,0,0,0,.412.583h0a4.721,4.721,0,0,1,.394.5h0a3.385,3.385,0,0,1,.342.579h0a5.537,5.537,0,0,1,.22.588h0c.03.07.006.07.015.106h0a.141.141,0,0,1-.013.1h0a.209.209,0,0,0-.02.116h0c.01.031.05.022.135-.023h0a.046.046,0,0,0,.016-.067h0c-.024-.045,0-.063-.042-.14h0a5.532,5.532,0,0,0-.254-.669h0a4.97,4.97,0,0,0-.418-.7h0c-.159-.212-.431-.519-.489-.581h0c-.054-.067-.474-.737-.575-.883h0a3.644,3.644,0,0,1-.335-.613h0a4.139,4.139,0,0,1-.191-.573Z" transform="translate(-16074.753 -21119.982)" fill="#5e4400" fill-rule="evenodd"/><path d="M27.133,343.723a.338.338,0,0,0,.292.217h0c.152.019.391-.09.366.15h0c-.017.121-.161.166.025.273h0a.3.3,0,0,0,.342-.076h0c.074-.065.185-.24.3-.188h0c.122.063-.008.227.034.322h0c.07.14.242.077.337-.02h0c.1-.108.094-.25.16-.37h0c.061-.107.2-.221.283-.13h0c.078.091-.038.247.156.239h0c.36-.034.213-.5.445-.646h0c.188-.1.1.123.247.146h0c.164.017.217-.173.239-.292h0a.588.588,0,0,1,.027-.177h0c.027-.052.111-.084.139-.013h0c.045.118.234-.012.213-.2h0c-.026-.207.08-.019.256-.146h0c.09-.069.025-.175.062-.252h0c.047-.084.033-.1.111-.149h0c-1.523.176-2.394,1.267-4.033,1.318Z" transform="translate(-16053.13 -21137.896)" fill="#00682e"/><path d="M27.123,341.9c-.026-.195.09-.221.156-.242h0c.135-.045.49-.089.264-.233h0c-.084-.052-.213-.118-.127-.255h0c.075-.115.239-.1.36-.074h0c.1.021.285.1.357-.015h0c.072-.133-.119-.182-.13-.289h0c-.008-.159.171-.223.294-.218h0c.137.011.2.13.3.169h0a.2.2,0,0,0,.282-.136h0c.018-.138-.143-.161.01-.319h0c.291-.288.389.2.634.118h0c.19-.076.016-.18.118-.314h0c.117-.14.249-.025.325.056h0c.04.041.055.1.109.125h0c.047.023.131,0,.117-.078h0c-.023-.124.2-.118.28.051h0c.088.193.072-.032.3.018h0c.116.03.119.149.2.207h0a.491.491,0,0,0,.187.11h0c-1.522.176-2.394,1.267-4.033,1.318Z" transform="translate(-16053.119 -21136.074)" fill="#008e45"/><path d="M27.135,343.411a2.628,2.628,0,0,0,.439-.025h0A3.76,3.76,0,0,0,28,343.3h0c.1-.028.364-.117.447-.154h0c.084-.04.323-.143.4-.177h0a3.051,3.051,0,0,0,.621-.277h0a4.526,4.526,0,0,1,.54-.275h0a3.294,3.294,0,0,1,.6-.212h0a3.9,3.9,0,0,1,.567-.084h.03a.366.366,0,0,1,.076.009l.028,0c.034,0,.212-.011.19-.078h0a.126.126,0,0,0-.038-.047L31.433,342c-.047.014-.055.021-.133.042h0a5.125,5.125,0,0,0-.67.114h0a4.582,4.582,0,0,0-.73.262h0c-.226.11-.563.306-.632.349h0c-.072.039-.775.307-.929.375h0a3.543,3.543,0,0,1-.633.2h0a3.97,3.97,0,0,1-.57.073Z" transform="translate(-16053.131 -21137.584)" fill="#5e4400" fill-rule="evenodd"/><path d="M70.292,350.231a.356.356,0,0,0,.212.32h0c.143.073.419.05.309.279h0c-.059.113-.219.107-.074.279h0a.314.314,0,0,0,.367.048h0c.1-.038.269-.171.363-.079h0c.1.106-.09.222-.082.331h0c.02.162.212.161.34.1h0c.141-.071.183-.214.292-.309h0c.1-.084.272-.149.327-.028h0c.045.119-.127.232.068.292h0c.369.1.391-.423.672-.48h0c.223-.033.052.157.193.233h0c.156.076.277-.093.341-.2h0c.033-.057.039-.116.091-.166h0c.044-.042.139-.043.141.037h0c0,.133.236.071.284-.125h0c.049-.215.086.009.306-.054h0c.113-.036.086-.164.15-.227h0c.078-.065.067-.083.164-.107h0c-1.57-.371-2.823.4-4.464-.14Z" transform="translate(-16086.245 -21143.902)" fill="#00682e"/><path d="M70.292,346.947c.045-.2.169-.187.241-.185h0c.149,0,.518.088.345-.136h0c-.065-.081-.168-.194-.034-.3h0c.115-.086.271-.01.382.055h0c.093.057.245.206.357.114h0c.119-.105-.052-.223-.025-.333h0c.049-.161.249-.16.369-.11h0c.132.061.147.2.24.277h0a.216.216,0,0,0,.327-.035h0c.067-.13-.084-.21.124-.312h0c.392-.181.313.338.585.343h0c.215-.007.081-.172.229-.267h0c.166-.1.255.064.3.17h0c.024.055.019.114.064.164h0a.083.083,0,0,0,.144-.036h0c.022-.131.238-.046.259.152h0c.019.221.084-.007.288.125h0c.1.071.065.19.12.274h0c.068.1.056.1.147.176h0c-1.571-.37-2.824.4-4.464-.139Z" transform="translate(-16086.245 -21140.615)" fill="#008e45"/><path d="M70.292,350.2a2.837,2.837,0,0,0,.444.133h0a3.782,3.782,0,0,0,.453.065h0c.111.01.4.015.5.008h0c.1-.01.371-.025.457-.033h0a3.213,3.213,0,0,0,.713-.053h0a4.829,4.829,0,0,1,.634-.079h0a3.411,3.411,0,0,1,.672.005h0a5.747,5.747,0,0,1,.619.115h0c.076.01.064.032.1.041h0a.147.147,0,0,1,.08.063h0a.205.205,0,0,0,.089.077h0c.033.008.044-.031.049-.127h0a.046.046,0,0,0-.049-.049h0c-.052,0-.057-.029-.141-.036h0a5.461,5.461,0,0,0-.7-.127h0a4.9,4.9,0,0,0-.816,0h0c-.264.027-.667.1-.751.119h0c-.084.013-.877.027-1.054.038h0a3.659,3.659,0,0,1-.7-.029h0a4.336,4.336,0,0,1-.59-.132Z" transform="translate(-16086.245 -21143.867)" fill="#5e4400" fill-rule="evenodd"/><path d="M60.952,340.673a.308.308,0,0,0,.244.1h0c.127.005.333-.073.313.113h0c-.013.094-.137.1.023.211h0a.26.26,0,0,0,.3,0h0c.065-.043.164-.19.266-.123h0c.108.08-.009.211.027.307h0a.182.182,0,0,0,.3.052h0c.095-.084.091-.229.155-.338h0c.059-.1.188-.191.265-.088h0c.067.1-.047.246.13.262h0c.331.01.226-.482.458-.6h0c.188-.087.081.129.223.157h0c.155.024.224-.159.256-.274h0a.551.551,0,0,1,.043-.169h0c.031-.049.114-.078.135-.01h0c.034.113.232-.011.228-.194h0c-.008-.2.081-.015.263-.148h0c.093-.071.035-.173.075-.253h0c.05-.088.037-.1.114-.161h0c-1.464.358-2.477.823-3.817,1.156Z" transform="translate(-16079.079 -21135.682)" fill="#00682e"/><path d="M60.941,338.912c-.023-.112.071-.165.125-.2h0c.112-.069.418-.189.221-.259h0c-.074-.025-.183-.033-.111-.186h0a.362.362,0,0,1,.315-.175h0c.091,0,.257.061.325-.059h0c.07-.136-.107-.174-.115-.279h0a.261.261,0,0,1,.285-.239h0c.132.01.184.139.286.192h0a.188.188,0,0,0,.283-.1h0c.026-.135-.131-.187.032-.316h0c.31-.224.37.281.616.246h0c.193-.038.032-.169.144-.276h0c.126-.114.243.013.308.1h0c.035.041.044.094.095.127h0a.076.076,0,0,0,.118-.066h0c-.012-.119.2-.111.261.052h0c.07.182.071-.028.28,0h0c.107.019.1.138.175.189h0c.083.055.076.068.174.09h0c-1.464.357-2.477.824-3.817,1.156Z" transform="translate(-16079.068 -21133.92)" fill="#008e45"/><path d="M60.953,340.272c.075-.012.643-.161.737-.189h0c.091-.027.33-.1.406-.133h0c.078-.032.305-.108.376-.131h0a2.821,2.821,0,0,0,.607-.181h0a4.733,4.733,0,0,1,.543-.2h0c.139-.063,1.112-.3,1.174-.314h0c.068-.025.064,0,.1-.007h0a.107.107,0,0,1,.088.019h0a.14.14,0,0,0,.1.026h0c.03-.007.028-.052,0-.144h0a.034.034,0,0,0-.056-.018h0c-.044.026-.056.005-.13.038h0c-.074.03-1.147.31-1.375.388h0c-.229.081-.566.222-.635.253h0c-.071.029-.747.2-.89.257h0c-.142.06-1.043.335-1.043.335Z" transform="translate(-16079.08 -21135.279)" fill="#5e4400" fill-rule="evenodd"/><path d="M32.35,335.626a.286.286,0,0,0,.155.2h0c.1.064.31.093.207.24h0c-.054.071-.16.02-.077.184h0a.242.242,0,0,0,.248.135h0c.075-.005.224-.081.278.021h0c.053.116-.105.172-.12.269h0a.173.173,0,0,0,.225.181h0c.117-.026.181-.149.285-.21h0c.1-.054.245-.072.261.05h0c.008.116-.154.182-.013.278h0c.27.16.41-.3.659-.29h0c.2.016.008.146.111.234h0c.118.092.26-.029.34-.109h0c.042-.04.058-.088.114-.121h0c.048-.026.131-.01.117.056h0c-.024.108.2.1.279-.056h0c.085-.169.074.024.287,0h0c.11-.016.109-.127.18-.175h0c.082-.05.075-.064.169-.082h0c-1.38-.379-2.436-.461-3.7-.8Z" transform="translate(-16057.133 -21132.697)" fill="#00682e"/><path d="M32.35,333.262c.032-.1.135-.1.2-.106h0c.124-.006.434.037.3-.113h0c-.049-.055-.137-.112-.006-.206h0a.342.342,0,0,1,.342,0h0c.076.039.185.168.3.1h0c.12-.081-.008-.194.034-.286h0a.246.246,0,0,1,.347-.066h0c.1.07.088.2.149.292h0a.178.178,0,0,0,.279.051h0c.085-.1-.022-.215.172-.247h0c.362-.044.177.4.4.488h0c.178.057.1-.125.246-.163h0c.158-.035.2.124.212.224h0c.008.051-.007.1.019.149h0a.073.073,0,0,0,.129,0h0c.045-.1.213,0,.192.164h0c-.027.183.072.009.232.13h0c.081.065.023.162.058.237h0c.043.084.031.092.1.156h0c-1.38-.38-2.436-.46-3.7-.8Z" transform="translate(-16057.133 -21130.33)" fill="#008e45"/><path d="M32.35,335.631c.068.025.608.164.7.185h0c.088.019.321.068.4.078h0c.079.009.3.051.372.064h0a2.674,2.674,0,0,0,.588.13h0a4.491,4.491,0,0,1,.543.086h0c.144.011,1.06.268,1.119.282h0c.069.012.054.03.084.038h0a.1.1,0,0,1,.064.057h0a.135.135,0,0,0,.071.068h0c.028.008.111.035.133-.054l.027-.048a.223.223,0,0,0-.129-.059h0c-.048,0-.049-.021-.126-.027h0c-.076-.01-1.095-.273-1.321-.314h0c-.226-.039-.572-.078-.643-.083h0c-.072-.009-.712-.18-.858-.2h0c-.146-.016-1.021-.2-1.021-.2Z" transform="translate(-16057.133 -21132.701)" fill="#5e4400" fill-rule="evenodd"/><path d="M53.271,339.555a.309.309,0,0,0,.265.022h0c.123-.035.293-.175.332.009h0c.019.092-.1.138.089.192h0a.259.259,0,0,0,.282-.1h0c.049-.061.1-.231.214-.2h0c.128.04.058.2.123.283h0a.181.181,0,0,0,.3-.045h0c.063-.111.013-.246.04-.37h0c.026-.112.118-.242.223-.168h0c.1.077.034.25.206.208h0c.317-.1.061-.528.243-.716h0c.151-.14.119.1.261.079h0c.155-.027.162-.222.157-.341h0a.551.551,0,0,1-.013-.174h0c.014-.056.084-.11.126-.052h0c.068.1.217-.084.155-.255h0c-.07-.186.072-.041.2-.223h0c.066-.1-.022-.176-.008-.264h0c.019-.1,0-.1.055-.19h0c-1.275.8-2.089,1.563-3.255,2.3Z" transform="translate(-16073.186 -21133.943)" fill="#00682e"/><path d="M53.2,339.044c-.058-.1.016-.178.056-.229h0c.084-.1.337-.31.127-.315h0c-.077,0-.184.027-.164-.141h0a.36.36,0,0,1,.243-.265h0c.085-.032.262-.024.29-.16h0c.023-.151-.157-.131-.2-.229h0a.259.259,0,0,1,.194-.316h0c.129-.032.219.074.333.092h0c.1.014.249-.035.238-.181h0c-.018-.137-.183-.135-.07-.309h0c.224-.312.44.149.663.039h0c.17-.1-.024-.17.048-.308h0c.084-.148.235-.064.324-.005h0c.046.03.072.075.13.091h0c.049.011.12-.033.091-.1h0c-.048-.109.15-.167.265-.032h0c.124.151.058-.05.266-.088h0c.108-.016.142.1.225.123h0a.369.369,0,0,0,.194.031h0c-1.275.8-2.089,1.565-3.255,2.3Z" transform="translate(-16073.117 -21133.432)" fill="#008e45"/><path d="M53.274,338.874c.067-.035.559-.356.639-.412h0c.078-.055.281-.2.343-.255h0c.064-.055.256-.2.316-.243h0a2.764,2.764,0,0,0,.518-.364h0a4.938,4.938,0,0,1,.452-.36h0c.112-.1.962-.632,1.014-.669h0c.058-.044.061-.02.09-.037h0a.1.1,0,0,1,.089-.009h0a.146.146,0,0,0,.1-.006h0c.026-.017.01-.059-.044-.138h0a.034.034,0,0,0-.059,0h0c-.034.038-.051.023-.111.079h0c-.062.051-.989.656-1.182.8h0c-.191.148-.466.389-.522.44h0c-.058.05-.646.425-.763.526h0c-.117.1-.885.647-.885.648Z" transform="translate(-16073.188 -21133.262)" fill="#5e4400" fill-rule="evenodd"/><path d="M41.295,326.523a.355.355,0,0,1,.336-.185h0c.161,0,.395.152.4-.1h0c0-.128-.143-.2.066-.282h0a.312.312,0,0,1,.346.13h0c.068.078.158.276.284.239h0c.137-.048.025-.238.082-.33h0c.094-.135.263-.043.348.07h0c.092.128.062.276.113.409h0c.048.121.171.259.276.178h0c.095-.084,0-.265.2-.226h0c.371.088.148.557.37.738h0c.181.134.12-.115.279-.115h0c.174,0,.2.211.207.338h0a.629.629,0,0,0,0,.189h0c.02.058.1.1.142.034h0c.064-.116.242.048.193.243h0c-.058.214.08.032.244.191h0c.084.084,0,.185.028.272h0c.038.094.02.1.094.171h0c-1.562-.406-2.311-1.67-4.012-1.962Z" transform="translate(-16063.996 -21125.254)" fill="#008e45"/><path d="M41.252,328.485a.2.2,0,0,0,.127.275h0c.134.067.5.164.241.281h0c-.1.042-.239.093-.17.248h0c.062.129.235.136.364.129h0c.11-.007.312-.067.37.066h0c.056.149-.15.172-.177.282h0c-.032.166.145.258.274.27h0c.145.009.223-.106.342-.132h0a.215.215,0,0,1,.273.183h0c0,.147-.172.147-.037.334h0c.261.343.436-.153.679-.031h0c.187.108-.01.191.077.345h0c.1.164.256.062.346-.01h0c.047-.037.071-.092.133-.114h0c.052-.017.136.019.11.1h0c-.042.126.189.153.3-.013h0c.121-.188.071.044.313.025h0c.126-.014.146-.138.235-.187h0a.514.514,0,0,1,.212-.088h0c-1.562-.405-2.311-1.67-4.011-1.961Z" transform="translate(-16063.951 -21127.217)" fill="#00682e"/><path d="M41.3,328.485a2.7,2.7,0,0,1,.454.089h0a4,4,0,0,1,.431.153h0c.1.045.362.176.442.227h0c.082.053.317.2.387.242h0a3.184,3.184,0,0,1,.606.379h0a4.723,4.723,0,0,0,.524.366h0a3.417,3.417,0,0,0,.6.31h0a5.738,5.738,0,0,0,.6.188h0c.072.026.071,0,.106.009h0c.034.007.043-.023.1-.043s.071.008.071.008c.032.008.012.083-.018.095a.175.175,0,0,1-.157.017h0a5.551,5.551,0,0,1-.683-.218h0a4.914,4.914,0,0,1-.722-.378h0c-.221-.147-.542-.4-.607-.457h0c-.069-.051-.763-.433-.914-.526h0a3.635,3.635,0,0,0-.63-.3h0a4.132,4.132,0,0,0-.584-.159Z" transform="translate(-16064 -21127.217)" fill="#5e4400" fill-rule="evenodd"/><path d="M64.852,321.083a.355.355,0,0,1,.384,0h0c.141.078.277.319.4.1h0c.061-.112-.034-.24.19-.217h0c.157.022.215.157.244.277h0c.024.1.01.318.139.344h0c.142.021.134-.2.228-.254h0c.146-.075.253.086.274.226h0c.021.156-.076.271-.093.414h0c-.015.129.029.309.16.286h0c.124-.029.122-.235.28-.107h0c.286.253-.131.561-.022.826h0c.1.2.161-.047.3.028h0c.151.087.077.281.023.4h0c-.028.06-.075.1-.087.169h0c-.009.061.042.139.11.1h0c.111-.072.19.156.055.305h0c-.151.161.056.065.126.284h0c.033.114-.087.164-.1.253h0c-.011.1-.031.1,0,.195h0c-1.187-1.092-1.253-2.559-2.616-3.616Z" transform="translate(-16082.071 -21121.441)" fill="#008e45"/><path d="M64.186,321.492a.2.2,0,0,0-.017.3h0c.086.121.363.379.081.362h0c-.106-.009-.256-.031-.268.138h0c-.007.143.144.231.261.286h0c.1.044.307.087.3.232h0c-.022.157-.214.081-.29.165h0c-.106.131.007.3.115.367h0c.124.075.247.011.364.044h0a.215.215,0,0,1,.155.29h0c-.07.129-.221.049-.188.278h0c.069.426.456.07.612.291h0c.114.184-.1.164-.094.341h0c.012.193.2.175.311.154h0c.059-.011.106-.047.171-.039h0a.081.081,0,0,1,.05.138h0c-.1.091.095.224.271.129h0c.195-.108.042.073.266.169h0c.117.046.194-.054.295-.055h0a.52.52,0,0,1,.227.023h0c-1.187-1.092-1.252-2.559-2.616-3.616Z" transform="translate(-16081.403 -21121.852)" fill="#00682e"/><path d="M64.858,321.492a2.583,2.583,0,0,1,.358.292h0a3.764,3.764,0,0,1,.309.338h0a4.714,4.714,0,0,1,.284.408h0c.047.084.187.321.229.4h0a3.266,3.266,0,0,1,.356.62h0a4.637,4.637,0,0,0,.29.568h0a3.332,3.332,0,0,0,.381.555h0a5.783,5.783,0,0,0,.441.448h0c.052.056.062.034.09.057h0a.143.143,0,0,0,.1.031h0a.2.2,0,0,1,.114.031h0c.024.022,0,.055-.078.112h0a.046.046,0,0,1-.068-.013h0c-.031-.04-.055-.032-.109-.1h0a5.432,5.432,0,0,1-.5-.512h0a4.93,4.93,0,0,1-.461-.674h0c-.124-.233-.289-.609-.32-.688h0c-.038-.078-.47-.741-.559-.894h0a3.71,3.71,0,0,0-.415-.562h0a4.2,4.2,0,0,0-.441-.414Z" transform="translate(-16082.076 -21121.852)" fill="#5e4400" fill-rule="evenodd"/><path d="M90.393,330.8a.356.356,0,0,1,.309.226h0c.066.148.029.422.263.323h0c.117-.053.119-.213.283-.06h0a.313.313,0,0,1,.029.368h0c-.043.095-.185.261-.1.359h0c.1.1.227-.078.334-.066h0c.162.028.151.22.083.344h0c-.077.138-.223.173-.323.276h0c-.089.095-.162.264-.044.325h0c.116.051.238-.116.288.082h0c.077.373-.442.369-.514.647h0c-.044.22.155.059.224.2h0c.069.16-.107.272-.22.331h0c-.058.03-.118.032-.17.083h0c-.044.042-.05.136.03.143h0c.132.01.059.239-.139.276h0c-.218.039.005.086-.07.3h0c-.042.111-.168.079-.235.14h0c-.07.074-.086.062-.115.156h0c-.293-1.585.537-2.8.083-4.461Z" transform="translate(-16101.556 -21128.996)" fill="#008e45"/><path d="M87.185,330.8c-.2.034-.195.158-.2.231h0c0,.15.062.522-.153.339h0c-.079-.07-.185-.178-.3-.05h0c-.092.11-.024.27.037.385h0c.053.1.193.254.1.362h0c-.111.114-.22-.062-.331-.041h0c-.164.041-.172.241-.128.363h0c.054.135.191.156.264.253h0a.215.215,0,0,1-.051.325h0c-.133.061-.206-.093-.319.108h0c-.2.382.323.329.315.6h0c-.018.214-.177.071-.28.215h0c-.106.161.052.257.156.309h0c.054.027.113.026.159.072h0a.081.081,0,0,1-.042.141h0c-.133.015-.059.236.138.266h0c.221.03-.01.084.11.295h0c.066.108.187.074.269.133h0c.093.072.1.061.168.154h0c-.292-1.585.537-2.8.083-4.461Z" transform="translate(-16098.346 -21128.996)" fill="#00682e"/><path d="M90.249,330.8a2.6,2.6,0,0,1,.111.449h0a3.617,3.617,0,0,1,.043.455h0a4.852,4.852,0,0,1-.018.5h0c-.013.1-.044.37-.056.453h0a3.157,3.157,0,0,1-.088.71h0a4.7,4.7,0,0,0-.11.628h0a3.348,3.348,0,0,0-.028.672h0a5.4,5.4,0,0,0,.083.622h0c.007.077.029.066.037.1h0a.14.14,0,0,0,.06.084h0a.2.2,0,0,1,.072.093h0c.007.032-.034.042-.13.042h0a.046.046,0,0,1-.046-.05h0c0-.053-.025-.059-.029-.144h0a5.715,5.715,0,0,1-.091-.71h0a5.052,5.052,0,0,1,.038-.815h0c.04-.262.136-.661.158-.743h0c.017-.084.07-.874.091-1.05h0a3.672,3.672,0,0,0,.006-.7h0a4.132,4.132,0,0,0-.1-.6Z" transform="translate(-16101.41 -21128.996)" fill="#5e4400" fill-rule="evenodd"/><path d="M73.366,327.174a.355.355,0,0,1,.383.013h0c.138.084.262.332.4.118h0c.067-.109-.022-.242.2-.208h0a.312.312,0,0,1,.231.288h0c.019.1-.005.319.122.351h0c.142.028.143-.192.239-.242h0c.15-.069.249.1.264.237h0c.013.157-.088.268-.113.41h0c-.02.128.016.31.147.294h0c.125-.024.132-.23.285-.095h0c.274.266-.158.555-.06.824h0c.088.208.162-.038.3.043h0c.147.094.065.285,0,.4h0c-.031.058-.079.093-.094.164h0c-.012.061.035.141.1.1h0c.115-.067.185.164.042.307h0c-.158.153.053.068.113.289h0c.029.115-.094.159-.114.248h0c-.017.1-.037.1-.007.2h0c-1.136-1.145-1.134-2.614-2.448-3.733Z" transform="translate(-16088.604 -21126.146)" fill="#008e45"/><path d="M72.581,327.442a.2.2,0,0,0-.032.3h0c.081.125.345.4.064.365h0c-.1-.013-.254-.042-.272.127h0c-.013.142.133.236.246.3h0c.1.05.3.1.284.246h0c-.028.157-.217.072-.3.152h0c-.112.126-.006.3.1.372h0c.12.081.246.021.361.061h0a.215.215,0,0,1,.142.3h0c-.076.126-.223.038-.2.268h0c.05.429.453.091.6.32h0c.105.188-.105.158-.11.336h0c0,.193.188.183.3.167h0c.059-.008.108-.042.173-.031h0a.082.082,0,0,1,.044.141h0c-.1.087.085.227.265.142h0c.2-.1.038.074.257.181h0c.116.052.2-.044.3-.041h0a.5.5,0,0,1,.226.034h0c-1.135-1.146-1.134-2.615-2.447-3.734Z" transform="translate(-16087.817 -21126.416)" fill="#00682e"/><path d="M73.376,327.442a2.718,2.718,0,0,1,.344.309h0a3.821,3.821,0,0,1,.293.352h0c.066.09.222.336.266.421h0c.042.086.172.33.21.406h0a3.215,3.215,0,0,1,.326.635h0a4.719,4.719,0,0,0,.263.582h0a3.341,3.341,0,0,0,.356.57h0a5.451,5.451,0,0,0,.42.468h0c.048.059.06.037.086.061h0a.143.143,0,0,0,.1.037h0a.2.2,0,0,1,.112.035h0c.023.023,0,.054-.084.108h0a.046.046,0,0,1-.066-.016h0c-.03-.043-.054-.034-.1-.1h0a5.687,5.687,0,0,1-.476-.535h0a4.907,4.907,0,0,1-.429-.7h0c-.114-.238-.26-.621-.289-.7h0c-.034-.08-.434-.762-.517-.919h0a3.678,3.678,0,0,0-.389-.581h0a4.268,4.268,0,0,0-.42-.434Z" transform="translate(-16088.612 -21126.416)" fill="#5e4400" fill-rule="evenodd"/><path d="M97.472,444.257v18.815l.01.019h.005c1.125-2.345,2.606-1.563,7.4-2.019s4.974-5.471,4.974-5.471V444.257Z" transform="translate(-16107.101 -21216.047)" fill="#2773b3"/><path d="M44.329,455.6s.177,5.015,4.974,5.471,6.268-.32,7.392,2V444.257H44.329Z" transform="translate(-16066.324 -21216.047)" fill="#a3a3a3"/><path d="M69.086,382.734H44.329v14.314H69.086Z" transform="translate(-16066.323 -21168.842)" fill="#008e45"/><path d="M44.4,445.635" transform="translate(-16066.379 -21217.104)" fill="none" stroke="#611b55" stroke-width="0.1"/><path d="M55.9,451.523H51.6v-6.462c0-.546.625-.8.629-.8H48.778s.629.258.629.8c0,.529.006,6.059.007,6.462H45.074c-.526,0-.772-.658-.772-.658v3.609s.246-.658.772-.658h4.335v6.452a1.054,1.054,0,0,1-.43.767c.1.014.2.027.3.037.925.088,1.726.129,2.426.157l.525.01s-.63-.423-.63-.971v-6.452h4.3c.526,0,.771.658.771.658v-3.609S56.429,451.523,55.9,451.523Z" transform="translate(-16066.304 -21216.047)" fill="#e23817"/><g transform="translate(-16008.412 -20770.852)"><path d="M114.2,467.224l-.133-.922,3.459-.854-.668,2.217Z" transform="translate(-111.422 -461.457)" fill="#fa0"/><path d="M121.393,483.206a7.6,7.6,0,0,1,2.415-.231.853.853,0,0,1,.54,1.135c-.236.8-.573.933-.461,1.045a2.609,2.609,0,0,0,.742.461c.135.011.067.27.124.3s.214-.169.292-.169a1.08,1.08,0,0,1,.416.36c.011.068-.1.168-.247.135s-.157.034-.225.067a20.458,20.458,0,0,1-2.068-.64c-.1-.056.112-.169.135-.258a1.182,1.182,0,0,0,.124-.933,17.751,17.751,0,0,1-2.111.245" transform="translate(-116.792 -474.891)" fill="#fa0"/><path d="M105.34,471.934a3.52,3.52,0,0,0,.394,1.27.824.824,0,0,1,0,.708,11.94,11.94,0,0,0-.809,2.034c-.067.382-.494.742-.708.382a1.966,1.966,0,0,1-.09-1.551,6.2,6.2,0,0,0,.461-1.933c-.034-.618-.371-.978-.775-.809a.846.846,0,0,0-.517.73c-.034.225-.123.349-.225.36a.976.976,0,0,0-.371.7c.034.225.247,1.034.3,1.214s.2.011.348-.494a3.486,3.486,0,0,0,.191-1.281,1.182,1.182,0,0,1,.292-.888c.135-.045.394-.236.494.349a2.912,2.912,0,0,1-.37,1.573,3.71,3.71,0,0,0-.54,1.562,1.226,1.226,0,0,0,.877,1.214c.764.247.607.371.7.528a3.71,3.71,0,0,0,.652.686.946.946,0,0,1,.315.64,6.125,6.125,0,0,1-.09,1.225c-.034.079.067.169.18.214s.821.562.888.618a.537.537,0,0,0,.27.1c.067,0,.483.315.551.315a.162.162,0,0,0,.157-.225c-.045-.18-.394-.236-.394-.315s.18-.135.27-.124.214.034.214,0,.022-.112-.011-.157a.672.672,0,0,0-.506-.034c-.214.068-.753-.382-.764-.505a2.577,2.577,0,0,1,.539-1.495,1.284,1.284,0,0,0-.146-1.989h-.146s.18-1.641,1.236-2a4.677,4.677,0,0,0,1.225-1.506" transform="translate(-102.697 -466.434)" fill="#fa0"/><path d="M115.334,452.148a7.353,7.353,0,0,0,.531-.9,2.658,2.658,0,0,1,1.066-1.014c.143-.051.379.1.41.051s0-.2,0-.2-.287-.072-.328-.092.031-.113.072-.164.338.082.318-.01-.276-.236-.328-.246-.164.154-.256.154-.041-.113-.051-.215.236-.031.236-.031-.041-.154-.092-.184a1.118,1.118,0,0,0-.482.143c-.061.051-.717.871-.932,1.127a4.085,4.085,0,0,1-.789.595.942.942,0,0,1-.277-.031.652.652,0,0,0-.287-.041,1.669,1.669,0,0,1-.349-.133c-.082-.031-.1-.256-.1-.349s-.185-.123-.256,0-.85.113-.85.113.092-.184.215-.389.728-.092.789-.154a4.371,4.371,0,0,0,.082-.993c0-.226-.092-.216-.092-.216l-.015.022a1.007,1.007,0,0,1-.9-.062c-.4-.279-.589-.62-.683-.62s-.372.031-.372.031.062.186-.031.155a.779.779,0,0,1-.217-.155,9.111,9.111,0,0,0-1.3,0,1.815,1.815,0,0,0-.465.341c-.062.093.046.16.113.137s-.236.146-.27.225.034.1.079.068,0,.112-.056.135a.31.31,0,0,0-.135.213.93.93,0,0,1-.022.259,4.3,4.3,0,0,0-.09.584c-.011.146,0,.888.011.956s.247-.169.236-.36,0,.539-.225.618a6.174,6.174,0,0,0,.034,1.281c.045.056.348.045.382.113a.311.311,0,0,1-.011.281.393.393,0,0,0,.034.337c.045.045.045-.146.1-.135a1.21,1.21,0,0,1,.112.652c-.056.079.326-.124.18-.978,0,0-.023.675.393.82a.611.611,0,0,1-.022-.382" transform="translate(-107.692 -448.301)" fill="#fa0"/><path d="M123.91,460.563s-.02.113.051.143.338.072.43.246.031.359.062.41.256.133.246.205-.184.266-.174.318a.4.4,0,0,0,.072.205,1.344,1.344,0,0,1,0,.728l.02-.092s.646-.062.912-.062a1.994,1.994,0,0,0,.656-.184,5.408,5.408,0,0,1,.359-.789c.092-.092.226-.256.307-.267a1.1,1.1,0,0,1,.318.092,1.871,1.871,0,0,0-.174.133c-.082.072-.205.205-.185.256s.226-.113.318-.144a.934.934,0,0,1,.236-.031l-.01.164s.02.01-.072.092-.184.2-.113.2a1.275,1.275,0,0,0,.205,0l.072-.2s.123.062.123.144a1.236,1.236,0,0,1-.482.7,4.69,4.69,0,0,1-1.844.861,2.31,2.31,0,0,0-1.332.441,3.78,3.78,0,0,1-1.045.7c-.328.113-.779.379-1.148-.185s-.195-.584-.369-.564" transform="translate(-117.008 -457.71)" fill="#fa0"/><path d="M110.4,458.006l.031.656a1.608,1.608,0,0,1-.3.543c-.174.164-.154-.133-.154-.133" transform="translate(-108.288 -455.748)" fill="none"/><g transform="translate(2.014 0.373)"><path d="M111.74,449.9a1.17,1.17,0,0,1-.031.359c-.041.051-.369.359-.359.554a1.913,1.913,0,0,0,.092.6" transform="translate(-111.35 -449.904)" fill="none"/><path d="M112.892,451.41a.242.242,0,0,1,.307.154" transform="translate(-112.533 -451.051)" fill="none"/></g><path d="M112.892,453.492l.031.195.051-.215Z" transform="translate(-110.52 -452.268)" fill="none"/><path d="M114.962,448.98a.691.691,0,0,1,.42.133.882.882,0,0,0,.215.154" transform="translate(-112.108 -448.822)" fill="none"/><path d="M116.019,452.933a1.66,1.66,0,0,0,.379-.195,1.047,1.047,0,0,1,.635-.144,1.614,1.614,0,0,0,.584-.092,1.639,1.639,0,0,0-.451.205.765.765,0,0,1-.879.124" transform="translate(-112.919 -451.524)" fill="none"/><path d="M118.044,458.315s-.01.441.256.6.369.1.359.205a.914.914,0,0,0,.031-.686" transform="translate(-114.472 -455.985)" fill="none"/><path d="M120.056,462.89s-.082.42.02.564a2.969,2.969,0,0,0,.43.359c.072.072-.072-.154.041-.431a.85.85,0,0,0,.02-.707" transform="translate(-115.993 -459.329)" fill="none"/><path d="M112.936,462.19a.881.881,0,0,0-.01.615c.133.226.307.328.287.431a1.243,1.243,0,0,0,.317-.912" transform="translate(-110.502 -458.958)" fill="none"/><path d="M116.64,463.643a1.209,1.209,0,0,1-.061.594,1.441,1.441,0,0,0-.236.441c0,.072-.174-.226-.154-.41" transform="translate(-113.048 -460.073)" fill="none"/><path d="M117.472,471.371a.582.582,0,0,0,.225.471c.236.154.266.266.256.39s.4-.43.246-1.014" transform="translate(-114.034 -465.884)" fill="none"/><path d="M124.676,467.254s.133.769,0,.881.482.072.543-.277" transform="translate(-119.547 -462.844)" fill="none"/><path d="M126.961,468.776a1.574,1.574,0,0,1-.02.687c-.1.195.42-.349.676-.543a.738.738,0,0,0,.133-.563" transform="translate(-121.289 -463.689)" fill="none"/><path d="M131.343,466.758s.3.39.215.615.359-.277.359-.471a.548.548,0,0,0-.113-.441" transform="translate(-124.677 -462.235)" fill="none"/><path d="M126.742,461.616a.693.693,0,0,1,.4-.072.736.736,0,0,1,.4.564.9.9,0,0,0-.389-.154c-.144.01-.584.154-.7-.246" transform="translate(-120.926 -458.456)" fill="none"/><path d="M126.252,463.336a.59.59,0,0,0,.072.287.669.669,0,0,1-.092.574c-.092.134.051-.266-.246-.369s-.482-.133-.543-.277" transform="translate(-120.15 -459.837)" fill="none"/></g><g transform="translate(-16015.595 -20785.863)"><path d="M94.195,390.582a6.781,6.781,0,0,0,0-6.8h0a6.78,6.78,0,0,0,0,6.791Z" transform="translate(-88.305 -383.783)" fill="#e23817"/><path d="M77.725,401.768a6.781,6.781,0,0,0-5.887-3.4l0,0a6.78,6.78,0,0,0,5.88,3.4Z" transform="translate(-71.835 -394.969)" fill="#e23817"/><path d="M77.728,413a6.781,6.781,0,0,0-5.889,3.4l0,0a6.78,6.78,0,0,0,5.882-3.393Z" transform="translate(-71.838 -406.202)" fill="#e23817"/><path d="M94.2,413a6.781,6.781,0,0,0,0,6.8h0a6.78,6.78,0,0,0,0-6.791Z" transform="translate(-88.311 -406.202)" fill="#e23817"/><path d="M97.145,413a6.781,6.781,0,0,0,5.887,3.4l0,0a6.779,6.779,0,0,0-5.879-3.4Z" transform="translate(-91.255 -406.198)" fill="#e23817"/><path d="M97.145,401.763a6.783,6.783,0,0,0,5.889-3.4l0,0a6.779,6.779,0,0,0-5.882,3.393Z" transform="translate(-91.255 -394.964)" fill="#e23817"/></g></g></svg>