<svg viewBox="0 0 393 126.35" xmlns="http://www.w3.org/2000/svg"><g fill="#000ccc" transform="translate(-9.5 -7.5)"><path d="m29.44 58.73a20.81 20.81 0 0 0 -12 3.79l-.17-.09v-2.75h-7.77v61.21h7.74v-20.2l.17-.09a23.83 23.83 0 0 0 10.4 2.32c12.21 0 22.09-8.68 22.09-22.26-0-13.07-9.11-21.93-20.46-21.93zm-1.44 37.4a23.27 23.27 0 0 1 -10.74-2.92v-23.64a17.58 17.58 0 0 1 10.89-3.87c8.43 0 13.93 7 13.93 15.56s-5.67 14.87-14.08 14.87z"/><path d="m87.73 91.66v-18c0-5.24-1.72-8.85-4.21-11.09-3-2.75-7.48-3.87-12.64-3.87a26.6 26.6 0 0 0 -14.1 3.62v7.56a22.05 22.05 0 0 1 13-4.21c3.61 0 6.19.86 7.82 2.32s2.4 3.9 2.4 7.01v3.53a37 37 0 0 0 -9-1.12c-4.38 0-8.68.77-11.86 2.84a11.75 11.75 0 0 0 -5.59 10.31 11.26 11.26 0 0 0 4.45 9.35 16.89 16.89 0 0 0 10.06 3 20 20 0 0 0 13-4.64h.18a9 9 0 0 0 8.16 4.47 11 11 0 0 0 4.13-.77v-6.44a6 6 0 0 1 -2.49.6c-2.37 0-3.31-1.89-3.31-4.47zm-7.73.69a17.64 17.64 0 0 1 -10.58 3.65c-4.56 0-8.08-2.06-8.08-6.18 0-5 5.15-6.54 10.4-6.54a31.8 31.8 0 0 1 8.26 1.16z"/><path d="m117.73 58.73a20.84 20.84 0 0 0 -12 3.79l-.17-.09v-2.75h-7.77v61.21h7.73v-20.2l.17-.09a23.88 23.88 0 0 0 10.41 2.32c12.2 0 22.09-8.68 22.09-22.26 0-13.07-9.11-21.93-20.46-21.93zm-1.46 37.4a23.32 23.32 0 0 1 -10.75-2.92v-23.64a17.61 17.61 0 0 1 10.92-3.87c8.43 0 13.93 7 13.93 15.56s-5.68 14.87-14.1 14.87z"/><path d="m162.78 58.73c-11.35 0-21.07 8.77-21.07 22.1s9.8 22.09 22.87 22.09c5.5 0 11.35-1.55 15.13-4v-8.21a24.07 24.07 0 0 1 -14.61 5.29c-8.34 0-14.53-4.56-15.65-12.9h32.32a25.39 25.39 0 0 0 .23-3.9c0-13.2-8.91-20.47-19.22-20.47zm-13.16 18.27c1.38-7.82 7.4-11.26 13-11.26 5.08 0 11.27 2.84 12 11.26z"/><path d="m195.94 66-.18-.09v-6.23h-7.76v42.32h7.73v-27.53c2.67-4.56 6.71-7.48 12.47-7.48a12.36 12.36 0 0 1 3 .34v-7.65a10.4 10.4 0 0 0 -2.75-.34 15.4 15.4 0 0 0 -12.51 6.66z"/><path d="m235.22 58.73a20.81 20.81 0 0 0 -12 3.79l-.18-.09v-2.75h-7.73v61.21h7.69v-20.2l.18-.09a23.83 23.83 0 0 0 10.4 2.32c12.21 0 22.09-8.68 22.09-22.26.01-13.07-9.1-21.93-20.45-21.93zm-1.46 37.4a23.32 23.32 0 0 1 -10.76-2.92v-23.64a17.61 17.61 0 0 1 10.92-3.87c8.43 0 13.93 7 13.93 15.56s-5.67 14.87-14.09 14.87z"/><path d="m310.34 91.66v-18c0-5.24-1.72-8.85-4.21-11.09-3-2.75-7.48-3.87-12.64-3.87a26.56 26.56 0 0 0 -14.09 3.62v7.56a22.05 22.05 0 0 1 13-4.21c3.61 0 6.19.86 7.82 2.32s2.41 3.87 2.41 7v3.53a37 37 0 0 0 -9-1.12c-4.38 0-8.68.77-11.86 2.84a11.73 11.73 0 0 0 -5.59 10.31 11.26 11.26 0 0 0 4.47 9.37 16.89 16.89 0 0 0 10.06 3 20.06 20.06 0 0 0 13-4.64h.17a9 9 0 0 0 8.17 4.47 11 11 0 0 0 4.12-.77v-6.45a5.93 5.93 0 0 1 -2.49.6c-2.39 0-3.34-1.89-3.34-4.47zm-7.73.69a17.67 17.67 0 0 1 -10.61 3.65c-4.52 0-8-2-8-6.14 0-5 5.16-6.54 10.4-6.54a31.81 31.81 0 0 1 8.26 1.12z"/><path d="m343.1 58.73a21 21 0 0 0 -14.79 6.37l-.17-.09v-5.33h-7.74v42.32h7.74v-29c3-4.05 8.42-7.05 13.24-7.05a8.74 8.74 0 0 1 6.79 2.75c1.37 1.63 2 4.21 2 8.59v24.71h7.73v-26.16c0-6.53-1.2-9.8-3.52-12.46a14.64 14.64 0 0 0 -11.28-4.65z"/><path d="m383.24 58.73c-11.34 0-21.06 8.77-21.06 22.1s9.8 22.09 22.87 22.09c5.5 0 11.35-1.55 15.13-4v-8.21a24.08 24.08 0 0 1 -14.62 5.29c-8.33 0-14.52-4.56-15.64-12.9h32.32a26.74 26.74 0 0 0 .26-3.86c0-13.24-8.94-20.51-19.26-20.51zm-13.15 18.27c1.38-7.82 7.39-11.26 13-11.26 5.07 0 11.26 2.84 11.95 11.26z"/><path d="m293.42 110.93c-5.64-3.33-13-4-20.07-2.14a58.16 58.16 0 0 1 -2.27-7.6c-3-14-1.38-35.94 2-54.8l.9-1 13.15 5 2.11-2.08-.1-.29c-.84-2.31-6.93-30-9-39.55l-.07-.29-2.87-.67-28.28 35.56-.2.25 1.48 2.68 14.8-1.75.45 1c-3.45 19.75-5.16 42.75-1.93 57.59a57.33 57.33 0 0 0 1.93 6.77c.27.79.53 1.55.82 2.29-7.06 3.86-12.46 9.78-16.42 14.73l5.94 4.37c3.41-4.24 8-9.13 13.58-12.36 4.17 7.51 8.57 10.61 9 10.93a17.74 17.74 0 0 0 11.19 4.28 11.94 11.94 0 0 0 9.72-4.75 11.29 11.29 0 0 0 .84-11 16.1 16.1 0 0 0 -6.7-7.17zm-24.08-65.76-1.44-3.17 6.55-17.86-2.82 18.55zm9.25-27.11c2 8.88 4.76 21.53 6.27 27.68l-9.86-3.74zm-5.29 0-8.3 22.62-10.64 1.24zm20.15 105.16a3 3 0 0 1 -1.05 1.95c-3.55 3.35-9.43-1.61-12.83-5.51a25.45 25.45 0 0 1 -2.82-3.92 19.39 19.39 0 0 1 12.74 1.81c3.45 1.99 4.1 4.25 3.96 5.71z"/></g></svg>